<?xml version="1.0" standalone="no"?>
<!DOCTYPE svg PUBLIC "-//W3C//DTD SVG 1.1//EN" "http://www.w3.org/Graphics/SVG/1.1/DTD/svg11.dtd" >
<svg>
<metadata>
Created by FontForge 20090914 at Sun Dec  6 13:41:12 2020
 By www-data
Copyright (c) 2011 by Anja Meiners, with Reserved Font Name 'ABeeZee'
</metadata>
<defs>
<font id="ABeeZee-Regular" horiz-adv-x="600" >
  <font-face 
    font-family="ABeeZee"
    font-weight="400"
    font-stretch="normal"
    units-per-em="1000"
    panose-1="2 0 0 0 0 0 0 0 0 0"
    ascent="800"
    descent="-200"
    x-height="520"
    cap-height="700"
    bbox="-85 -262 976.998 920.003"
    underline-thickness="50"
    underline-position="-50"
    unicode-range="U+0001-U+F6C3"
  />
<missing-glyph 
d="M106 700h388v-700h-388v700zM426 68v564h-252v-564h252z" />
    <glyph glyph-name=".notdef" 
d="M106 700h388v-700h-388v700zM426 68v564h-252v-564h252z" />
    <glyph glyph-name="uni0001" horiz-adv-x="0" 
 />
    <glyph glyph-name="uni0002" horiz-adv-x="0" 
 />
    <glyph glyph-name="uni0003" horiz-adv-x="0" 
 />
    <glyph glyph-name="uni0004" horiz-adv-x="0" 
 />
    <glyph glyph-name="uni0005" horiz-adv-x="0" 
 />
    <glyph glyph-name="uni0006" horiz-adv-x="0" 
 />
    <glyph glyph-name="uni0007" horiz-adv-x="0" 
 />
    <glyph glyph-name="uni0008" horiz-adv-x="0" 
 />
    <glyph glyph-name="uni0009" unicode="&#x9;" horiz-adv-x="0" 
 />
    <glyph glyph-name="uni0010" horiz-adv-x="0" 
 />
    <glyph glyph-name="uni0011" horiz-adv-x="0" 
 />
    <glyph glyph-name="uni0012" horiz-adv-x="0" 
 />
    <glyph glyph-name="uni0013" horiz-adv-x="0" 
 />
    <glyph glyph-name="uni0014" horiz-adv-x="0" 
 />
    <glyph glyph-name="uni0015" horiz-adv-x="0" 
 />
    <glyph glyph-name="uni0016" horiz-adv-x="0" 
 />
    <glyph glyph-name="uni0017" horiz-adv-x="0" 
 />
    <glyph glyph-name="uni0018" horiz-adv-x="0" 
 />
    <glyph glyph-name="uni0019" horiz-adv-x="0" 
 />
    <glyph glyph-name="space" unicode=" " horiz-adv-x="300" 
 />
    <glyph glyph-name="exclam" unicode="!" horiz-adv-x="314" 
d="M106 729h100v-249l-13 -273h-74l-13 273v249zM90 55c0 20.667 5.83301 37 17.5 49s28.167 18 49.5 18c17.333 0 32.833 -6.66699 46.5 -20s20.5 -29 20.5 -47c0 -20 -6.33301 -36.167 -19 -48.5s-28.667 -18.5 -48 -18.5c-18 0 -33.667 6.66699 -47 20s-20 29 -20 47z
" />
    <glyph glyph-name="quotedbl" unicode="&#x22;" horiz-adv-x="300" 
d="M113 700l-8 -223h-71l-8 223h87zM274 700l-8 -223h-71l-8 223h87z" />
    <glyph glyph-name="numbersign" unicode="#" horiz-adv-x="750" 
d="M140 0l22 124h-91l12 73h92l43 250h-91l12 73h92l22 124h80l-22 -124h196l22 124h80l-22 -124h92l-12 -73h-93l-43 -250h91l-12 -73h-92l-22 -124h-80l22 124h-196l-22 -124h-80zM255 197h196l43 250h-196z" />
    <glyph glyph-name="dollar" unicode="$" 
d="M110 156c22 -18.667 46.6699 -33.834 74.0029 -45.501s59.666 -17.5 96.999 -17.5c44 0 78.833 9.16699 104.5 27.5s38.5 43.166 38.5 74.499c0 13.333 -1.83301 25.5 -5.5 36.5s-10.834 21.5 -21.501 31.5s-25.667 20 -45 30s-44.333 21 -75 33
c-33.333 12.667 -61.333 25.5 -84 38.5s-41 27 -55 42s-24.167 31.333 -30.5 49s-9.5 38.167 -9.5 61.5c0 20.667 4 40.5 12 59.5s19.833 35.667 35.5 50s34.834 26.333 57.501 36s48.667 15.834 78 18.501l-8 114h88l-9 -114c30 -2 57.5 -6.66699 82.5 -14
s49.5 -16.666 73.5 -27.999l-32 -75c-21.333 12 -45.833 22.333 -73.5 31s-56.834 13 -87.501 13c-40.667 0 -72.667 -8 -96 -24s-35 -36.667 -35 -62c0 -12 1.66699 -22.833 5 -32.5s10 -19 20 -28s24.167 -18.167 42.5 -27.5s42.5 -19.333 72.5 -30
c36 -13.333 66.167 -27 90.5 -41s43.833 -29 58.5 -45s25.167 -33.167 31.5 -51.5s9.5 -38.5 9.5 -60.5c0 -26.667 -4.5 -50.667 -13.5 -72s-21.667 -39.833 -38 -55.5s-35.833 -28.5 -58.5 -38.5s-47.334 -16.667 -74.001 -20l9 -115h-88l8 112
c-40 2.66699 -76.667 9.66699 -110 21s-61 26 -83 44z" />
    <glyph glyph-name="percent" unicode="%" horiz-adv-x="900" 
d="M199 -2l437 742l60 -38l-437 -742zM380 490c0 -69.333 -14.665 -123.333 -43.998 -162s-72 -58 -128 -58s-98.333 19.167 -127 57.5s-43 92.5 -43 162.5c0 69.333 14.667 122.833 44 160.5s71.666 56.5 126.999 56.5s97.666 -18.833 126.999 -56.5s44 -91.167 44 -160.5z
M297.002 490c0 50 -7.66797 87.667 -23.001 113s-37.333 38 -66 38c-27.333 0 -48.666 -11.167 -63.999 -33.5s-23 -61.5 -23 -117.5c0 -50 7.66699 -88 23 -114s37 -39 65 -39c14 0 26.5 2.66699 37.5 8s20.167 14 27.5 26s13 27.667 17 47s6 43.333 6 72zM862.001 214
c0 -69.333 -14.665 -123.333 -43.998 -162s-72 -58 -128 -58s-98.333 19.167 -127 57.5s-43 92.5 -43 162.5c0 69.333 14.667 122.833 44 160.5s71.666 56.5 126.999 56.5s97.666 -18.833 126.999 -56.5s44 -91.167 44 -160.5zM779.003 214
c0 50 -7.66797 87.667 -23.001 113s-37.333 38 -66 38c-27.333 0 -48.666 -11.167 -63.999 -33.5s-23 -61.5 -23 -117.5c0 -50 7.66699 -88 23 -114s37 -39 65 -39c14 0 26.5 2.66699 37.5 8s20.167 14 27.5 26s13 27.667 17 47s6 43.333 6 72z" />
    <glyph glyph-name="ampersand" unicode="&#x26;" horiz-adv-x="737" 
d="M273 336c-30 -20.667 -52.168 -42.168 -66.501 -64.501s-21.5 -49.166 -21.5 -80.499c0 -17.333 3.5 -33.333 10.5 -48s16.667 -27.5 29 -38.5s27 -19.5 44 -25.5s35.5 -9 55.5 -9c28.667 0 55.334 6.83301 80.001 20.5s46.667 32.5 66 56.5zM236.999 544.999
c0 -22.667 5.16699 -44.333 15.5 -65s26.833 -42 49.5 -64c42 21.333 71.667 42.5 89 63.5s26 45.5 26 73.5c0 24 -8 44.5 -24 61.5s-37.333 25.5 -64 25.5s-48.667 -9 -66 -27s-26 -40.667 -26 -68zM227.999 384c-25.333 27.333 -44.001 52.8281 -56.001 76.4951
s-18 51.5 -18 83.5c0 24 4.16699 46.167 12.5 66.5s20.166 38 35.499 53s33.833 26.833 55.5 35.5s46.167 13 73.5 13c26.667 0 50.5 -4 71.5 -12s38.667 -18.833 53 -32.5s25.333 -29.5 33 -47.5s11.5 -37.333 11.5 -58c0 -42.667 -12.333 -79 -37 -109
s-63.667 -58 -117 -84l165 -157c6.66699 12.667 12 26.334 16 41.001s7.5 29.334 10.5 44.001s6.66699 28.834 11 42.501s10.5 25.667 18.5 36s18.667 18.666 32 24.999s30.666 9.5 51.999 9.5l22 -71c-14 0 -25.167 -2.83301 -33.5 -8.5s-15 -13.167 -20 -22.5
s-9 -20.166 -12 -32.499l-9.5 -38.5c-3.33301 -13.333 -7.16602 -26.666 -11.499 -39.999s-10.166 -25.666 -17.499 -36.999l118 -108l-56 -60l-106 100c-27.333 -31.333 -57.666 -56.5 -90.999 -75.5s-74.666 -28.5 -123.999 -28.5c-30 0 -58.333 4.5 -85 13.5
s-50 21.833 -70 38.5s-35.833 36.667 -47.5 60s-17.5 49.333 -17.5 78c0 42 10.667 80 32 114s56.666 64.667 105.999 92z" />
    <glyph glyph-name="quotesingle" unicode="'" horiz-adv-x="150" 
d="M119 700l-8 -222h-71l-8 222h87z" />
    <glyph glyph-name="parenleft" unicode="(" horiz-adv-x="300" 
d="M152 320c0 -81.333 8.66797 -155.999 26.001 -223.999s38.666 -131 63.999 -189l-53 -30c-42 74 -74.5 146.833 -97.5 218.5s-34.5 146.5 -34.5 224.5c0 82.667 11.667 159.667 35 231s55.666 142 96.999 212l53 -30c-25.333 -56.667 -46.666 -119.334 -63.999 -188.001
s-26 -143.667 -26 -225z" />
    <glyph glyph-name="parenright" unicode=")" horiz-adv-x="300" 
d="M148 320c0 81.333 -8.66602 156.33 -25.999 224.997s-38.666 131.334 -63.999 188.001l53 30c20.667 -35.333 39.167 -70.333 55.5 -105s30.166 -70.167 41.499 -106.5s20 -73.666 26 -111.999s9 -78.166 9 -119.499c0 -78 -11.5 -152.833 -34.5 -224.5
s-55.5 -144.5 -97.5 -218.5l-53 30c25.333 58 46.666 121 63.999 189s26 142.667 26 224z" />
    <glyph glyph-name="asterisk" unicode="*" horiz-adv-x="450" 
d="M195 617l-9 123h80l-9 -121l114 44l23 -75l-116 -29l77 -94l-64 -46l-64 103l-66 -104l-63 47l76 92l-117 30l24 76z" />
    <glyph glyph-name="plus" unicode="+" 
d="M343 304v-163h-85v163h-153v78h153v163h85v-163h152v-78h-152z" />
    <glyph glyph-name="comma" unicode="," horiz-adv-x="300" 
d="M220 65c-7.33301 -51.333 -23.167 -95.834 -47.5 -133.501s-55.5 -68.167 -93.5 -91.5l-49 28c26.667 34 48 68.333 64 103s28.667 74.334 38 119.001z" />
    <glyph glyph-name="hyphen" unicode="-" 
d="M130 302v82h340v-82h-340z" />
    <glyph glyph-name="period" unicode="." horiz-adv-x="300" 
d="M83 55c0 20.667 5.83301 37 17.5 49s28.167 18 49.5 18c17.333 0 32.833 -6.66699 46.5 -20s20.5 -29 20.5 -47c0 -20 -6.33301 -36.167 -19 -48.5s-28.667 -18.5 -48 -18.5c-18 0 -33.667 6.66699 -47 20s-20 29 -20 47z" />
    <glyph glyph-name="slash" unicode="/" horiz-adv-x="450" 
d="M47 -46l282 819l74 -25l-282 -819z" />
    <glyph glyph-name="zero" unicode="0" 
d="M301 712c38.667 0 73 -8.16602 103 -24.499s55 -40 75 -71s35.167 -69 45.5 -114s15.5 -96.167 15.5 -153.5c0 -116 -20.667 -205.167 -62 -267.5s-101 -93.5 -179 -93.5s-137.333 31.667 -178 95s-61 152.666 -61 267.999c0 116 20.667 205.167 62 267.5
s101 93.5 179 93.5zM300 630.001c-22 0 -42 -4.83301 -60 -14.5s-33.333 -25.334 -46 -47.001s-22.334 -50.167 -29.001 -85.5s-10 -79 -10 -131c0 -92.667 12.667 -162.834 38 -210.501s61 -71.5 107 -71.5c22 0 42 4.83301 60 14.5s33.333 25.334 46 47.001
s22.334 50.167 29.001 85.5s10 79 10 131c0 92.667 -12.667 162.834 -38 210.501s-61 71.5 -107 71.5z" />
    <glyph glyph-name="one" unicode="1" 
d="M377 700v-620h119v-80h-352v80h143v505l-134 -101l-49 67l207 149h66z" />
    <glyph glyph-name="two" unicode="2" 
d="M88 0c-2 12 -2.99609 24.333 -2.99609 37c0 42.667 7.83301 81.334 23.5 116.001s35.167 66.167 58.5 94.5s48.5 54.666 75.5 78.999l75.5 70c23.333 22.333 42.833 44.666 58.5 66.999s23.5 46.166 23.5 71.499c0 28 -10.333 51.167 -31 69.5s-47.334 27.5 -80.001 27.5
c-28 0 -53.5 -5.5 -76.5 -16.5s-44.5 -25.833 -64.5 -44.5l-50 61c26.667 24 56.167 43.333 88.5 58s69.833 22 112.5 22c29.333 0 56.166 -4.33301 80.499 -13s45 -20.834 62 -36.501s30.167 -33.834 39.5 -54.501s14 -43 14 -67c0 -32 -7.16699 -61.5 -21.5 -88.5
s-32.333 -52.667 -54 -77s-45.334 -47.666 -71.001 -69.999s-49.834 -45.166 -72.501 -68.499s-42.5 -47.666 -59.5 -72.999s-27.167 -52.666 -30.5 -81.999h308v-82h-406z" />
    <glyph glyph-name="three" unicode="3" 
d="M259 -12c-44 0 -81.8311 5.83301 -113.498 17.5s-58.834 25.834 -81.501 42.501l41 75c18.667 -14 40.167 -26.333 64.5 -37s54.5 -16 90.5 -16c44 0 78.833 11.5 104.5 34.5s38.5 52.167 38.5 87.5c0 18 -3.66699 35.333 -11 52s-18.833 31.167 -34.5 43.5
s-35.334 22.166 -59.001 29.499s-51.834 11 -84.501 11h-56v73h52c29.333 0 55 3.5 77 10.5s40.167 16.5 54.5 28.5s25 25.5 32 40.5s10.5 30.5 10.5 46.5c0 31.333 -11.833 56.666 -35.5 75.999s-52.834 29 -87.501 29c-32 0 -60 -5.16699 -84 -15.5
s-43.667 -21.833 -59 -34.5l-37 71c20 13.333 45.667 26.5 77 39.5s68 19.5 110 19.5c32.667 0 61.834 -4.66699 87.501 -14s47.334 -22 65.001 -38s31.167 -34.5 40.5 -55.5s14 -42.833 14 -65.5c0 -40 -9.83301 -73.167 -29.5 -99.5s-47.5 -48.166 -83.5 -65.499
c42 -16 74.833 -39.333 98.5 -70s35.5 -67 35.5 -109c0 -26 -4.83301 -51.5 -14.5 -76.5s-24.167 -47.167 -43.5 -66.5s-44 -34.833 -74 -46.5s-65 -17.5 -105 -17.5z" />
    <glyph glyph-name="four" unicode="4" 
d="M453 149v-149h-90v149h-299v72l209 486l78 -33l-189 -443h201v199h90v-199h83v-82h-83z" />
    <glyph glyph-name="five" unicode="5" 
d="M515 217c0 -33.333 -5.83398 -64.001 -17.501 -92.001s-28.334 -52.167 -50.001 -72.5s-47.5 -36.166 -77.5 -47.499s-63.333 -17 -100 -17c-41.333 0 -76.5 4.5 -105.5 13.5s-55.5 21.833 -79.5 38.5l47 77c18.667 -13.333 39.334 -24.5 62.001 -33.5
s48.334 -13.5 77.001 -13.5c22 0 42.167 3.33301 60.5 10s34 16.167 47 28.5s23.167 26.833 30.5 43.5s11 35 11 55c0 42 -14.167 76 -42.5 102s-68.833 39 -121.5 39h-124v352h346v-81h-261v-190h50c38.667 0 73.334 -5.16699 104.001 -15.5s56.667 -25 78 -44
s37.666 -41.5 48.999 -67.5s17 -54.333 17 -85z" />
    <glyph glyph-name="six" unicode="6" 
d="M430 620c-73.333 0 -133.334 -22.1689 -180.001 -66.502s-75.334 -105.166 -86.001 -182.499c18.667 18 42.5 34.5 71.5 49.5s62.5 22.5 100.5 22.5c28 0 53.833 -5 77.5 -15s44.167 -24 61.5 -42s31 -39.833 41 -65.5s15 -54.5 15 -86.5
c0 -36.667 -5.66699 -70.167 -17 -100.5s-27 -56.166 -47 -77.499s-44 -38 -72 -50s-58.333 -18 -91 -18c-32 0 -62.167 5.83301 -90.5 17.5s-53.166 29.667 -74.499 54s-38.166 55.166 -50.499 92.499s-18.5 81.333 -18.5 132c0 56.667 7.66699 110.334 23 161.001
s38 95 68 133s67.333 68.167 112 90.5s96.667 33.5 156 33.5c6 0 12.5 -0.166992 19.5 -0.5s13.167 -0.833008 18.5 -1.5v-82c-5.33301 0.666992 -11.333 1.16699 -18 1.5s-13 0.5 -19 0.5zM312.999 367.998c-29.333 0 -56.834 -7.00195 -82.501 -21.002
s-48.5 -32.667 -68.5 -56v-22c0.666992 -31.333 4.83398 -59.333 12.501 -84s18 -45.5 31 -62.5s28.333 -30 46 -39s36.5 -13.5 56.5 -13.5s38.167 3.83301 54.5 11.5s30.333 18.334 42 32.001s20.667 29.834 27 48.501s9.5 39 9.5 61c0 43.333 -11.667 78.333 -35 105
s-54.333 40 -93 40z" />
    <glyph glyph-name="seven" unicode="7" 
d="M195 0c0 76.667 5.16797 144.666 15.501 203.999s25.333 113.333 45 162s44.167 93.167 73.5 133.5s63 79.833 101 118.5h-337v82h444v-72c-46 -44.667 -84.333 -88 -115 -130s-55.334 -87 -74.001 -135s-32 -101.167 -40 -159.5s-12 -126.166 -12 -203.499h-101z" />
    <glyph glyph-name="eight" unicode="8" 
d="M203 377c-36 19.333 -63.3311 41.833 -81.998 67.5s-28 57.5 -28 95.5c0 25.333 5.16699 48.5 15.5 69.5s24.666 39.167 42.999 54.5s40 27.166 65 35.499s51.833 12.5 80.5 12.5c30.667 0 58.834 -4.33301 84.501 -13s47.667 -20.834 66 -36.501
s32.666 -33.834 42.999 -54.501s15.5 -43 15.5 -67c0 -40.667 -10.333 -73.667 -31 -99s-48.334 -46.666 -83.001 -63.999c49.333 -21.333 87 -47.166 113 -77.499s39 -67.5 39 -111.5c0 -30 -6 -57.5 -18 -82.5s-28.667 -46.167 -50 -63.5s-46.666 -30.833 -75.999 -40.5
s-61 -14.5 -95 -14.5c-38 0 -72.5 5 -103.5 15s-57.167 23.833 -78.5 41.5s-37.833 38.334 -49.5 62.001s-17.5 49.167 -17.5 76.5c0 44 11.667 81.833 35 113.5s60.666 58.5 111.999 80.5zM452.002 187c0 32 -14.168 60.668 -42.501 86.001s-67.5 47 -117.5 65
c-19.333 -4.66699 -37.666 -11.167 -54.999 -19.5s-32.5 -18.333 -45.5 -30s-23.5 -25 -31.5 -40s-12 -31.5 -12 -49.5c0 -18.667 4 -36 12 -52s19 -29.833 33 -41.5s30.667 -20.834 50 -27.501s40.333 -10 63 -10c42.667 0 77.667 11 105 33s41 50.667 41 86z
M180.001 542.001c0 -29.333 11.667 -55.499 35 -78.499s55 -40.5 95 -52.5c14.667 4.66699 28.5 11 41.5 19s24.5 17 34.5 27s18 21.333 24 34s9 26.334 9 41.001c0 15.333 -3.16699 29.5 -9.5 42.5s-15 24.167 -26 33.5s-23.833 16.666 -38.5 21.999s-30.667 8 -48 8
c-34 0 -62 -8.83301 -84 -26.5s-33 -40.834 -33 -69.501z" />
    <glyph glyph-name="nine" unicode="9" 
d="M135 133c40 -42 84.666 -63.001 133.999 -63.001c20.667 0 40.334 5.16699 59.001 15.5s35 26.166 49 47.499s25.167 48.833 33.5 82.5s12.5 73.834 12.5 120.501c-20.667 -19.333 -43.5 -35.166 -68.5 -47.499s-52.5 -18.5 -82.5 -18.5
c-26.667 0 -52.334 4.5 -77.001 13.5s-46.667 22.5 -66 40.5s-34.833 40.333 -46.5 67s-17.5 57.667 -17.5 93c0 31.333 5.5 60.833 16.5 88.5s26.333 51.834 46 72.501s43.334 37 71.001 49s58.5 18 92.5 18c34.667 0 64.334 -5.33301 89.001 -16
s45.334 -24.667 62.001 -42c12 -12.667 22.5 -26.667 31.5 -42s16.667 -34 23 -56s11 -48.333 14 -79s4.5 -67.667 4.5 -111c0 -66.667 -6.33301 -123.834 -19 -171.501s-30.334 -86.834 -53.001 -117.501s-49.167 -53.167 -79.5 -67.5s-63.5 -21.5 -99.5 -21.5
c-38.667 0 -73.334 6.83301 -104.001 20.5s-58.667 32.834 -84 57.501zM286.999 343.999c25.333 0 49.832 6.33398 73.499 19.001s44.5 28 62.5 46v30c0 63.333 -12.167 111.333 -36.5 144s-57.166 49 -98.499 49c-19.333 0 -37.166 -3.5 -53.499 -10.5
s-30.666 -16.667 -42.999 -29s-22 -27.333 -29 -45s-10.5 -37.5 -10.5 -59.5c0 -22.667 3.66699 -42.834 11 -60.501s17.166 -32.667 29.499 -45s26.666 -21.833 42.999 -28.5s33.5 -10 51.5 -10z" />
    <glyph glyph-name="colon" unicode=":" horiz-adv-x="300" 
d="M83 465c0 20.667 5.83301 37 17.5 49s28.167 18 49.5 18c17.333 0 32.833 -6.66699 46.5 -20s20.5 -29 20.5 -47c0 -20 -6.33301 -36.167 -19 -48.5s-28.667 -18.5 -48 -18.5c-18 0 -33.667 6.66699 -47 20s-20 29 -20 47zM83 55c0 20.667 5.83301 37 17.5 49
s28.167 18 49.5 18c17.333 0 32.833 -6.66699 46.5 -20s20.5 -29 20.5 -47c0 -20 -6.33301 -36.167 -19 -48.5s-28.667 -18.5 -48 -18.5c-18 0 -33.667 6.66699 -47 20s-20 29 -20 47z" />
    <glyph glyph-name="semicolon" unicode=";" horiz-adv-x="300" 
d="M206 65c-7.33301 -51.333 -23.167 -95.834 -47.5 -133.501s-55.5 -68.167 -93.5 -91.5l-49 28c26.667 34 48 68.333 64 103s28.667 74.334 38 119.001zM85.999 464.999c0 20.667 5.83301 37 17.5 49s28.167 18 49.5 18c17.333 0 32.833 -6.66699 46.5 -20
s20.5 -29 20.5 -47c0 -20 -6.33301 -36.167 -19 -48.5s-28.667 -18.5 -48 -18.5c-18 0 -33.667 6.66699 -47 20s-20 29 -20 47z" />
    <glyph glyph-name="less" unicode="&#x3c;" 
d="M477 185l-45 -71l-319 200v57l320 201l44 -70l-259 -159z" />
    <glyph glyph-name="equal" unicode="=" 
d="M103 395v79h394v-79h-394zM103 213v79h394v-79h-394z" />
    <glyph glyph-name="greater" unicode="&#x3e;" 
d="M167 572l320 -201v-57l-319 -200l-45 71l259 158l-259 159z" />
    <glyph glyph-name="question" unicode="?" horiz-adv-x="491" 
d="M45 647c26.667 32.667 56.335 58.335 89.002 77.002s72 28 118 28c28 0 53.5 -4.33301 76.5 -13s42.833 -20.334 59.5 -35.001s29.667 -31.834 39 -51.501s14 -40.834 14 -63.501c0 -28.667 -4.83301 -53 -14.5 -73s-21.834 -37.833 -36.501 -53.5
s-30.5 -30.167 -47.5 -43.5s-32.833 -27.333 -47.5 -42s-26.834 -31 -36.501 -49s-14.5 -39.667 -14.5 -65v-56h-78c-3.33301 11.333 -5.83301 23.666 -7.5 36.999s-2.5 25.666 -2.5 36.999c0 28 4.66699 52.333 14 73s21 38.834 35 54.501s29 29.834 45 42.501
s31 25.5 45 38.5s25.667 26.833 35 41.5s14 31.667 14 51c0 23.333 -9 43.833 -27 61.5s-42.333 26.5 -73 26.5c-28 0 -52.833 -6.66699 -74.5 -20s-41.5 -31.666 -59.5 -54.999zM143.001 55.001c0 20.667 5.83301 37 17.5 49s28.167 18 49.5 18
c17.333 0 32.833 -6.66699 46.5 -20s20.5 -29 20.5 -47c0 -20 -6.33301 -36.167 -19 -48.5s-28.667 -18.5 -48 -18.5c-18 0 -33.667 6.66699 -47 20s-20 29 -20 47z" />
    <glyph glyph-name="at" unicode="@" horiz-adv-x="1050" 
d="M746 -12c-34 0 -61.1709 8.49902 -81.5039 25.499s-32.5 40.167 -36.5 69.5c-18.667 -22.667 -41 -42.167 -67 -58.5s-56 -24.5 -90 -24.5c-25.333 0 -49.333 4.83301 -72 14.5s-42.667 23.667 -60 42s-31.166 40.666 -41.499 66.999s-15.5 56.5 -15.5 90.5
c0 38 6 73.333 18 106s28.333 61 49 85s45 42.833 73 56.5s58 20.5 90 20.5c34.667 0 64.167 -7 88.5 -21s43.5 -31.667 57.5 -53l9 67h79l-41 -327c-2 -15.333 -3 -27 -3 -35c0 -19.333 4 -34.333 12 -45s21.333 -16 40 -16c17.333 0 34 6.33301 50 19s30 30.5 42 53.5
s21.5 50.333 28.5 82s10.5 66.5 10.5 104.5c0 46 -8.16699 88.667 -24.5 128s-39.333 73.333 -69 102s-64.834 51 -105.501 67s-85.334 24 -134.001 24c-62 0 -117.167 -12.167 -165.5 -36.5s-89 -56.166 -122 -95.499s-58 -83.833 -75 -133.5s-25.5 -100.167 -25.5 -151.5
c0 -58 9 -109.667 27 -155s43 -83.833 75 -115.5s69.667 -55.667 113 -72s90.333 -24.5 141 -24.5s95.834 6 135.501 18s77.5 26.667 113.5 44l29 -76c-34.667 -18.667 -76.5 -34.334 -125.5 -47.001s-101.833 -19 -158.5 -19c-64 0 -123 9.66699 -177 29
s-100.667 47.833 -140 85.5s-70 84 -92 139s-33 118.5 -33 190.5c0 66.667 11.5 130.167 34.5 190.5s55.667 113.5 98 159.5s93.333 82.5 153 109.5s126.5 40.5 200.5 40.5c62.667 0 119.834 -10.167 171.501 -30.5s95.834 -48.166 132.501 -83.499s65 -77.166 85 -125.499
s30 -100.5 30 -156.5c0 -48 -5.83301 -92.167 -17.5 -132.5s-27.667 -75 -48 -104s-44.666 -51.5 -72.999 -67.5s-59.166 -24 -92.499 -24zM497.996 73.999c26 0 49.9971 7.16895 71.9971 21.502s39.667 29.833 53 46.5l24 198
c-13.333 21.333 -30.666 38.666 -51.999 51.999s-45.666 20 -72.999 20c-20 0 -39.333 -4.5 -58 -13.5s-35.167 -21.667 -49.5 -38s-25.666 -35.833 -33.999 -58.5s-12.5 -47.667 -12.5 -75c0 -50.667 12.667 -88.834 38 -114.501s56 -38.5 92 -38.5z" />
    <glyph glyph-name="A" unicode="A" horiz-adv-x="668" 
d="M10 25l274 675h104l270 -675l-87 -35l-78 200h-324l-78 -198zM199 270h263l-131 336z" />
    <glyph glyph-name="B" unicode="B" horiz-adv-x="630" 
d="M90 698c23.333 2.66699 52.168 4.99902 86.501 6.99902s74.166 3 119.499 3c86 0 151.833 -16 197.5 -48s68.5 -76 68.5 -132c0 -37.333 -9.66699 -68.666 -29 -93.999s-48 -46.333 -86 -63c45.333 -16 79.666 -38 102.999 -66s35 -63 35 -105
c0 -64 -24.833 -114.667 -74.5 -152s-122.5 -56 -218.5 -56c-40.667 0 -79.167 0.833008 -115.5 2.5s-65.166 4.16699 -86.499 7.5v696zM299.002 70.999c60 0 106.501 10.667 139.501 32s49.5 52.333 49.5 93c0 40 -16.333 71.333 -49 94s-79.334 34 -140.001 34h-114v-247
c34.667 -4 72.667 -6 114 -6zM295.003 397.999c52.667 0 94.5 10.833 125.5 32.5s46.5 50.167 46.5 85.5c0 38 -15.333 66.667 -46 86s-72.667 29 -126 29c-22 0 -42 -0.5 -60 -1.5s-34.667 -2.16699 -50 -3.5v-228h110z" />
    <glyph glyph-name="C" unicode="C" horiz-adv-x="594" 
d="M147 351c0 -42 5.50098 -80.167 16.501 -114.5s26.333 -63.833 46 -88.5s43.167 -43.667 70.5 -57s57.333 -20 90 -20s61 3.83301 85 11.5s47.333 18.167 70 31.5l29 -79c-24.667 -13.333 -52.834 -24.5 -84.501 -33.5s-68.5 -13.5 -110.5 -13.5
c-46 0 -87.833 8.33301 -125.5 25s-70.167 40.5 -97.5 71.5s-48.5 68.667 -63.5 113s-22.5 94.166 -22.5 149.499c0 53.333 7.5 102.333 22.5 147s36.5 83.167 64.5 115.5s61.833 57.5 101.5 75.5s83.834 27 132.501 27c34 0 64.5 -3.16699 91.5 -9.5
s52.5 -15.166 76.5 -26.499l-29 -80c-20.667 10 -41.834 18 -63.501 24s-47.167 9 -76.5 9c-32 0 -61.667 -6.16699 -89 -18.5s-51 -30.5 -71 -54.5s-35.5 -53.167 -46.5 -87.5s-16.5 -73.5 -16.5 -117.5z" />
    <glyph glyph-name="D" unicode="D" horiz-adv-x="682" 
d="M90 698c31.333 3.33301 61.999 5.83594 91.999 7.50293s64.333 2.5 103 2.5c60 0 111.667 -9.33301 155 -28s79.333 -44.334 108 -77.001s49.834 -70.667 63.501 -114s20.5 -89.333 20.5 -138s-7 -94.834 -21 -138.501s-35.5 -81.834 -64.5 -114.501
s-66 -58.5 -111 -77.5s-98.833 -28.5 -161.5 -28.5c-38 0 -71.167 0.833008 -99.5 2.5s-56.5 4.16699 -84.5 7.5v696zM281.999 626.003c-19.333 0 -37.001 -0.500977 -53.001 -1.50098s-30.667 -2.16699 -44 -3.5v-541c14 -2 28.667 -3.33301 44 -4s31.333 -1 48 -1
c44.667 0 83.334 6.83301 116.001 20.5s59.5 32.667 80.5 57s36.5 53.333 46.5 87s15 70.834 15 111.501c0 36 -5 70.5 -15 103.5s-25.333 62.333 -46 88s-47 46 -79 61s-69.667 22.5 -113 22.5z" />
    <glyph glyph-name="E" unicode="E" horiz-adv-x="555" 
d="M90 700h420v-82h-325v-213h280v-80h-280v-243h325v-82h-420v700z" />
    <glyph glyph-name="F" unicode="F" horiz-adv-x="535" 
d="M90 700h415v-82h-320v-214h267v-78h-267v-326h-95v700z" />
    <glyph glyph-name="G" unicode="G" horiz-adv-x="674" 
d="M374 371l234.997 0.000976562v-371h-84v70c-23.333 -20.667 -51.666 -39.5 -84.999 -56.5s-70.333 -25.5 -111 -25.5s-78 8 -112 24s-63.333 39 -88 69s-44 66.167 -58 108.5s-21 89.833 -21 142.5c0 56 7.16699 107.167 21.5 153.5s35.166 86.333 62.499 120
s60.833 59.834 100.5 78.501s84.834 28 135.501 28c44 0 82.833 -5.33301 116.5 -16s65.5 -24.334 95.5 -41.001l-35 -79c-28 15.333 -56.333 28 -85 38s-61 15 -97 15c-31.333 0 -60.333 -6.33301 -87 -19s-49.667 -31.334 -69 -56.001s-34.5 -55.167 -45.5 -91.5
s-16.5 -77.833 -16.5 -124.5c0 -42 5 -79.5 15 -112.5s24 -61 42 -84s39.5 -40.5 64.5 -52.5s52.5 -18 82.5 -18c18.667 0 36.334 2.16699 53.001 6.5s32 10 46 17s26.833 14.667 38.5 23s21.834 16.833 30.501 25.5v153h-145v75z" />
    <glyph glyph-name="H" unicode="H" horiz-adv-x="715" 
d="M530 319h-345v-319h-95v700h95v-299h345v299h95v-700h-95v319z" />
    <glyph glyph-name="I" unicode="I" horiz-adv-x="275" 
d="M90 0v700h95v-700h-95z" />
    <glyph glyph-name="J" unicode="J" horiz-adv-x="430" 
d="M255 700l94.999 0.00195312v-469c0 -42.667 -4.66699 -79.334 -14 -110.001s-22.666 -55.834 -39.999 -75.501s-38 -34.167 -62 -43.5s-50.667 -14 -80 -14c-30.667 0 -59.5 5.33301 -86.5 16s-49.5 24.667 -67.5 42l46 73c13.333 -14 29.333 -25.667 48 -35
s37.667 -14 57 -14c32 0 57.333 11.333 76 34s28 61.667 28 117v479z" />
    <glyph glyph-name="K" unicode="K" horiz-adv-x="601" 
d="M591 56l-66 -68l-340 334v-322h-95v700h95v-319l298 322l64 -59l-273 -284z" />
    <glyph glyph-name="L" unicode="L" horiz-adv-x="511" 
d="M506 0h-416v700h95v-615h321v-85z" />
    <glyph glyph-name="M" unicode="M" horiz-adv-x="834" 
d="M649 579l-187 -421h-94l-188 421v-579h-90v700h133l194 -443l191 443h136v-700h-95v579z" />
    <glyph glyph-name="N" unicode="N" horiz-adv-x="705" 
d="M180 578v-578h-90v700h126l309 -582v582h90v-700h-124z" />
    <glyph glyph-name="O" unicode="O" horiz-adv-x="761" 
d="M50 351c0 51.333 7.50195 99.002 22.502 143.002s36.667 82.167 65 114.5s62.833 57.666 103.5 75.999s87 27.5 139 27.5c51.333 0 97.5 -9.5 138.5 -28.5s75.667 -44.833 104 -77.5s50.166 -70.834 65.499 -114.501s23 -90.5 23 -140.5s-7.5 -97 -22.5 -141
s-36.833 -82.5 -65.5 -115.5s-63.334 -59 -104.001 -78s-87 -28.5 -139 -28.5s-98.333 9.5 -139 28.5s-75.167 45 -103.5 78s-50 71.5 -65 115.5s-22.5 91 -22.5 141zM147.002 351.002c0 -36 5.16699 -71 15.5 -105s25.5 -64 45.5 -90s44.5 -46.833 73.5 -62.5
s61.833 -23.5 98.5 -23.5c38.667 0 72.5 7.16699 101.5 21.5s53.333 34 73 59s34.5 54.667 44.5 89s15 71.5 15 111.5c0 36 -5.33301 70.667 -16 104s-26 63 -46 89s-44.5 46.833 -73.5 62.5s-61.833 23.5 -98.5 23.5s-69.5 -7.16699 -98.5 -21.5s-53.5 -34 -73.5 -59
s-35.167 -54.5 -45.5 -88.5s-15.5 -70.667 -15.5 -110z" />
    <glyph glyph-name="P" unicode="P" horiz-adv-x="581" 
d="M90 698c28 3.33301 58.167 5.83398 90.5 7.50098s66.5 2.5 102.5 2.5c43.333 0 82 -5.33301 116 -16s62.667 -25.334 86 -44.001s41 -41.167 53 -67.5s18 -54.833 18 -85.5c0 -37.333 -7.16699 -70.5 -21.5 -99.5s-34.333 -53.5 -60 -73.5s-56.5 -35.167 -92.5 -45.5
s-75.667 -15.5 -119 -15.5c-28 0 -54 1 -78 3v-264h-95v698zM275 340.001c60 0 106.167 13.1689 138.5 39.502s48.5 62.166 48.5 107.499c0 43.333 -15.5 77.666 -46.5 102.999s-75.833 38 -134.5 38c-18 0 -35 -0.333008 -51 -1s-31 -1.66699 -45 -3v-279
c10.667 -1.33301 23.5 -2.5 38.5 -3.5s32.167 -1.5 51.5 -1.5z" />
    <glyph glyph-name="Q" unicode="Q" horiz-adv-x="761" 
d="M50 351c0 51.333 7.33301 99.0029 22 143.003s36 82.167 64 114.5s62 57.666 102 75.999s85.667 27.5 137 27.5c50.667 0 96.167 -9.5 136.5 -28.5s74.5 -44.833 102.5 -77.5s49.5 -70.834 64.5 -114.501s22.5 -90.5 22.5 -140.5c0 -52 -7.33301 -97.167 -22 -135.5
s-32 -71.5 -52 -99.5l89 -49l-43 -79l-97 72c-25.333 -20.667 -54.5 -37.834 -87.5 -51.501s-70.833 -20.5 -113.5 -20.5c-51.333 0 -97 9.5 -137 28.5s-74 45 -102 78s-49.333 71.5 -64 115.5s-22 91 -22 141zM429 153.003l39.998 73l90 -65c16 26 27.5 54.333 34.5 85
s10.5 65.667 10.5 105c0 36 -5.16699 70.667 -15.5 104s-25.333 63 -45 89s-43.667 46.833 -72 62.5s-60.5 23.5 -96.5 23.5s-68.167 -7 -96.5 -21s-52.166 -33.5 -71.499 -58.5s-34.166 -54.5 -44.499 -88.5s-15.5 -71 -15.5 -111c0 -36 5 -71 15 -105s24.667 -64 44 -90
s43 -46.833 71 -62.5s60 -23.5 96 -23.5c28 0 53 3.33301 75 10s41 15 57 25z" />
    <glyph glyph-name="R" unicode="R" horiz-adv-x="617" 
d="M498 -12l-86.999 190.003c-22 47.333 -49.667 81 -83 101s-76 30 -128 30h-15v-309h-95v698c36 3.33301 69.833 5.83301 101.5 7.5s66.167 2.5 103.5 2.5c42.667 0 80 -4.5 112 -13.5s58.667 -21.833 80 -38.5s37.5 -36.334 48.5 -59.001s16.5 -47.667 16.5 -75
c0 -48.667 -14.5 -87.834 -43.5 -117.501s-70.833 -51.834 -125.5 -66.501c13.333 -6 25.666 -12.833 36.999 -20.5s22 -17 32 -28s19.833 -24.167 29.5 -39.5s19.5 -34 29.5 -56l76 -164zM295.001 628.003c-22.667 0 -43 -0.333008 -61 -1s-34.333 -1.66699 -49 -3v-235
h110c48 0 87 10.667 117 32s45 52 45 92c0 33.333 -14 60.833 -42 82.5s-68 32.5 -120 32.5z" />
    <glyph glyph-name="S" unicode="S" horiz-adv-x="568" 
d="M78 139c24 -20 50.9971 -36.335 80.9971 -49.002s65 -19 105 -19c48 0 86 10 114 30s42 47 42 81c0 14 -2 27 -6 39s-11.833 23.5 -23.5 34.5s-28 22 -49 33s-48.167 22.833 -81.5 35.5c-36 14 -66.5 27.833 -91.5 41.5s-45.167 28.667 -60.5 45s-26.333 34.333 -33 54
s-10 42.167 -10 67.5c0 24.667 5.16699 48 15.5 70s25.666 41.167 45.999 57.5s45.333 29.166 75 38.499s63.5 14 101.5 14c41.333 0 78.333 -4.16699 111 -12.5s65 -20.166 97 -35.499l-35 -81c-22.667 13.333 -49.167 24.5 -79.5 33.5s-62.166 13.5 -95.499 13.5
c-44 0 -78.667 -8.5 -104 -25.5s-38 -39.5 -38 -67.5c0 -13.333 1.83301 -25.166 5.5 -35.499s11 -20.333 22 -30s26.333 -19.5 46 -29.5s45.834 -21 78.501 -33c38.667 -14.667 71.334 -29.667 98.001 -45s48 -31.666 64 -48.999s27.5 -36 34.5 -56s10.5 -42 10.5 -66
c0 -32.667 -6.33301 -61.667 -19 -87s-30.167 -46.833 -52.5 -64.5s-49.166 -31 -80.499 -40s-65.333 -13.5 -102 -13.5c-48.667 0 -93 6.5 -133 19.5s-73.667 30.167 -101 51.5z" />
    <glyph glyph-name="T" unicode="T" horiz-adv-x="545" 
d="M10 700h525v-84h-215v-616h-95v616h-215v84z" />
    <glyph glyph-name="U" unicode="U" horiz-adv-x="670" 
d="M503 700l92 -0.00195312v-430c0 -44 -6.16699 -83.5 -18.5 -118.5s-30 -64.667 -53 -89s-50.5 -42.833 -82.5 -55.5s-67.667 -19 -107 -19c-81.333 0 -144.833 23.833 -190.5 71.5s-68.5 116.5 -68.5 206.5v434h95v-419c0 -67.333 13.5 -119.166 40.5 -155.499
s68.167 -54.5 123.5 -54.5c56.667 0 99 17.833 127 53.5s42 87.834 42 156.501v419z" />
    <glyph glyph-name="V" unicode="V" horiz-adv-x="640" 
d="M10 675l93 36l220 -607l221 604l86 -33l-256 -675h-107z" />
    <glyph glyph-name="W" unicode="W" horiz-adv-x="943" 
d="M15 677l94 30l158 -606l149 526h119l148 -526l157 603l88 -27l-189 -677h-118l-148 526l-150 -526h-118z" />
    <glyph glyph-name="X" unicode="X" horiz-adv-x="607" 
d="M245 356l-225 294l79 59l203 -284l201 281l74 -56l-218 -289l238 -312l-77 -59l-221 300l-214 -298l-75 57z" />
    <glyph glyph-name="Y" unicode="Y" horiz-adv-x="599" 
d="M304 354l210 351l75 -44l-241 -395v-266h-95v266l-243 395l80 48z" />
    <glyph glyph-name="Z" unicode="Z" horiz-adv-x="575" 
d="M40 74l372 544h-355v82h464v-72l-372 -544h386v-84h-495v74z" />
    <glyph glyph-name="bracketleft" unicode="[" horiz-adv-x="300" 
d="M80 740h175v-75h-95v-690h95v-75h-175v840z" />
    <glyph glyph-name="backslash" unicode="\" horiz-adv-x="450" 
d="M329 -71l-282 819l74 25l282 -819z" />
    <glyph glyph-name="bracketright" unicode="]" horiz-adv-x="300" 
d="M45 -100v75h95v690h-95v75h175v-840h-175z" />
    <glyph glyph-name="asciicircum" unicode="^" 
d="M150 510l-56 62l186 168h42l184 -168l-57 -62l-148 147z" />
    <glyph glyph-name="underscore" unicode="_" 
d="M0 -55h600v-60h-600v60z" />
    <glyph glyph-name="grave" unicode="`" horiz-adv-x="311" 
d="M240 575l-200 102l42 84l189 -125z" />
    <glyph glyph-name="a" unicode="a" horiz-adv-x="617" 
d="M45 257c0 38.667 5.99902 74.8311 17.999 108.498s28.833 62.834 50.5 87.501s47.667 44 78 58s63.5 21 99.5 21c30 0 57.167 -5.16699 81.5 -15.5s45.5 -23.166 63.5 -38.499v42h82v-394c0 -25.333 6.16699 -41.833 18.5 -49.5s25.833 -11.5 40.5 -11.5l-19 -70
c-64 0 -102.667 26 -116 78c-8 -10.667 -17.167 -21.167 -27.5 -31.5s-22.166 -19.5 -35.499 -27.5s-28.333 -14.333 -45 -19s-35 -7 -55 -7c-32.667 0 -63.167 6.33301 -91.5 19s-53 30.667 -74 54s-37.667 51.5 -50 84.5s-18.5 70.167 -18.5 111.5zM298.999 67.9971
c25.333 0 49.332 5.99902 71.999 17.999s41.667 27.667 57 47v279c-18 12.667 -37.833 22.834 -59.5 30.501s-44.5 11.5 -68.5 11.5s-46 -4.66699 -66 -14s-37.167 -22.5 -51.5 -39.5s-25.5 -37.5 -33.5 -61.5s-12 -50.333 -12 -79c0 -28 4 -53.833 12 -77.5
s19.333 -44 34 -61s31.834 -30.167 51.501 -39.5s41.167 -14 64.5 -14z" />
    <glyph glyph-name="b" unicode="b" horiz-adv-x="594" 
d="M80 740l89.999 -0.000976562v-274c6.66699 7.33301 15 15 25 23s21.167 15.167 33.5 21.5s26.166 11.5 41.499 15.5s32 6 50 6c30 0 58.833 -6 86.5 -18s52 -29.333 73 -52s37.833 -50.667 50.5 -84s19 -71 19 -113c0 -41.333 -6.66699 -79 -20 -113
s-31 -63.167 -53 -87.5s-47.167 -43.166 -75.5 -56.499s-57.166 -20 -86.499 -20c-30 0 -58.167 5.33301 -84.5 16s-48.166 23.667 -65.499 39v-43h-84v740zM456.999 261.999c0 30 -4.16895 56.8311 -12.502 80.498s-19.666 43.834 -33.999 60.501s-31 29.334 -50 38.001
s-39.167 13 -60.5 13c-28.667 0 -54.5 -7.16699 -77.5 -21.5s-40.5 -29.833 -52.5 -46.5v-278c15.333 -12 33.333 -21.667 54 -29s42.667 -11 66 -11c24 0 46.333 4.66699 67 14s38.334 22.5 53.001 39.5s26.167 37.333 34.5 61s12.5 50.167 12.5 79.5z" />
    <glyph glyph-name="c" unicode="c" horiz-adv-x="472" 
d="M412 425c-19.333 9.33301 -37.334 16.166 -54.001 20.499s-35.334 6.5 -56.001 6.5c-23.333 0 -45.166 -4.33301 -65.499 -13s-37.833 -21.167 -52.5 -37.5s-26.167 -36.166 -34.5 -59.499s-12.5 -50 -12.5 -80c0 -27.333 3.83301 -52.666 11.5 -75.999
s18.5 -43.833 32.5 -61.5s30.667 -31.5 50 -41.5s41 -15 65 -15c25.333 0 47 2.66699 65 8s37.333 13.666 58 24.999l28 -76c-21.333 -11.333 -44.666 -20.333 -69.999 -27s-54.333 -10 -87 -10c-37.333 0 -71 6.66699 -101 20s-55.667 32 -77 56s-37.833 52.667 -49.5 86
s-17.5 70 -17.5 110c0 37.333 5.83301 72.5 17.5 105.5s28.5 61.833 50.5 86.5s48.5 44.167 79.5 58.5s65.833 21.5 104.5 21.5c30 0 56 -2.66699 78 -8s43.333 -13 64 -23z" />
    <glyph glyph-name="d" unicode="d" horiz-adv-x="613" 
d="M277 -12c-32 0 -62.167 6.33301 -90.5 19s-53 30.667 -74 54s-37.5 51.5 -49.5 84.5s-18 70.167 -18 111.5c0 39.333 6.16699 75.833 18.5 109.5s29 62.667 50 87s45.5 43.5 73.5 57.5s57.667 21 89 21c34.667 0 64.5 -7 89.5 -21s44.5 -28.333 58.5 -43v272h90v-614
c0 -25.333 6.16699 -41.833 18.5 -49.5s25.833 -11.5 40.5 -11.5l-19 -70c-63.333 0 -102 25.333 -116 76c-15.333 -21.333 -36 -40.5 -62 -57.5s-59 -25.5 -99 -25.5zM297 68c24.667 0 48.167 5.83203 70.5 17.499s41.166 26.834 56.499 45.501v258
c-12.667 16 -30.167 30.833 -52.5 44.5s-47.5 20.5 -75.5 20.5c-24 0 -45.833 -5 -65.5 -15s-36.5 -23.667 -50.5 -41s-24.667 -37.833 -32 -61.5s-11 -49.167 -11 -76.5c0 -28 4 -53.667 12 -77s19.167 -43.5 33.5 -60.5s31.333 -30.333 51 -40s40.834 -14.5 63.501 -14.5z
" />
    <glyph glyph-name="e" unicode="e" horiz-adv-x="544" 
d="M137 223c6 -48.667 22.999 -86.666 50.999 -113.999s65 -41 111 -41c30 0 57 3.16699 81 9.5s47 14.5 69 24.5l21 -77c-24 -11.333 -51 -20.333 -81 -27s-63.667 -10 -101 -10s-71 6.16699 -101 18.5s-55.5 30 -76.5 53s-37.167 51.333 -48.5 85s-17 72.167 -17 115.5
c0 38.667 5.66699 74.667 17 108s27.333 62.166 48 86.499s45.334 43.333 74.001 57s60.667 20.5 96 20.5c37.333 0 70 -6.33301 98 -19s51.333 -30 70 -52s32.667 -47.667 42 -77s14 -60.333 14 -93c0 -23.333 -1 -46 -3 -68h-364zM277.999 454.001
c-39.333 0 -71.5 -13.333 -96.5 -40s-40.167 -66 -45.5 -118h285c0 50.667 -12.667 89.667 -38 117s-60.333 41 -105 41z" />
    <glyph glyph-name="f" unicode="f" horiz-adv-x="348" 
d="M371 643c-14 7.33301 -29 13.999 -45 19.999s-33.667 9 -53 9c-28 0 -50.5 -8.83301 -67.5 -26.5s-25.5 -43.5 -25.5 -77.5v-67h154v-78h-154v-423h-90v423h-80v78h80v61c0 29.333 4.33301 55.666 13 78.999s20.667 43.333 36 60s34 29.334 56 38.001s46 13 72 13
c28 0 52.167 -3.16699 72.5 -9.5s39.833 -14.166 58.5 -23.499z" />
    <glyph glyph-name="g" unicode="g" horiz-adv-x="585" 
d="M286 532c30 0 56.834 -4.99805 80.501 -14.998s44.167 -22.333 61.5 -37v40h82v-508c0 -43.333 -5.66699 -80.333 -17 -111s-27.5 -55.834 -48.5 -75.501s-46.167 -34.167 -75.5 -43.5s-62 -14 -98 -14c-31.333 0 -61.333 3.66699 -90 11s-54.334 18.333 -77.001 33
l33 78c16 -12.667 34.667 -23.167 56 -31.5s47.333 -12.5 78 -12.5c47.333 0 84.5 12.333 111.5 37s40.5 64.667 40.5 120v64c-13.333 -16 -32.5 -31.167 -57.5 -45.5s-54.833 -21.5 -89.5 -21.5c-29.333 0 -58 5.83301 -86 17.5s-52.667 28.667 -74 51
s-38.5 49.666 -51.5 81.999s-19.5 69.5 -19.5 111.5c0 38.667 6.33301 74.5 19 107.5s29.834 61.5 51.501 85.5s47.167 42.833 76.5 56.5s60.666 20.5 93.999 20.5zM296.001 80.002c26.667 0 50.668 5.99902 72.001 17.999s38.666 26 51.999 42v272
c-15.333 10.667 -33 20.334 -53 29.001s-44 13 -72 13c-20.667 0 -40.5 -4.16699 -59.5 -12.5s-35.833 -20.5 -50.5 -36.5s-26.334 -35.5 -35.001 -58.5s-13 -49.5 -13 -79.5c0 -28.667 4.33301 -54.5 13 -77.5s20.334 -42.667 35.001 -59s31.5 -28.833 50.5 -37.5
s39.167 -13 60.5 -13z" />
    <glyph glyph-name="h" unicode="h" horiz-adv-x="592" 
d="M170 437c18.667 27.333 42.168 50 70.501 68s62.166 27 101.499 27c58.667 0 102.5 -17.667 131.5 -53s43.5 -82 43.5 -140v-339h-90v329c0 38 -8.5 68.167 -25.5 90.5s-41.5 33.5 -73.5 33.5c-15.333 0 -30.5 -2.83301 -45.5 -8.5s-29.167 -13.5 -42.5 -23.5
s-26 -21.667 -38 -35s-22.667 -27.333 -32 -42v-344h-90v740h90v-303z" />
    <glyph glyph-name="i" unicode="i" horiz-adv-x="250" 
d="M170 0h-90v520h90v-520zM125 609c-17.333 0 -32.166 6.16699 -44.499 18.5s-18.5 27.166 -18.5 44.499c0 19.333 5.66699 34.666 17 45.999s26.666 17 45.999 17c17.333 0 32.166 -6.16699 44.499 -18.5s18.5 -27.166 18.5 -44.499
c0 -19.333 -5.66699 -34.666 -17 -45.999s-26.666 -17 -45.999 -17z" />
    <glyph glyph-name="j" unicode="j" horiz-adv-x="259" 
d="M91 520h90.001v-577c0 -30.667 -4.33301 -57 -13 -79s-20.334 -40.167 -35.001 -54.5s-32 -24.833 -52 -31.5s-41.333 -10 -64 -10c-40.667 0 -74.667 7.66699 -102 23l22 75c8.66699 -5.33301 19.167 -10 31.5 -14s24.833 -6 37.5 -6c56.667 0 85 35.333 85 106v568z
M136.001 609c-17.333 0 -32.166 6.16699 -44.499 18.5s-18.5 27.166 -18.5 44.499c0 19.333 5.66699 34.666 17 45.999s26.666 17 45.999 17c17.333 0 32.166 -6.16699 44.499 -18.5s18.5 -27.166 18.5 -44.499c0 -19.333 -5.66699 -34.666 -17 -45.999
s-26.666 -17 -45.999 -17z" />
    <glyph glyph-name="k" unicode="k" horiz-adv-x="511" 
d="M80 740h90v-423l235 213l52 -57l-201 -178l245 -245l-62 -60l-269 277v-267h-90v740z" />
    <glyph glyph-name="l" unicode="l" horiz-adv-x="346" 
d="M165 172c0 -36 7.50098 -62.667 22.501 -80s35.833 -26 62.5 -26c12.667 0 25 1.5 37 4.5s22.667 6.5 32 10.5l22 -73c-12 -5.33301 -26.833 -10 -44.5 -14s-37.167 -6 -58.5 -6c-23.333 0 -44.833 3.33301 -64.5 10s-36.834 17 -51.501 31s-26.167 32 -34.5 54
s-12.5 48.667 -12.5 80v577h90v-568z" />
    <glyph glyph-name="m" unicode="m" horiz-adv-x="915" 
d="M167 433c18.667 28 42.166 51.502 70.499 70.502s61.166 28.5 98.499 28.5c41.333 0 75 -9.83301 101 -29.5s44.667 -46.5 56 -80.5c20.667 30.667 45.167 56.667 73.5 78s63.5 32 105.5 32c28 0 52.5 -4.66699 73.5 -14s38.5 -22.5 52.5 -39.5s24.5 -37.333 31.5 -61
s10.5 -49.834 10.5 -78.501v-339h-90v332c0 36 -8.33301 65.167 -25 87.5s-39.667 33.5 -69 33.5c-15.333 0 -30 -3 -44 -9s-27.333 -14.167 -40 -24.5s-24.667 -22.333 -36 -36s-21.666 -27.834 -30.999 -42.501v-341h-90v332c0 36 -8.33301 65.167 -25 87.5
s-39.667 33.5 -69 33.5c-14.667 0 -29 -2.83301 -43 -8.5s-27.5 -13.5 -40.5 -23.5s-25.167 -21.667 -36.5 -35s-21.666 -27.333 -30.999 -42v-344h-90v520h87v-87z" />
    <glyph glyph-name="n" unicode="n" horiz-adv-x="592" 
d="M167 433c18.667 28 42.502 51.5 71.502 70.5s63.5 28.5 103.5 28.5c58.667 0 102.5 -17.667 131.5 -53s43.5 -82 43.5 -140v-339h-90v329c0 38 -8.66699 68.167 -26 90.5s-42 33.5 -74 33.5c-15.333 0 -30.333 -2.83301 -45 -8.5s-28.834 -13.5 -42.501 -23.5
s-26.334 -21.667 -38.001 -35s-22.167 -27.333 -31.5 -42v-344h-90v520h87v-87z" />
    <glyph glyph-name="o" unicode="o" horiz-adv-x="598" 
d="M466 260c0 26 -4.16699 50.6699 -12.5 74.0029s-20 43.666 -35 60.999s-32.667 31.166 -53 41.499s-42.5 15.5 -66.5 15.5c-52.667 0 -93.667 -17.333 -123 -52s-44 -80.667 -44 -138c0 -26 4.16699 -50.833 12.5 -74.5s20 -44.334 35 -62.001s32.667 -31.667 53 -42
s42.5 -15.5 66.5 -15.5c26 0 49.333 4.66699 70 14s38.167 22.5 52.5 39.5s25.333 37.167 33 60.5s11.5 49.333 11.5 78zM40 260.003c0 42 6.66797 79.8311 20.001 113.498s31.5 62.167 54.5 85.5s50.333 41.333 82 54s65.834 19 102.501 19c36 0 69.833 -6.33301 101.5 -19
s59.167 -30.667 82.5 -54s41.666 -51.666 54.999 -84.999s20 -70.666 20 -111.999s-6.5 -78.833 -19.5 -112.5s-31.167 -62.5 -54.5 -86.5s-50.833 -42.5 -82.5 -55.5s-65.834 -19.5 -102.501 -19.5c-37.333 0 -71.833 6.66699 -103.5 20s-59 32 -82 56s-41 52.667 -54 86
s-19.5 70 -19.5 110z" />
    <glyph glyph-name="p" unicode="p" horiz-adv-x="613" 
d="M59 520c61.333 0 99.6641 -24.335 114.997 -73.002c4.66699 7.33301 11.834 16 21.501 26s21.5 19.333 35.5 28s30 16 48 22s38 9 60 9c30 0 58.833 -6 86.5 -18s52 -29.333 73 -52s37.833 -50.667 50.5 -84s19 -71 19 -113c0 -41.333 -6.16699 -79 -18.5 -113
s-29 -63.167 -50 -87.5s-45.167 -43.166 -72.5 -56.499s-56 -20 -86 -20c-31.333 0 -60.166 6.16699 -86.499 18.5s-48.166 26.5 -65.499 42.5v-269h-90v607c0 22.667 -5.5 38.834 -16.5 48.501s-25.167 14.5 -42.5 14.5zM475.998 261.998
c0 30 -4.16797 56.8311 -12.501 80.498s-19.666 43.834 -33.999 60.501s-31 29.334 -50 38.001s-39.167 13 -60.5 13c-28.667 0 -54.5 -7.16699 -77.5 -21.5s-40.5 -29.833 -52.5 -46.5v-256c17.333 -18 37.166 -32.833 59.499 -44.5s47.166 -17.5 74.499 -17.5
c22.667 0 43.334 4.66699 62.001 14s34.834 22.5 48.501 39.5s24.167 37.333 31.5 61s11 50.167 11 79.5z" />
    <glyph glyph-name="q" unicode="q" horiz-adv-x="594" 
d="M514 520l0.000976562 -740.002h-90v273c-7.33301 -7.33301 -15.833 -14.833 -25.5 -22.5s-20.667 -14.667 -33 -21s-25.833 -11.5 -40.5 -15.5s-30.334 -6 -47.001 -6c-30 0 -59.167 5.83301 -87.5 17.5s-53.166 29 -74.499 52s-38.5 51.167 -51.5 84.5
s-19.5 72 -19.5 116c0 40.667 6.33301 77.834 19 111.501s30 62.5 52 86.5s47.667 42.667 77 56s60.666 20 93.999 20c30 0 57.167 -5.16699 81.5 -15.5s45.5 -23.166 63.5 -38.499v42h82zM296.001 453.998c-21.333 0 -41.666 -4.33105 -60.999 -12.998
s-36.333 -21.334 -51 -38.001s-26.167 -36.834 -34.5 -60.501s-12.5 -50.834 -12.5 -81.501c0 -30 4.33301 -57 13 -81s20.5 -44.333 35.5 -61s32.167 -29.334 51.5 -38.001s39.666 -13 60.999 -13c26.667 0 51 6.33301 73 19s39.667 27.334 53 44.001v281
c-18 12.667 -37.833 22.834 -59.5 30.501s-44.5 11.5 -68.5 11.5z" />
    <glyph glyph-name="r" unicode="r" horiz-adv-x="399" 
d="M362 433c-12.667 5.33301 -27.665 8.00098 -44.998 8.00098c-18.667 0 -36.834 -4 -54.501 -12s-33.334 -20 -47.001 -36s-24.667 -36.5 -33 -61.5s-12.5 -54.5 -12.5 -88.5v-243h-90v520h87v-113c6 16 14 31.667 24 47s21.833 28.666 35.5 39.999s29.5 20.5 47.5 27.5
s38 10.5 60 10.5c10 0 19.833 -0.5 29.5 -1.5s18.167 -2.5 25.5 -4.5z" />
    <glyph glyph-name="s" unicode="s" horiz-adv-x="468" 
d="M73 117c17.333 -15.333 39.1689 -27.667 65.502 -37s54.5 -14 84.5 -14c37.333 0 65.5 6.16699 84.5 18.5s28.5 28.166 28.5 47.499c0 10 -1.83301 19.333 -5.5 28s-10.334 17 -20.001 25s-22.834 15.833 -39.501 23.5s-38.334 16.167 -65.001 25.5
c-49.333 16.667 -86 36.5 -110 59.5s-36 54.833 -36 95.5c0 20 4.5 38.667 13.5 56s22 32.5 39 45.5s37.667 23.167 62 30.5s52.166 11 83.499 11c34 0 63.833 -3.5 89.5 -10.5s48.834 -15.833 69.501 -26.5l-25 -74c-18 10.667 -38.5 19.334 -61.5 26.001
s-48.5 10 -76.5 10c-34.667 0 -61 -7 -79 -21s-27 -29.333 -27 -46c0 -8 1.5 -15.333 4.5 -22s8.5 -13 16.5 -19s18.667 -12 32 -18s30 -12.333 50 -19c32.667 -11.333 60.334 -22.833 83.001 -34.5s41 -24.5 55 -38.5s24 -29.167 30 -45.5s9 -34.5 9 -54.5
c0 -23.333 -5 -44.333 -15 -63s-24 -34.5 -42 -47.5s-39.833 -23 -65.5 -30s-54.167 -10.5 -85.5 -10.5c-40 0 -75.667 5 -107 15s-57.333 23 -78 39z" />
    <glyph glyph-name="t" unicode="t" horiz-adv-x="397" 
d="M121 665h69.0029v-164h144v-78h-144v-251c0 -19.333 2.16699 -35.666 6.5 -48.999s10.166 -24 17.499 -32s16.166 -13.833 26.499 -17.5s21.166 -5.5 32.499 -5.5c16.667 0 32.334 2.66699 47.001 8s28.667 11.666 42 18.999l25 -72
c-13.333 -8 -31.333 -15.833 -54 -23.5s-46.334 -11.5 -71.001 -11.5c-50 0 -89.5 16.333 -118.5 49s-43.5 80 -43.5 142v244h-90v78h92z" />
    <glyph glyph-name="u" unicode="u" horiz-adv-x="604" 
d="M545 -5c-32 0 -57.3311 6.33398 -75.998 19.001s-31.667 31 -39 55c-23.333 -24 -50.166 -43.5 -80.499 -58.5s-63.5 -22.5 -99.5 -22.5c-22.667 0 -44.5 3.5 -65.5 10.5s-39.667 18.167 -56 33.5s-29.333 35.333 -39 60s-14.5 54.667 -14.5 90v338h90v-326
c0 -40.667 8.5 -71.834 25.5 -93.501s42.5 -32.5 76.5 -32.5c28 0 54.667 5.5 80 16.5s48 25.833 68 44.5v391h90v-385c0 -14.667 1.66699 -26.5 5 -35.5s7.66602 -16 12.999 -21s11.666 -8.5 18.999 -10.5s14.666 -3 21.999 -3z" />
    <glyph glyph-name="v" unicode="v" horiz-adv-x="533" 
d="M10 496l82 34l177 -428l177 428l77 -34l-210 -496h-94z" />
    <glyph glyph-name="w" unicode="w" horiz-adv-x="818" 
d="M713 525l80 -29l-165 -496h-99l-120 387l-121 -387h-99l-164 496l83 29l134 -423l122 381h97l119 -381z" />
    <glyph glyph-name="x" unicode="x" horiz-adv-x="500" 
d="M195 264l-178 206l70 61l161 -208l158 204l67 -57l-173 -202l190 -219l-68 -58l-175 217l-173 -215l-64 56z" />
    <glyph glyph-name="y" unicode="y" horiz-adv-x="523" 
d="M93 -232c-20 0 -37.4961 2 -52.4961 6s-26.833 8.66699 -35.5 14l20 75c8 -4.66699 17.833 -8.66699 29.5 -12s25.167 -5 40.5 -5c14 0 27.167 2 39.5 6s24.166 11 35.499 21s22.166 23.667 32.499 41s20.5 39 30.5 65l23 60h-48l-203 457l80 36l194 -433l151 429l83 -32
l-191 -522c-14.667 -40 -30.167 -73.167 -46.5 -99.5s-33.833 -47.5 -52.5 -63.5s-38.834 -27.167 -60.501 -33.5s-44.834 -9.5 -69.501 -9.5z" />
    <glyph glyph-name="z" unicode="z" horiz-adv-x="472" 
d="M41 520h391v-69l-286 -371h291v-80h-402v71l287 371h-281v78z" />
    <glyph glyph-name="braceleft" unicode="{" horiz-adv-x="300" 
d="M7 352c18.667 2.66699 34.334 7.16406 47.001 13.4971s22.5 16 29.5 29s12 29.833 15 50.5s4.5 46.334 4.5 77.001c0 41.333 3.83301 76.333 11.5 105s19.334 52.167 35.001 70.5s35.5 32.166 59.5 41.499s52 15.666 84 18.999v-57
c-18.667 -4.66699 -34.5 -10.667 -47.5 -18s-23.667 -17.5 -32 -30.5s-14.333 -29.667 -18 -50s-5.5 -45.833 -5.5 -76.5c0 -37.333 -2 -68.166 -6 -92.499s-10.5 -44 -19.5 -59s-20.833 -26.667 -35.5 -35s-32.334 -14.833 -53.001 -19.5
c20.667 -5.33301 38.334 -12 53.001 -20s26.5 -19.5 35.5 -34.5s15.5 -34.667 19.5 -59s6 -55.166 6 -92.499c0 -30.667 1.83301 -56.167 5.5 -76.5s9.66699 -37 18 -50s19 -23.167 32 -30.5s28.833 -13.333 47.5 -18v-57c-32 2.66699 -60 8.83398 -84 18.501
s-43.833 23.667 -59.5 42s-27.334 41.833 -35.001 70.5s-11.5 63.667 -11.5 105c0 30.667 -1.5 56.334 -4.5 77.001s-8 37.5 -15 50.5s-16.833 22.667 -29.5 29s-28.334 10.833 -47.001 13.5v64z" />
    <glyph glyph-name="bar" unicode="|" horiz-adv-x="300" 
d="M111 -100v870h78v-870h-78z" />
    <glyph glyph-name="braceright" unicode="}" horiz-adv-x="300" 
d="M224 320c-21.333 4.66699 -39.166 11.1699 -53.499 19.5029s-26 20 -35 35s-15.5 34.667 -19.5 59s-6 55.166 -6 92.499c0 30.667 -1.83301 56.167 -5.5 76.5s-9.66699 37 -18 50s-19 23.167 -32 30.5s-28.833 13.333 -47.5 18v57c32 -3.33301 60 -9.66602 84 -18.999
s43.833 -23.166 59.5 -41.499s27.334 -41.833 35.001 -70.5s11.5 -63.667 11.5 -105c0 -30.667 1.5 -56.334 4.5 -77.001s8 -37.5 15 -50.5s16.667 -22.667 29 -29s28.166 -10.833 47.499 -13.5v-64c-19.333 -2.66699 -35.166 -7.16699 -47.499 -13.5s-22 -16 -29 -29
s-12 -29.833 -15 -50.5s-4.5 -46.334 -4.5 -77.001c0 -41.333 -3.83301 -76.333 -11.5 -105s-19.334 -52.167 -35.001 -70.5s-35.5 -32.333 -59.5 -42s-52 -15.834 -84 -18.501v57c18.667 4.66699 34.5 10.667 47.5 18s23.667 17.5 32 30.5s14.333 29.667 18 50
s5.5 45.833 5.5 76.5c0 37.333 2 68.166 6 92.499s10.5 44 19.5 59s20.667 26.5 35 34.5s32.166 14.667 53.499 20z" />
    <glyph glyph-name="asciitilde" unicode="~" 
d="M524 322c-19.333 -18.667 -40.6641 -34.834 -63.9971 -48.501s-48.333 -20.5 -75 -20.5c-17.333 0 -33.5 3 -48.5 9s-29.5 12.667 -43.5 20s-28 14 -42 20s-28.333 9 -43 9c-20 0 -38.333 -5.33301 -55 -16s-30.667 -21 -42 -31l-35 63
c6.66699 6.66699 14.834 13.834 24.501 21.501s20.167 14.667 31.5 21s23.166 11.5 35.499 15.5s25.166 6 38.499 6c18 0 34.667 -3 50 -9s29.833 -12.667 43.5 -20s27.167 -14 40.5 -20s27 -9 41 -9c23.333 0 43.666 5.83301 60.999 17.5s32.666 24.167 45.999 37.5z" />
    <glyph glyph-name="nonbreakingspace" unicode="&#xa0;" horiz-adv-x="300" 
 />
    <glyph glyph-name="exclamdown" unicode="&#xa1;" horiz-adv-x="314" 
d="M105 41l13 273h74l13 -273v-261h-100v261zM90 465c0 20.667 5.83301 37 17.5 49s28.167 18 49.5 18c17.333 0 32.833 -6.66699 46.5 -20s20.5 -29 20.5 -47c0 -20 -6.33301 -36.167 -19 -48.5s-28.667 -18.5 -48 -18.5c-18 0 -33.667 6.66699 -47 20s-20 29 -20 47z" />
    <glyph glyph-name="cent" unicode="&#xa2;" horiz-adv-x="450" 
d="M401 453c-19.333 9.33301 -37.335 16.166 -54.002 20.499s-35.334 6.5 -56.001 6.5c-23.333 0 -45.166 -4.33301 -65.499 -13s-37.833 -21.167 -52.5 -37.5s-26.167 -36.166 -34.5 -59.499s-12.5 -50 -12.5 -80c0 -27.333 3.83301 -52.666 11.5 -75.999
s18.5 -43.833 32.5 -61.5s30.667 -31.5 50 -41.5s41 -15 65 -15c25.333 0 47 2.66699 65 8s37.333 13.666 58 24.999l28 -76c-16.667 -9.33301 -34.667 -17 -54 -23s-40.666 -10.333 -63.999 -13l9 -112h-88l8 113c-32.667 4 -62.167 13.167 -88.5 27.5
s-48.666 33.333 -66.999 57s-32.5 51.167 -42.5 82.5s-15 65.666 -15 102.999c0 34 4.83301 66.333 14.5 97s23.834 58 42.501 82s41 43.833 67 59.5s55.667 25.834 89 30.501l-8 109h88l-8 -107c21.333 -2 40.666 -5.5 57.999 -10.5s34.333 -11.5 51 -19.5z" />
    <glyph glyph-name="sterling" unicode="&#xa3;" 
d="M514 0l-426.998 -0.00195312v73c13.333 18.667 24.666 36.5 33.999 53.5s16.833 34.833 22.5 53.5s9.83398 39.334 12.501 62.001s4.33398 49 5.00098 79h-75v76h76v122c0 60.667 16.333 108 49 142s77 51 133 51c36 0 66.333 -4.5 91 -13.5s46 -18.833 64 -29.5l-30 -71
c-16 10 -33.833 18.833 -53.5 26.5s-40.5 11.5 -62.5 11.5c-14.667 0 -28.334 -2.33301 -41.001 -7s-23.834 -12 -33.501 -22s-17.167 -23.167 -22.5 -39.5s-8 -36.166 -8 -59.499v-111h168v-76h-169c-0.666992 -30 -2.5 -56.667 -5.5 -80s-7.33301 -44.333 -13 -63
s-12.334 -35.667 -20.001 -51s-16.5 -30 -26.5 -44h332v-83z" />
    <glyph glyph-name="currency" unicode="&#xa4;" 
d="M300 532c31.333 0 61.333 -6.33301 90 -19l55 73l63 -53l-58 -66c14 -17.333 25 -36.833 33 -58.5s12 -45.167 12 -70.5c0 -26 -4 -49.833 -12 -71.5s-19 -40.834 -33 -57.501l58 -66l-63 -53l-55 74c-28 -13.333 -58 -20 -90 -20c-31.333 0 -61.333 6.33301 -90 19
l-55 -73l-63 53l58 66c-14 17.333 -25 36.833 -33 58.5s-12 45.167 -12 70.5c0 26 4 49.833 12 71.5s19 40.834 33 57.501l-58 66l63 53l55 -74c28 13.333 58 20 90 20zM300 216c36 0 63.667 11 83 33s29 51.333 29 88c0 16.667 -2.83301 32.5 -8.5 47.5s-13.5 28 -23.5 39
s-21.833 19.833 -35.5 26.5s-28.5 10 -44.5 10c-36 0 -63.667 -11 -83 -33s-29 -51.333 -29 -88c0 -16.667 2.83301 -32.5 8.5 -47.5s13.5 -28 23.5 -39s21.833 -19.833 35.5 -26.5s28.5 -10 44.5 -10z" />
    <glyph glyph-name="yen" unicode="&#xa5;" 
d="M305 351l205 354l75 -44l-196 -322h117v-73h-157v-67h157v-73h-157v-126h-95v126h-158v73h158v67h-158v73h117l-197 322l80 48z" />
    <glyph glyph-name="brokenbar" unicode="&#xa6;" horiz-adv-x="300" 
d="M111 257h78v-357h-78v357zM111 770h78v-348h-78v348z" />
    <glyph glyph-name="section" unicode="&#xa7;" 
d="M303 227c30.667 9.33301 55.833 23 75.5 41s29.5 40.333 29.5 67c0 22 -7.66699 41.667 -23 59s-41.333 32.666 -78 45.999c-32 -9.33301 -58.333 -23 -79 -41s-31 -40.333 -31 -67c0 -22 8.5 -41.667 25.5 -59s43.833 -32.666 80.5 -45.999zM364.999 195
c38 -16.667 65.8311 -35.332 83.498 -55.999s26.5 -45 26.5 -73c0 -21.333 -4.66699 -40.5 -14 -57.5s-22.666 -31.5 -39.999 -43.5s-38 -21.167 -62 -27.5s-50.333 -9.5 -79 -9.5c-68 0 -125.333 15.667 -172 47l36 68c40 -28.667 86 -43 138 -43
c34 0 60.5 5.16699 79.5 15.5s28.5 24.833 28.5 43.5c0 8 -1.83301 16 -5.5 24s-10 16.167 -19 24.5s-21.333 17 -37 26s-35.5 18.833 -59.5 29.5c-28 12 -51.833 23.667 -71.5 35s-35.667 23.333 -48 36s-21.333 26.167 -27 40.5s-8.5 30.5 -8.5 48.5
c0 34 11.5 63.5 34.5 88.5s53.833 44.5 92.5 58.5c-36.667 16.667 -64 34.667 -82 54s-27 43.666 -27 72.999c0 19.333 4.5 37.333 13.5 54s21.667 31 38 43s36.166 21.5 59.499 28.5s49.333 10.5 78 10.5s57 -4.16699 85 -12.5s52.667 -18.833 74 -31.5l-38 -62
c-14.667 9.33301 -33 18.166 -55 26.499s-44.667 12.5 -68 12.5c-36 0 -62.5 -6.66699 -79.5 -20s-25.5 -27.333 -25.5 -42c0 -9.33301 1.66699 -17.666 5 -24.999s10 -15 20 -23s23.833 -16.667 41.5 -26s40.834 -20 69.501 -32c50 -21.333 86 -44 108 -68
s33 -52.667 33 -86c0 -35.333 -11.167 -65 -33.5 -89s-53.166 -44 -92.499 -60z" />
    <glyph glyph-name="dieresis" unicode="&#xa8;" horiz-adv-x="402" 
d="M110 607c-16.667 0 -30.834 6 -42.501 18s-17.5 26 -17.5 42c0 18 5.33301 32.5 16 43.5s25.334 16.5 44.001 16.5c16.667 0 30.834 -6 42.501 -18s17.5 -26 17.5 -42c0 -18 -5.33301 -32.5 -16 -43.5s-25.334 -16.5 -44.001 -16.5zM292 607
c-16.667 0 -30.834 6 -42.501 18s-17.5 26 -17.5 42c0 18 5.33301 32.5 16 43.5s25.334 16.5 44.001 16.5c16.667 0 30.834 -6 42.501 -18s17.5 -26 17.5 -42c0 -18 -5.33301 -32.5 -16 -43.5s-25.334 -16.5 -44.001 -16.5z" />
    <glyph glyph-name="copyright" unicode="&#xa9;" horiz-adv-x="900" 
d="M353 353c0 -46 10.999 -82.498 32.999 -109.498s50 -40.5 84 -40.5c18 0 34.667 2.83301 50 8.5s31.333 13.167 48 22.5l26 -73c-18 -10.667 -37.833 -19.167 -59.5 -25.5s-45.5 -9.5 -71.5 -9.5c-28.667 0 -55 5.16699 -79 15.5s-44.5 25.166 -61.5 44.499
s-30.333 42.833 -40 70.5s-14.5 58.834 -14.5 93.501c0 33.333 4.83301 64 14.5 92s23.334 52 41.001 72s39 35.667 64 47s52.833 17 83.5 17c21.333 0 41.5 -2.33301 60.5 -7s37.5 -11.334 55.5 -20.001l-28 -74c-14 7.33301 -28.167 13.166 -42.5 17.499
s-29.833 6.5 -46.5 6.5c-34 0 -62 -12.833 -84 -38.5s-33 -62.167 -33 -109.5zM449.999 51.002c44.667 0 84.167 7.33105 118.5 21.998s63.166 35.334 86.499 62.001s41 58.334 53 95.001s18 76.667 18 120c0 44 -6 84.167 -18 120.5s-29.667 67.833 -53 94.5
s-52.166 47.334 -86.499 62.001s-73.833 22 -118.5 22s-84.167 -7.5 -118.5 -22.5s-63.166 -35.667 -86.499 -62s-41 -57.833 -53 -94.5s-18 -76.667 -18 -120c0 -44 6 -84.167 18 -120.5s29.667 -67.833 53 -94.5s52.166 -47.334 86.499 -62.001s73.833 -22 118.5 -22z
M448.999 -12c-56 0 -105.667 9.16699 -149 27.5s-79.833 43.5 -109.5 75.5s-52 70.167 -67 114.5s-22.5 92.5 -22.5 144.5c0 50 7.83301 97 23.5 141s38.334 82.333 68.001 115s66.167 58.5 109.5 77.5s92.666 28.5 147.999 28.5c56 0 105.833 -9.16699 149.5 -27.5
s80.167 -43.5 109.5 -75.5s51.666 -70.167 66.999 -114.5s23 -92.5 23 -144.5c0 -50 -7.83301 -97 -23.5 -141s-38.5 -82.333 -68.5 -115s-66.667 -58.5 -110 -77.5s-92.666 -28.5 -147.999 -28.5z" />
    <glyph glyph-name="ordfeminine" unicode="&#xaa;" 
d="M102 513c0 29.333 4.83301 55.832 14.5 79.499s22.667 44 39 61s35.5 30.167 57.5 39.5s45.333 14 70 14c19.333 0 36.833 -2.83301 52.5 -8.5s30.167 -12.5 43.5 -20.5v22h74v-266c0 -18 4.66699 -29.833 14 -35.5s19.666 -8.5 30.999 -8.5l-18 -63
c-45.333 0 -75.666 16 -90.999 48c-10.667 -11.333 -25.5 -22.833 -44.5 -34.5s-42.167 -17.5 -69.5 -17.5c-22 0 -43.333 4.16699 -64 12.5s-39.167 20.5 -55.5 36.5s-29.333 35.833 -39 59.5s-14.5 50.834 -14.5 81.501zM288 392.999c17.333 0 33.1689 4 47.502 12
s27.166 18.667 38.499 32v176c-11.333 7.33301 -23.833 13.333 -37.5 18s-28.834 7 -45.501 7c-30.667 0 -56.667 -10.5 -78 -31.5s-32 -51.5 -32 -91.5c0 -19.333 3 -36.5 9 -51.5s14 -27.667 24 -38s21.333 -18.333 34 -24s26 -8.5 40 -8.5zM130.003 131.999v82h340v-82
h-340z" />
    <glyph glyph-name="guillemotleft" unicode="&#xab;" horiz-adv-x="566" 
d="M218 129l-158 194v42l158 194l58 -49l-142 -166l142 -166zM418 129l-158 194v42l158 194l58 -49l-142 -166l142 -166z" />
    <glyph glyph-name="logicalnot" unicode="&#xac;" 
d="M535 120h-90v181h-380v82h470v-263z" />
    <glyph glyph-name="uni00AD" unicode="&#xad;" 
d="M130 302v82h340v-82h-340z" />
    <glyph glyph-name="registered" unicode="&#xae;" horiz-adv-x="900" 
d="M449 -12c-56 0 -105.667 9.16699 -149 27.5s-79.833 43.5 -109.5 75.5s-52 70.167 -67 114.5s-22.5 92.5 -22.5 144.5c0 50 7.83301 97 23.5 141s38.334 82.333 68.001 115s66.167 58.5 109.5 77.5s92.666 28.5 147.999 28.5c56 0 105.833 -9.16699 149.5 -27.5
s80.167 -43.5 109.5 -75.5s51.666 -70.167 66.999 -114.5s23 -92.5 23 -144.5c0 -50 -7.83301 -97 -23.5 -141s-38.5 -82.333 -68.5 -115s-66.667 -58.5 -110 -77.5s-92.666 -28.5 -147.999 -28.5zM450 51c44.667 0 84.167 7.33105 118.5 21.998
s63.166 35.334 86.499 62.001s41 58.334 53 95.001s18 76.667 18 120c0 44 -6 84.167 -18 120.5s-29.667 67.833 -53 94.5s-52.166 47.334 -86.499 62.001s-73.833 22 -118.5 22s-84.167 -7.5 -118.5 -22.5s-63.166 -35.667 -86.499 -62s-41 -57.833 -53 -94.5
s-18 -76.667 -18 -120c0 -44 6 -84.167 18 -120.5s29.667 -67.833 53 -94.5s52.166 -47.334 86.499 -62.001s73.833 -22 118.5 -22zM556 132.998l-53.998 120c-20.667 44 -56 66.333 -106 67v-177h-79v423c18 2 36.167 3.66699 54.5 5s40.166 2 65.499 2
c52.667 0 93.834 -9.83301 123.501 -29.5s44.5 -49.5 44.5 -89.5c0 -28 -7.66699 -50.333 -23 -67s-38 -29.667 -68 -39c15.333 -7.33301 28.166 -17 38.499 -29s20.166 -27.667 29.499 -47l48 -105zM446.002 501.998c-9.33301 0 -18.168 -0.166992 -26.501 -0.5
s-16.166 -0.833008 -23.499 -1.5v-109h50c24 0 43.5 4.83301 58.5 14.5s22.5 24.167 22.5 43.5c0 15.333 -7 28 -21 38s-34 15 -60 15z" />
    <glyph glyph-name="macron" unicode="&#xaf;" horiz-adv-x="410" 
d="M60 627v73h290v-73h-290z" />
    <glyph glyph-name="degree" unicode="&#xb0;" horiz-adv-x="450" 
d="M129 599c0 -20 6 -36.667 18 -50s28 -20 48 -20s36 6 48 18s18 29.333 18 52c0 20 -6 36.667 -18 50s-28 20 -48 20s-36 -5.66699 -48 -17s-18 -29 -18 -53zM50 599c0 20 3.83301 38.667 11.5 56s18.167 32.333 31.5 45s28.666 22.5 45.999 29.5s36 10.5 56 10.5
s38.667 -3.5 56 -10.5s32.666 -16.833 45.999 -29.5s23.833 -27.667 31.5 -45s11.5 -36 11.5 -56s-3.83301 -38.667 -11.5 -56s-18.167 -32.333 -31.5 -45s-28.666 -22.5 -45.999 -29.5s-36 -10.5 -56 -10.5s-38.667 3.5 -56 10.5s-32.666 16.833 -45.999 29.5
s-23.833 27.667 -31.5 45s-11.5 36 -11.5 56z" />
    <glyph glyph-name="plusminus" unicode="&#xb1;" 
d="M343 394v-135h-85v135h-128v78h128v136h85v-136h127v-78h-127zM130 72v82h340v-82h-340z" />
    <glyph glyph-name="twosuperior" unicode="&#xb2;" horiz-adv-x="450" 
d="M80 276c-0.666992 5.33301 -1.16797 10.833 -1.50098 16.5s-0.5 12.167 -0.5 19.5c0 24.667 5.16699 47 15.5 67s23.333 38.167 39 54.5s32.667 31.333 51 45l51 39.5c15.667 12.667 28.667 25 39 37s15.5 24.333 15.5 37c0 14 -6 25.833 -18 35.5s-27 14.5 -45 14.5
s-34.667 -3.5 -50 -10.5s-30.666 -16.833 -45.999 -29.5l-47 50c21.333 17.333 44.333 30.833 69 40.5s52 14.5 82 14.5c42 0 75.333 -10.5 100 -31.5s37 -47.167 37 -78.5c0 -18.667 -4.66699 -35.834 -14 -51.501s-21 -30.167 -35 -43.5s-29.333 -26.166 -46 -38.499
s-32.5 -24.833 -47.5 -37.5s-28.167 -25.667 -39.5 -39s-18.333 -28 -21 -44h204v-67h-292z" />
    <glyph glyph-name="threesuperior" unicode="&#xb3;" horiz-adv-x="450" 
d="M205 270c-25.333 0 -49.499 3.66895 -72.499 11.002s-43.5 16.666 -61.5 27.999l38 59c14 -8.66699 29.167 -16.167 45.5 -22.5s33.166 -9.5 50.499 -9.5c30 0 53 6 69 18s24 26.667 24 44c0 18.667 -9.33301 34.834 -28 48.501s-48.334 20.5 -89.001 20.5h-46v61h43
c19.333 0 35.833 2 49.5 6s24.667 9 33 15s14.5 12.667 18.5 20s6 14.666 6 21.999c0 14.667 -7.5 27 -22.5 37s-33.167 15 -54.5 15c-17.333 0 -33.5 -3.16699 -48.5 -9.5s-28.5 -13.833 -40.5 -22.5l-36 59c16 9.33301 35 17.833 57 25.5s45.667 11.5 71 11.5
c24.667 0 46.667 -3.16699 66 -9.5s35.5 -14.5 48.5 -24.5s23 -21.667 30 -35s10.5 -27 10.5 -41c0 -22 -4.66699 -40.5 -14 -55.5s-24.666 -27.833 -45.999 -38.5c23.333 -10.667 41.333 -24.834 54 -42.501s19 -37.834 19 -60.501c0 -16 -3.33301 -31.833 -10 -47.5
s-17.167 -29.667 -31.5 -42s-32.5 -22.166 -54.5 -29.499s-48 -11 -78 -11z" />
    <glyph glyph-name="acute" unicode="&#xb4;" horiz-adv-x="311" 
d="M40 636l189 125l42 -84l-200 -102z" />
    <glyph glyph-name="mu" unicode="&#xb5;" 
d="M90 520h86v-331c0 -21.333 3 -39.666 9 -54.999s14 -27.833 24 -37.5s21.667 -16.834 35 -21.501s27 -7 41 -7c22.667 0 46 4.83301 70 14.5s47 24.5 69 44.5v393h86v-520h-83v59c-23.333 -22.667 -48.333 -40.167 -75 -52.5s-53.667 -18.5 -81 -18.5
c-25.333 0 -45.833 3.66699 -61.5 11s-28.5 17.333 -38.5 30v-249h-81v740z" />
    <glyph glyph-name="paragraph" unicode="&#xb6;" horiz-adv-x="750" 
d="M425 -64v466.001c-10 -1.33301 -21.167 -2.5 -33.5 -3.5s-25.833 -1.5 -40.5 -1.5c-76.667 0 -136.667 16.333 -180 49s-65 77.667 -65 135c0 28 5.33301 54.167 16 78.5s26.167 45.333 46.5 63s45.5 31.5 75.5 41.5s64.333 15 103 15c30.667 0 58.5 -0.833008 83.5 -2.5
s49.167 -3.83398 72.5 -6.50098v-834h-78zM565 -63.999v834h78v-834h-78zM346 474.001c17.333 0 32.3311 0.5 44.998 1.5s24 2.16699 34 3.5v219c-13.333 1.33301 -26.666 2.33301 -39.999 3s-27.666 1 -42.999 1c-50.667 0 -87.667 -11.333 -111 -34s-35 -50 -35 -82
c0 -33.333 13.5 -60.333 40.5 -81s63.5 -31 109.5 -31z" />
    <glyph glyph-name="periodcentered" unicode="&#xb7;" horiz-adv-x="300" 
d="M83 355c0 20.667 5.83301 37 17.5 49s28.167 18 49.5 18c17.333 0 32.833 -6.66699 46.5 -20s20.5 -29 20.5 -47c0 -20 -6.33301 -36.167 -19 -48.5s-28.667 -18.5 -48 -18.5c-18 0 -33.667 6.66699 -47 20s-20 29 -20 47z" />
    <glyph glyph-name="cedilla" unicode="&#xb8;" horiz-adv-x="297" 
d="M267 -148c0 -12.667 -2.83301 -24.667 -8.5 -36s-14.167 -21.5 -25.5 -30.5s-25.666 -16.167 -42.999 -21.5s-37.333 -8 -60 -8c-18 0 -35.333 1.5 -52 4.5s-32.667 8.16699 -48 15.5l24 63c22 -11.333 46 -17 72 -17c17.333 0 31.666 3 42.999 9s17 15.333 17 28
c0 12 -7.83301 22.667 -23.5 32s-45.5 14 -89.5 14l35 95h68l-21 -59c34 0 61.167 -7.33301 81.5 -22s30.5 -37 30.5 -67z" />
    <glyph glyph-name="onesuperior" unicode="&#xb9;" horiz-adv-x="450" 
d="M289 700v-359h80v-65h-256v65h96v264l-82 -53l-46 55l151 93h57z" />
    <glyph glyph-name="ordmasculine" unicode="&#xba;" 
d="M411 515c0 16.667 -2.83203 32.5 -8.49902 47.5s-13.334 28 -23.001 39s-21.167 19.667 -34.5 26s-28 9.5 -44 9.5c-36 0 -63.667 -11 -83 -33s-29 -51.333 -29 -88c0 -16.667 2.83301 -32.5 8.5 -47.5s13.5 -28 23.5 -39s21.833 -19.833 35.5 -26.5s28.5 -10 44.5 -10
c34.667 0 61.667 11.167 81 33.5s29 51.833 29 88.5zM109.001 515c0 30 4.83496 56.833 14.502 80.5s23.167 43.667 40.5 60s37.666 29 60.999 38s48.666 13.5 75.999 13.5c26.667 0 51.5 -4.5 74.5 -13.5s43 -21.667 60 -38s30.5 -36.333 40.5 -60s15 -50.167 15 -79.5
s-4.83301 -55.833 -14.5 -79.5s-23 -44 -40 -61s-37 -30 -60 -39s-48.167 -13.5 -75.5 -13.5c-28 0 -53.667 4.66699 -77 14s-43.5 22.5 -60.5 39.5s-30.333 37.167 -40 60.5s-14.5 49.333 -14.5 78zM130.003 132v82h340v-82h-340z" />
    <glyph glyph-name="guillemotright" unicode="&#xbb;" horiz-adv-x="566" 
d="M90 178l142 166l-142 166l58 49l158 -194v-42l-158 -194zM290 178l142 166l-142 166l58 49l158 -194v-42l-158 -194z" />
    <glyph glyph-name="onequarter" unicode="&#xbc;" horiz-adv-x="900" 
d="M229 -2l437 742l60 -38l-437 -742zM729 87h-200v52l144 291l71 -26l-123 -251h108v114h77v-114h57v-66h-57v-87h-77v87zM245 700v-359h80v-65h-256v65h96v264l-82 -53l-46 55l151 93h57z" />
    <glyph glyph-name="onehalf" unicode="&#xbd;" horiz-adv-x="900" 
d="M214 -2l437 742l60 -38l-437 -742zM240 700v-359h80v-65h-256v65h96v264l-82 -53l-46 55l151 93h57zM576 0c-0.666992 5.33301 -1.16797 10.832 -1.50098 16.499s-0.5 12.167 -0.5 19.5c0 24.667 5.16699 47 15.5 67s23.333 38.167 39 54.5s32.667 31.333 51 45l51 39.5
c15.667 12.667 28.667 24.834 39 36.501s15.5 24.167 15.5 37.5c0 14 -6 25.833 -18 35.5s-27 14.5 -45 14.5s-34.667 -3.5 -50 -10.5s-30.666 -16.833 -45.999 -29.5l-47 50c21.333 17.333 44.333 30.833 69 40.5s52 14.5 82 14.5c42 0 75.333 -10.5 100 -31.5
s37 -47.167 37 -78.5c0 -18.667 -4.66699 -35.834 -14 -51.501s-21 -30.167 -35 -43.5s-29.333 -26.166 -46 -38.499s-32.5 -24.833 -47.5 -37.5s-28.167 -25.667 -39.5 -39s-18.333 -28 -21 -44h204v-67h-292z" />
    <glyph glyph-name="threequarters" unicode="&#xbe;" horiz-adv-x="900" 
d="M718 87h-200v52l144 291l71 -26l-123 -251h108v114h77v-114h57v-66h-57v-87h-77v87zM219 -2l437 742l60 -38l-437 -742zM182 270c-25.333 0 -49.499 3.66895 -72.499 11.002s-43.5 16.666 -61.5 27.999l38 59c14 -8.66699 29.167 -16.167 45.5 -22.5
s33.166 -9.5 50.499 -9.5c30 0 53 6 69 18s24 26.667 24 44c0 18.667 -9.33301 34.834 -28 48.501s-48.334 20.5 -89.001 20.5h-46v61h43c19.333 0 35.833 2 49.5 6s24.667 9 33 15s14.5 12.667 18.5 20s6 14.666 6 21.999c0 14.667 -7.5 27 -22.5 37s-33.167 15 -54.5 15
c-17.333 0 -33.5 -3.16699 -48.5 -9.5s-28.5 -13.833 -40.5 -22.5l-36 59c16 9.33301 35 17.833 57 25.5s45.667 11.5 71 11.5c24.667 0 46.667 -3.16699 66 -9.5s35.5 -14.5 48.5 -24.5s23 -21.667 30 -35s10.5 -27 10.5 -41c0 -22 -4.66699 -40.5 -14 -55.5
s-24.666 -27.833 -45.999 -38.5c23.333 -10.667 41.333 -24.834 54 -42.501s19 -37.834 19 -60.501c0 -16 -3.33301 -31.833 -10 -47.5s-17.167 -29.667 -31.5 -42s-32.5 -22.166 -54.5 -29.499s-48 -11 -78 -11z" />
    <glyph glyph-name="questiondown" unicode="&#xbf;" horiz-adv-x="491" 
d="M446 -127c-26.667 -32.667 -56.335 -58.3359 -89.002 -77.0029s-72 -28 -118 -28c-28 0 -53.5 4.33301 -76.5 13s-42.833 20.334 -59.5 35.001s-29.667 31.834 -39 51.501s-14 40.834 -14 63.501c0 28 4.83301 52.167 14.5 72.5s21.834 38.333 36.501 54
s30.5 30.167 47.5 43.5s32.833 27.333 47.5 42s26.834 31 36.501 49s14.5 39.667 14.5 65v56h78c3.33301 -11.333 5.83301 -23.666 7.5 -36.999s2.5 -25.666 2.5 -36.999c0 -28.667 -4.66699 -53.167 -14 -73.5s-21 -38.333 -35 -54s-29 -29.834 -45 -42.501
s-31 -25.5 -45 -38.5s-25.667 -26.833 -35 -41.5s-14 -31.667 -14 -51c0 -23.333 9 -43.833 27 -61.5s42.333 -26.5 73 -26.5c28 0 52.833 6.66699 74.5 20s41.5 31.666 59.5 54.999zM213.999 464.998c0 20.667 5.83301 37 17.5 49s28.167 18 49.5 18
c17.333 0 32.833 -6.66699 46.5 -20s20.5 -29 20.5 -47c0 -20 -6.33301 -36.167 -19 -48.5s-28.667 -18.5 -48 -18.5c-18 0 -33.667 6.66699 -47 20s-20 29 -20 47z" />
    <glyph glyph-name="Agrave" unicode="&#xc0;" horiz-adv-x="668" 
d="M10 25l274 675h104l270 -675l-87 -35l-78 200h-324l-78 -198zM199 270h263l-131 336zM420 734l-200 102l42 84l189 -125z" />
    <glyph glyph-name="Aacute" unicode="&#xc1;" horiz-adv-x="668" 
d="M10 25l274 675h104l270 -675l-87 -35l-78 200h-324l-78 -198zM199 270h263l-131 336zM215 795l189 125l42 -84l-200 -102z" />
    <glyph glyph-name="Acircumflex" unicode="&#xc2;" horiz-adv-x="668" 
d="M10 25l274 675h104l270 -675l-87 -35l-78 200h-324l-78 -198zM199 270h263l-131 336zM197 742l-43 78l147 80h64l146 -80l-43 -78l-135 95z" />
    <glyph glyph-name="Atilde" unicode="&#xc3;" horiz-adv-x="668" 
d="M10 25l274 675h104l270 -675l-87 -35l-78 200h-324l-78 -198zM199 270h263l-131 336zM496 806c-12 -11.333 -25.833 -21.834 -41.5 -31.501s-33.834 -14.5 -54.501 -14.5c-13.333 0 -24.833 1.83301 -34.5 5.5s-18.834 7.5 -27.501 11.5s-17.5 7.83301 -26.5 11.5
s-19.167 5.5 -30.5 5.5c-14.667 0 -28 -3.66699 -40 -11s-23 -15.666 -33 -24.999l-35 62c12 13.333 27.333 25.333 46 36s38 16 58 16c12.667 0 23.834 -1.83301 33.501 -5.5s18.667 -7.5 27 -11.5s16.833 -7.83301 25.5 -11.5s18.334 -5.5 29.001 -5.5
c14.667 0 27.667 3.16699 39 9.5s21.333 13.5 30 21.5z" />
    <glyph glyph-name="Adieresis" unicode="&#xc4;" horiz-adv-x="668" 
d="M10 25l274 675h104l270 -675l-87 -35l-78 200h-324l-78 -198zM199 270h263l-131 336zM245 760c-16.667 0 -30.834 6 -42.501 18s-17.5 26 -17.5 42c0 18 5.33301 32.5 16 43.5s25.334 16.5 44.001 16.5c16.667 0 30.834 -6 42.501 -18s17.5 -26 17.5 -42
c0 -18 -5.33301 -32.5 -16 -43.5s-25.334 -16.5 -44.001 -16.5zM427 760c-16.667 0 -30.834 6 -42.501 18s-17.5 26 -17.5 42c0 18 5.33301 32.5 16 43.5s25.334 16.5 44.001 16.5c16.667 0 30.834 -6 42.501 -18s17.5 -26 17.5 -42c0 -18 -5.33301 -32.5 -16 -43.5
s-25.334 -16.5 -44.001 -16.5z" />
    <glyph glyph-name="Aring" unicode="&#xc5;" horiz-adv-x="668" 
d="M209 758c0 17.333 3.33301 33.332 10 47.999s15.667 27.334 27 38.001s24.5 19 39.5 25s31.167 9 48.5 9c16.667 0 32.667 -3 48 -9s28.666 -14.333 39.999 -25s20.333 -23.334 27 -38.001s10 -30.667 10 -48c0 -22 -5 -41.5 -15 -58.5s-23.333 -30.833 -40 -41.5
l254 -633l-87 -35l-78 200h-324l-78 -198l-81 33l256 631c-17.333 10 -31.166 23.833 -41.499 41.5s-15.5 37.834 -15.5 60.501zM199 269.999h263l-131 336zM286 757.999c0 -15.333 3.83301 -28.5 11.5 -39.5s18.167 -17.167 31.5 -18.5h9c13.333 1.33301 24 7 32 17
s12 23.667 12 41c0 15.333 -4.16699 28.833 -12.5 40.5s-20.166 17.5 -35.499 17.5c-14.667 0 -26.334 -4.83301 -35.001 -14.5s-13 -24.167 -13 -43.5z" />
    <glyph glyph-name="AE" unicode="&#xc6;" horiz-adv-x="918" 
d="M5 39l415 661h453v-82h-318v-213h273v-80h-273v-243h318v-82h-410v190h-259l-122 -199zM253 270h210v341z" />
    <glyph glyph-name="Ccedilla" unicode="&#xc7;" horiz-adv-x="594" 
d="M464 -148c0 -12.667 -2.83398 -24.6689 -8.50098 -36.002s-14.167 -21.5 -25.5 -30.5s-25.666 -16.167 -42.999 -21.5s-37.333 -8 -60 -8c-18 0 -35.333 1.5 -52 4.5s-32.667 8.16699 -48 15.5l24 63c22 -11.333 46 -17 72 -17c17.333 0 31.666 3 42.999 9
s17 15.333 17 28c0 12 -7.83301 22.667 -23.5 32s-45.5 14 -89.5 14l32 88c-38 6 -72.5 18.667 -103.5 38s-57.5 44.166 -79.5 74.499s-39 65.833 -51 106.5s-18 85.667 -18 135c0 53.333 7.5 102.333 22.5 147s36.5 83.167 64.5 115.5s61.833 57.5 101.5 75.5
s83.834 27 132.501 27c34 0 64.5 -3.16699 91.5 -9.5s52.5 -15.166 76.5 -26.499l-29 -80c-20.667 10 -41.834 18 -63.501 24s-47.167 9 -76.5 9c-32 0 -61.667 -6.16699 -89 -18.5s-51 -30.5 -71 -54.5s-35.5 -53.167 -46.5 -87.5s-16.5 -73.5 -16.5 -117.5
c0 -42 5.5 -80.167 16.5 -114.5s26.333 -63.833 46 -88.5s43.167 -43.667 70.5 -57s57.333 -20 90 -20s61 3.83301 85 11.5s47.333 18.167 70 31.5l29 -79c-23.333 -13.333 -50.166 -24.166 -80.499 -32.499s-65.5 -13.166 -105.5 -14.499l-16 -47
c34 0 61.167 -7.33301 81.5 -22s30.5 -37 30.5 -67z" />
    <glyph glyph-name="Egrave" unicode="&#xc8;" horiz-adv-x="555" 
d="M90 700h420v-82h-325v-213h280v-80h-280v-243h325v-82h-420v700zM383 734l-200 102l42 84l189 -125z" />
    <glyph glyph-name="Eacute" unicode="&#xc9;" horiz-adv-x="555" 
d="M90 700h420v-82h-325v-213h280v-80h-280v-243h325v-82h-420v700zM189 795l189 125l42 -84l-200 -102z" />
    <glyph glyph-name="Ecircumflex" unicode="&#xca;" horiz-adv-x="555" 
d="M90 700h420v-82h-325v-213h280v-80h-280v-243h325v-82h-420v700zM173 742l-43 78l147 80h64l146 -80l-43 -78l-135 95z" />
    <glyph glyph-name="Edieresis" unicode="&#xcb;" horiz-adv-x="555" 
d="M90 700h420v-82h-325v-213h280v-80h-280v-243h325v-82h-420v700zM217 760c-16.667 0 -30.834 6 -42.501 18s-17.5 26 -17.5 42c0 18 5.33301 32.5 16 43.5s25.334 16.5 44.001 16.5c16.667 0 30.834 -6 42.501 -18s17.5 -26 17.5 -42c0 -18 -5.33301 -32.5 -16 -43.5
s-25.334 -16.5 -44.001 -16.5zM399 760c-16.667 0 -30.834 6 -42.501 18s-17.5 26 -17.5 42c0 18 5.33301 32.5 16 43.5s25.334 16.5 44.001 16.5c16.667 0 30.834 -6 42.501 -18s17.5 -26 17.5 -42c0 -18 -5.33301 -32.5 -16 -43.5s-25.334 -16.5 -44.001 -16.5z" />
    <glyph glyph-name="Igrave" unicode="&#xcc;" horiz-adv-x="275" 
d="M90 0v700h95v-700h-95zM227 734l-200 102l42 84l189 -125z" />
    <glyph glyph-name="Iacute" unicode="&#xcd;" horiz-adv-x="275" 
d="M90 0v700h95v-700h-95zM20 795l189 125l42 -84l-200 -102z" />
    <glyph glyph-name="Icircumflex" unicode="&#xce;" horiz-adv-x="275" 
d="M90 0v700h95v-700h-95zM3 742l-43 78l147 80h64l146 -80l-43 -78l-135 95z" />
    <glyph glyph-name="Idieresis" unicode="&#xcf;" horiz-adv-x="275" 
d="M90 0v700h95v-700h-95zM47 760c-16.667 0 -30.834 6 -42.501 18s-17.5 26 -17.5 42c0 18 5.33301 32.5 16 43.5s25.334 16.5 44.001 16.5c16.667 0 30.834 -6 42.501 -18s17.5 -26 17.5 -42c0 -18 -5.33301 -32.5 -16 -43.5s-25.334 -16.5 -44.001 -16.5zM229 760
c-16.667 0 -30.834 6 -42.501 18s-17.5 26 -17.5 42c0 18 5.33301 32.5 16 43.5s25.334 16.5 44.001 16.5c16.667 0 30.834 -6 42.501 -18s17.5 -26 17.5 -42c0 -18 -5.33301 -32.5 -16 -43.5s-25.334 -16.5 -44.001 -16.5z" />
    <glyph glyph-name="Eth" unicode="&#xd0;" horiz-adv-x="702" 
d="M10 384l99.999 0.00292969v314c31.333 3.33301 62 5.83301 92 7.5s64.333 2.5 103 2.5c60 0 111.667 -9.33301 155 -28s79.333 -44.334 108 -77.001s49.834 -70.667 63.501 -114s20.5 -89.333 20.5 -138s-7 -94.834 -21 -138.501s-35.5 -81.834 -64.5 -114.501
s-66 -58.5 -111 -77.5s-98.833 -28.5 -161.5 -28.5c-38 0 -71.167 0.833008 -99.5 2.5s-56.5 4.16699 -84.5 7.5v302h-100v80zM301.999 626.003c-19.333 0 -37.001 -0.500977 -53.001 -1.50098s-30.667 -2.16699 -44 -3.5v-237h148v-80h-148v-224
c14 -2 28.667 -3.33301 44 -4s31.333 -1 48 -1c44.667 0 83.334 6.83301 116.001 20.5s59.5 32.667 80.5 57s36.5 53.333 46.5 87s15 70.834 15 111.501c0 36 -5 70.5 -15 103.5s-25.333 62.333 -46 88s-47 46 -79 61s-69.667 22.5 -113 22.5z" />
    <glyph glyph-name="Ntilde" unicode="&#xd1;" horiz-adv-x="705" 
d="M180 578v-578h-90v700h126l309 -582v582h90v-700h-124zM516 806c-12 -11.333 -25.833 -21.834 -41.5 -31.501s-33.834 -14.5 -54.501 -14.5c-13.333 0 -24.833 1.83301 -34.5 5.5s-18.834 7.5 -27.501 11.5s-17.5 7.83301 -26.5 11.5s-19.167 5.5 -30.5 5.5
c-14.667 0 -28 -3.66699 -40 -11s-23 -15.666 -33 -24.999l-35 62c12 13.333 27.333 25.333 46 36s38 16 58 16c12.667 0 23.834 -1.83301 33.501 -5.5s18.667 -7.5 27 -11.5s16.833 -7.83301 25.5 -11.5s18.334 -5.5 29.001 -5.5c14.667 0 27.667 3.16699 39 9.5
s21.333 13.5 30 21.5z" />
    <glyph glyph-name="Ograve" unicode="&#xd2;" horiz-adv-x="761" 
d="M50 351c0 51.333 7.50195 99.002 22.502 143.002s36.667 82.167 65 114.5s62.833 57.666 103.5 75.999s87 27.5 139 27.5c51.333 0 97.5 -9.5 138.5 -28.5s75.667 -44.833 104 -77.5s50.166 -70.834 65.499 -114.501s23 -90.5 23 -140.5s-7.5 -97 -22.5 -141
s-36.833 -82.5 -65.5 -115.5s-63.334 -59 -104.001 -78s-87 -28.5 -139 -28.5s-98.333 9.5 -139 28.5s-75.167 45 -103.5 78s-50 71.5 -65 115.5s-22.5 91 -22.5 141zM147.002 351.002c0 -36 5.16699 -71 15.5 -105s25.5 -64 45.5 -90s44.5 -46.833 73.5 -62.5
s61.833 -23.5 98.5 -23.5c38.667 0 72.5 7.16699 101.5 21.5s53.333 34 73 59s34.5 54.667 44.5 89s15 71.5 15 111.5c0 36 -5.33301 70.667 -16 104s-26 63 -46 89s-44.5 46.833 -73.5 62.5s-61.833 23.5 -98.5 23.5s-69.5 -7.16699 -98.5 -21.5s-53.5 -34 -73.5 -59
s-35.167 -54.5 -45.5 -88.5s-15.5 -70.667 -15.5 -110zM469.002 734.002l-200 102l42 84l189 -125z" />
    <glyph glyph-name="Oacute" unicode="&#xd3;" horiz-adv-x="761" 
d="M50 351c0 51.333 7.50195 99.002 22.502 143.002s36.667 82.167 65 114.5s62.833 57.666 103.5 75.999s87 27.5 139 27.5c51.333 0 97.5 -9.5 138.5 -28.5s75.667 -44.833 104 -77.5s50.166 -70.834 65.499 -114.501s23 -90.5 23 -140.5s-7.5 -97 -22.5 -141
s-36.833 -82.5 -65.5 -115.5s-63.334 -59 -104.001 -78s-87 -28.5 -139 -28.5s-98.333 9.5 -139 28.5s-75.167 45 -103.5 78s-50 71.5 -65 115.5s-22.5 91 -22.5 141zM147.002 351.002c0 -36 5.16699 -71 15.5 -105s25.5 -64 45.5 -90s44.5 -46.833 73.5 -62.5
s61.833 -23.5 98.5 -23.5c38.667 0 72.5 7.16699 101.5 21.5s53.333 34 73 59s34.5 54.667 44.5 89s15 71.5 15 111.5c0 36 -5.33301 70.667 -16 104s-26 63 -46 89s-44.5 46.833 -73.5 62.5s-61.833 23.5 -98.5 23.5s-69.5 -7.16699 -98.5 -21.5s-53.5 -34 -73.5 -59
s-35.167 -54.5 -45.5 -88.5s-15.5 -70.667 -15.5 -110zM287.002 795.002l189 125l42 -84l-200 -102z" />
    <glyph glyph-name="Ocircumflex" unicode="&#xd4;" horiz-adv-x="761" 
d="M50 351c0 51.333 7.50195 99.002 22.502 143.002s36.667 82.167 65 114.5s62.833 57.666 103.5 75.999s87 27.5 139 27.5c51.333 0 97.5 -9.5 138.5 -28.5s75.667 -44.833 104 -77.5s50.166 -70.834 65.499 -114.501s23 -90.5 23 -140.5s-7.5 -97 -22.5 -141
s-36.833 -82.5 -65.5 -115.5s-63.334 -59 -104.001 -78s-87 -28.5 -139 -28.5s-98.333 9.5 -139 28.5s-75.167 45 -103.5 78s-50 71.5 -65 115.5s-22.5 91 -22.5 141zM147.002 351.002c0 -36 5.16699 -71 15.5 -105s25.5 -64 45.5 -90s44.5 -46.833 73.5 -62.5
s61.833 -23.5 98.5 -23.5c38.667 0 72.5 7.16699 101.5 21.5s53.333 34 73 59s34.5 54.667 44.5 89s15 71.5 15 111.5c0 36 -5.33301 70.667 -16 104s-26 63 -46 89s-44.5 46.833 -73.5 62.5s-61.833 23.5 -98.5 23.5s-69.5 -7.16699 -98.5 -21.5s-53.5 -34 -73.5 -59
s-35.167 -54.5 -45.5 -88.5s-15.5 -70.667 -15.5 -110zM246.002 742.002l-43 78l147 80h64l146 -80l-43 -78l-135 95z" />
    <glyph glyph-name="Otilde" unicode="&#xd5;" horiz-adv-x="761" 
d="M50 351c0 51.333 7.50195 99.002 22.502 143.002s36.667 82.167 65 114.5s62.833 57.666 103.5 75.999s87 27.5 139 27.5c51.333 0 97.5 -9.5 138.5 -28.5s75.667 -44.833 104 -77.5s50.166 -70.834 65.499 -114.501s23 -90.5 23 -140.5s-7.5 -97 -22.5 -141
s-36.833 -82.5 -65.5 -115.5s-63.334 -59 -104.001 -78s-87 -28.5 -139 -28.5s-98.333 9.5 -139 28.5s-75.167 45 -103.5 78s-50 71.5 -65 115.5s-22.5 91 -22.5 141zM147.002 351.002c0 -36 5.16699 -71 15.5 -105s25.5 -64 45.5 -90s44.5 -46.833 73.5 -62.5
s61.833 -23.5 98.5 -23.5c38.667 0 72.5 7.16699 101.5 21.5s53.333 34 73 59s34.5 54.667 44.5 89s15 71.5 15 111.5c0 36 -5.33301 70.667 -16 104s-26 63 -46 89s-44.5 46.833 -73.5 62.5s-61.833 23.5 -98.5 23.5s-69.5 -7.16699 -98.5 -21.5s-53.5 -34 -73.5 -59
s-35.167 -54.5 -45.5 -88.5s-15.5 -70.667 -15.5 -110zM549.002 806.002c-12 -11.333 -25.833 -21.834 -41.5 -31.501s-33.834 -14.5 -54.501 -14.5c-13.333 0 -24.833 1.83301 -34.5 5.5s-18.834 7.5 -27.501 11.5s-17.5 7.83301 -26.5 11.5s-19.167 5.5 -30.5 5.5
c-14.667 0 -28 -3.66699 -40 -11s-23 -15.666 -33 -24.999l-35 62c12 13.333 27.333 25.333 46 36s38 16 58 16c12.667 0 23.834 -1.83301 33.501 -5.5s18.667 -7.5 27 -11.5s16.833 -7.83301 25.5 -11.5s18.334 -5.5 29.001 -5.5c14.667 0 27.667 3.16699 39 9.5
s21.333 13.5 30 21.5z" />
    <glyph glyph-name="Odieresis" unicode="&#xd6;" horiz-adv-x="761" 
d="M50 351c0 51.333 7.50195 99.002 22.502 143.002s36.667 82.167 65 114.5s62.833 57.666 103.5 75.999s87 27.5 139 27.5c51.333 0 97.5 -9.5 138.5 -28.5s75.667 -44.833 104 -77.5s50.166 -70.834 65.499 -114.501s23 -90.5 23 -140.5s-7.5 -97 -22.5 -141
s-36.833 -82.5 -65.5 -115.5s-63.334 -59 -104.001 -78s-87 -28.5 -139 -28.5s-98.333 9.5 -139 28.5s-75.167 45 -103.5 78s-50 71.5 -65 115.5s-22.5 91 -22.5 141zM147.002 351.002c0 -36 5.16699 -71 15.5 -105s25.5 -64 45.5 -90s44.5 -46.833 73.5 -62.5
s61.833 -23.5 98.5 -23.5c38.667 0 72.5 7.16699 101.5 21.5s53.333 34 73 59s34.5 54.667 44.5 89s15 71.5 15 111.5c0 36 -5.33301 70.667 -16 104s-26 63 -46 89s-44.5 46.833 -73.5 62.5s-61.833 23.5 -98.5 23.5s-69.5 -7.16699 -98.5 -21.5s-53.5 -34 -73.5 -59
s-35.167 -54.5 -45.5 -88.5s-15.5 -70.667 -15.5 -110zM295.002 760.002c-16.667 0 -30.834 6 -42.501 18s-17.5 26 -17.5 42c0 18 5.33301 32.5 16 43.5s25.334 16.5 44.001 16.5c16.667 0 30.834 -6 42.501 -18s17.5 -26 17.5 -42c0 -18 -5.33301 -32.5 -16 -43.5
s-25.334 -16.5 -44.001 -16.5zM477.002 760.002c-16.667 0 -30.834 6 -42.501 18s-17.5 26 -17.5 42c0 18 5.33301 32.5 16 43.5s25.334 16.5 44.001 16.5c16.667 0 30.834 -6 42.501 -18s17.5 -26 17.5 -42c0 -18 -5.33301 -32.5 -16 -43.5s-25.334 -16.5 -44.001 -16.5z
" />
    <glyph glyph-name="multiply" unicode="&#xd7;" 
d="M111 479l55 55l134 -136l134 136l55 -55l-135 -135l135 -134l-55 -54l-134 134l-134 -134l-55 54l135 134z" />
    <glyph glyph-name="Oslash" unicode="&#xd8;" horiz-adv-x="761" 
d="M50 351c0 51.333 7.50391 99.001 22.5039 143.001s36.667 82.167 65 114.5s62.833 57.666 103.5 75.999s87 27.5 139 27.5c23.333 0 45.166 -2.16699 65.499 -6.5s40.166 -10.166 59.499 -17.499l52 121l82 -38l-65 -121c44 -32.667 77.833 -75 101.5 -127
s35.5 -109.333 35.5 -172c0 -50 -7.5 -97 -22.5 -141s-36.833 -82.5 -65.5 -115.5s-63.334 -59 -104.001 -78s-87 -28.5 -139 -28.5c-20.667 0 -40.334 1.66699 -59.001 5s-36.667 7.66602 -54 12.999l-53 -124l-82 38l64 121c-47.333 32 -83.5 75.167 -108.5 129.5
s-37.5 114.5 -37.5 180.5zM147.004 351.001c0 -44.667 7.66895 -87 23.002 -127s37.666 -73.333 66.999 -100l232 487c-26.667 12.667 -56.334 19 -89.001 19c-36.667 0 -69.5 -7.16699 -98.5 -21.5s-53.5 -34 -73.5 -59s-35.167 -54.5 -45.5 -88.5
s-15.5 -70.667 -15.5 -110zM614.006 351.001c0 41.333 -7 81 -21 119s-34.333 70 -61 96l-230 -482c24 -9.33301 50 -14 78 -14c38.667 0 72.5 7.16699 101.5 21.5s53.333 34 73 59s34.5 54.667 44.5 89s15 71.5 15 111.5z" />
    <glyph glyph-name="Ugrave" unicode="&#xd9;" horiz-adv-x="670" 
d="M503 700l92 -0.00195312v-430c0 -44 -6.16699 -83.5 -18.5 -118.5s-30 -64.667 -53 -89s-50.5 -42.833 -82.5 -55.5s-67.667 -19 -107 -19c-81.333 0 -144.833 23.833 -190.5 71.5s-68.5 116.5 -68.5 206.5v434h95v-419c0 -67.333 13.5 -119.166 40.5 -155.499
s68.167 -54.5 123.5 -54.5c56.667 0 99 17.833 127 53.5s42 87.834 42 156.501v419zM417 733.998l-200 102l42 84l189 -125z" />
    <glyph glyph-name="Uacute" unicode="&#xda;" horiz-adv-x="670" 
d="M503 700l92 -0.00195312v-430c0 -44 -6.16699 -83.5 -18.5 -118.5s-30 -64.667 -53 -89s-50.5 -42.833 -82.5 -55.5s-67.667 -19 -107 -19c-81.333 0 -144.833 23.833 -190.5 71.5s-68.5 116.5 -68.5 206.5v434h95v-419c0 -67.333 13.5 -119.166 40.5 -155.499
s68.167 -54.5 123.5 -54.5c56.667 0 99 17.833 127 53.5s42 87.834 42 156.501v419zM235 794.998l189 125l42 -84l-200 -102z" />
    <glyph glyph-name="Ucircumflex" unicode="&#xdb;" horiz-adv-x="670" 
d="M503 700l92 -0.00195312v-430c0 -44 -6.16699 -83.5 -18.5 -118.5s-30 -64.667 -53 -89s-50.5 -42.833 -82.5 -55.5s-67.667 -19 -107 -19c-81.333 0 -144.833 23.833 -190.5 71.5s-68.5 116.5 -68.5 206.5v434h95v-419c0 -67.333 13.5 -119.166 40.5 -155.499
s68.167 -54.5 123.5 -54.5c56.667 0 99 17.833 127 53.5s42 87.834 42 156.501v419zM201 741.998l-43 78l147 80h64l146 -80l-43 -78l-135 95z" />
    <glyph glyph-name="Udieresis" unicode="&#xdc;" horiz-adv-x="670" 
d="M503 700l92 -0.00195312v-430c0 -44 -6.16699 -83.5 -18.5 -118.5s-30 -64.667 -53 -89s-50.5 -42.833 -82.5 -55.5s-67.667 -19 -107 -19c-81.333 0 -144.833 23.833 -190.5 71.5s-68.5 116.5 -68.5 206.5v434h95v-419c0 -67.333 13.5 -119.166 40.5 -155.499
s68.167 -54.5 123.5 -54.5c56.667 0 99 17.833 127 53.5s42 87.834 42 156.501v419zM246 759.998c-16.667 0 -30.834 6 -42.501 18s-17.5 26 -17.5 42c0 18 5.33301 32.5 16 43.5s25.334 16.5 44.001 16.5c16.667 0 30.834 -6 42.501 -18s17.5 -26 17.5 -42
c0 -18 -5.33301 -32.5 -16 -43.5s-25.334 -16.5 -44.001 -16.5zM428 759.998c-16.667 0 -30.834 6 -42.501 18s-17.5 26 -17.5 42c0 18 5.33301 32.5 16 43.5s25.334 16.5 44.001 16.5c16.667 0 30.834 -6 42.501 -18s17.5 -26 17.5 -42c0 -18 -5.33301 -32.5 -16 -43.5
s-25.334 -16.5 -44.001 -16.5z" />
    <glyph glyph-name="Yacute" unicode="&#xdd;" horiz-adv-x="599" 
d="M304 354l210 351l75 -44l-241 -395v-266h-95v266l-243 395l80 48zM193 795l189 125l42 -84l-200 -102z" />
    <glyph glyph-name="Thorn" unicode="&#xde;" horiz-adv-x="582" 
d="M90 0l-0.00195312 700h95v-121c30.667 2 63.334 3 98.001 3c44 0 83 -5.33301 117 -16s62.667 -25.334 86 -44.001s41 -41.167 53 -67.5s18 -54.833 18 -85.5c0 -37.333 -7.16699 -70.666 -21.5 -99.999s-34.333 -54 -60 -74s-56.5 -35.167 -92.5 -45.5
s-76 -15.5 -120 -15.5c-18 0 -33.167 0.166992 -45.5 0.5s-23.166 0.833008 -32.499 1.5v-136h-95zM280.998 502c-18 0 -35 -0.331055 -51 -0.998047s-31 -1.66699 -45 -3v-280c7.33301 -1.33301 17.5 -2.33301 30.5 -3s32.833 -1 59.5 -1c60 0 106.167 13.167 138.5 39.5
s48.5 62.166 48.5 107.499c0 43.333 -15.5 77.666 -46.5 102.999s-75.833 38 -134.5 38z" />
    <glyph glyph-name="germandbls" unicode="&#xdf;" horiz-adv-x="630" 
d="M370 -12c-40 0 -73.6699 6.33301 -101.003 19l20 78c22.667 -11.333 48.667 -17 78 -17c38 0 69.333 11.833 94 35.5s37 56.5 37 98.5c0 20.667 -4 40 -12 58s-19.667 33.833 -35 47.5s-34 24.5 -56 32.5s-47.333 12 -76 12v73c28 0 52.167 4 72.5 12s37 18.333 50 31
s22.5 27.167 28.5 43.5s9 32.5 9 48.5c0 34 -11.333 61.167 -34 81.5s-51 30.5 -85 30.5c-21.333 0 -41.166 -4 -59.499 -12s-34.166 -21.833 -47.499 -41.5s-23.833 -46 -31.5 -79s-11.5 -74.5 -11.5 -124.5v-635h-90v569c0 33.333 -8 56.666 -24 69.999s-38 20 -66 20
l23 81c22 0 39.667 -3.66699 53 -11s24 -18 32 -32c0 47.333 5.5 88.333 16.5 123s26.667 63.167 47 85.5s44.666 39 72.999 50s59.5 16.5 93.5 16.5c28.667 0 55.334 -4.66699 80.001 -14s45.667 -22.166 63 -38.499s31 -35.333 41 -57s15 -44.5 15 -68.5
c0 -43.333 -10.167 -79.166 -30.5 -107.499s-51.5 -51.5 -93.5 -69.5c48.667 -16.667 85.334 -41.334 110.001 -74.001s37 -72.334 37 -119.001c0 -30.667 -5.16699 -59.167 -15.5 -85.5s-25 -49.166 -44 -68.499s-42 -34.5 -69 -45.5s-57.5 -16.5 -91.5 -16.5z" />
    <glyph glyph-name="agrave" unicode="&#xe0;" horiz-adv-x="617" 
d="M45 257c0 38.667 5.99902 74.8311 17.999 108.498s28.833 62.834 50.5 87.501s47.667 44 78 58s63.5 21 99.5 21c30 0 57.167 -5.16699 81.5 -15.5s45.5 -23.166 63.5 -38.499v42h82v-394c0 -25.333 6.16699 -41.833 18.5 -49.5s25.833 -11.5 40.5 -11.5l-19 -70
c-64 0 -102.667 26 -116 78c-8 -10.667 -17.167 -21.167 -27.5 -31.5s-22.166 -19.5 -35.499 -27.5s-28.333 -14.333 -45 -19s-35 -7 -55 -7c-32.667 0 -63.167 6.33301 -91.5 19s-53 30.667 -74 54s-37.667 51.5 -50 84.5s-18.5 70.167 -18.5 111.5zM298.999 67.9971
c25.333 0 49.332 5.99902 71.999 17.999s41.667 27.667 57 47v279c-18 12.667 -37.833 22.834 -59.5 30.501s-44.5 11.5 -68.5 11.5s-46 -4.66699 -66 -14s-37.167 -22.5 -51.5 -39.5s-25.5 -37.5 -33.5 -61.5s-12 -50.333 -12 -79c0 -28 4 -53.833 12 -77.5
s19.333 -44 34 -61s31.834 -30.167 51.501 -39.5s41.167 -14 64.5 -14zM386.998 574.996l-200 102l42 84l189 -125z" />
    <glyph glyph-name="aacute" unicode="&#xe1;" horiz-adv-x="617" 
d="M45 257c0 38.667 5.99902 74.8311 17.999 108.498s28.833 62.834 50.5 87.501s47.667 44 78 58s63.5 21 99.5 21c30 0 57.167 -5.16699 81.5 -15.5s45.5 -23.166 63.5 -38.499v42h82v-394c0 -25.333 6.16699 -41.833 18.5 -49.5s25.833 -11.5 40.5 -11.5l-19 -70
c-64 0 -102.667 26 -116 78c-8 -10.667 -17.167 -21.167 -27.5 -31.5s-22.166 -19.5 -35.499 -27.5s-28.333 -14.333 -45 -19s-35 -7 -55 -7c-32.667 0 -63.167 6.33301 -91.5 19s-53 30.667 -74 54s-37.667 51.5 -50 84.5s-18.5 70.167 -18.5 111.5zM298.999 67.9971
c25.333 0 49.332 5.99902 71.999 17.999s41.667 27.667 57 47v279c-18 12.667 -37.833 22.834 -59.5 30.501s-44.5 11.5 -68.5 11.5s-46 -4.66699 -66 -14s-37.167 -22.5 -51.5 -39.5s-25.5 -37.5 -33.5 -61.5s-12 -50.333 -12 -79c0 -28 4 -53.833 12 -77.5
s19.333 -44 34 -61s31.834 -30.167 51.501 -39.5s41.167 -14 64.5 -14zM198.998 635.996l189 125l42 -84l-200 -102z" />
    <glyph glyph-name="acircumflex" unicode="&#xe2;" horiz-adv-x="617" 
d="M45 257c0 38.667 5.99902 74.8311 17.999 108.498s28.833 62.834 50.5 87.501s47.667 44 78 58s63.5 21 99.5 21c30 0 57.167 -5.16699 81.5 -15.5s45.5 -23.166 63.5 -38.499v42h82v-394c0 -25.333 6.16699 -41.833 18.5 -49.5s25.833 -11.5 40.5 -11.5l-19 -70
c-64 0 -102.667 26 -116 78c-8 -10.667 -17.167 -21.167 -27.5 -31.5s-22.166 -19.5 -35.499 -27.5s-28.333 -14.333 -45 -19s-35 -7 -55 -7c-32.667 0 -63.167 6.33301 -91.5 19s-53 30.667 -74 54s-37.667 51.5 -50 84.5s-18.5 70.167 -18.5 111.5zM298.999 67.9971
c25.333 0 49.332 5.99902 71.999 17.999s41.667 27.667 57 47v279c-18 12.667 -37.833 22.834 -59.5 30.501s-44.5 11.5 -68.5 11.5s-46 -4.66699 -66 -14s-37.167 -22.5 -51.5 -39.5s-25.5 -37.5 -33.5 -61.5s-12 -50.333 -12 -79c0 -28 4 -53.833 12 -77.5
s19.333 -44 34 -61s31.834 -30.167 51.501 -39.5s41.167 -14 64.5 -14zM174.998 571.996l-47 74l146 94h64l146 -94l-47 -74l-131 105z" />
    <glyph glyph-name="atilde" unicode="&#xe3;" horiz-adv-x="617" 
d="M45 257c0 38.667 5.99902 74.8311 17.999 108.498s28.833 62.834 50.5 87.501s47.667 44 78 58s63.5 21 99.5 21c30 0 57.167 -5.16699 81.5 -15.5s45.5 -23.166 63.5 -38.499v42h82v-394c0 -25.333 6.16699 -41.833 18.5 -49.5s25.833 -11.5 40.5 -11.5l-19 -70
c-64 0 -102.667 26 -116 78c-8 -10.667 -17.167 -21.167 -27.5 -31.5s-22.166 -19.5 -35.499 -27.5s-28.333 -14.333 -45 -19s-35 -7 -55 -7c-32.667 0 -63.167 6.33301 -91.5 19s-53 30.667 -74 54s-37.667 51.5 -50 84.5s-18.5 70.167 -18.5 111.5zM298.999 67.9971
c25.333 0 49.332 5.99902 71.999 17.999s41.667 27.667 57 47v279c-18 12.667 -37.833 22.834 -59.5 30.501s-44.5 11.5 -68.5 11.5s-46 -4.66699 -66 -14s-37.167 -22.5 -51.5 -39.5s-25.5 -37.5 -33.5 -61.5s-12 -50.333 -12 -79c0 -28 4 -53.833 12 -77.5
s19.333 -44 34 -61s31.834 -30.167 51.501 -39.5s41.167 -14 64.5 -14zM471.998 655.996c-12 -11.333 -25.833 -21.834 -41.5 -31.501s-33.834 -14.5 -54.501 -14.5c-13.333 0 -24.833 1.83301 -34.5 5.5s-18.834 7.5 -27.501 11.5s-17.5 7.83301 -26.5 11.5
s-19.167 5.5 -30.5 5.5c-14.667 0 -28 -3.66699 -40 -11s-23 -15.666 -33 -24.999l-35 62c12 13.333 27.333 25.333 46 36s38 16 58 16c12.667 0 23.834 -1.83301 33.501 -5.5s18.667 -7.5 27 -11.5s16.833 -7.83301 25.5 -11.5s18.334 -5.5 29.001 -5.5
c14.667 0 27.667 3.16699 39 9.5s21.333 13.5 30 21.5z" />
    <glyph glyph-name="adieresis" unicode="&#xe4;" horiz-adv-x="617" 
d="M45 257c0 38.667 5.99902 74.8311 17.999 108.498s28.833 62.834 50.5 87.501s47.667 44 78 58s63.5 21 99.5 21c30 0 57.167 -5.16699 81.5 -15.5s45.5 -23.166 63.5 -38.499v42h82v-394c0 -25.333 6.16699 -41.833 18.5 -49.5s25.833 -11.5 40.5 -11.5l-19 -70
c-64 0 -102.667 26 -116 78c-8 -10.667 -17.167 -21.167 -27.5 -31.5s-22.166 -19.5 -35.499 -27.5s-28.333 -14.333 -45 -19s-35 -7 -55 -7c-32.667 0 -63.167 6.33301 -91.5 19s-53 30.667 -74 54s-37.667 51.5 -50 84.5s-18.5 70.167 -18.5 111.5zM298.999 67.9971
c25.333 0 49.332 5.99902 71.999 17.999s41.667 27.667 57 47v279c-18 12.667 -37.833 22.834 -59.5 30.501s-44.5 11.5 -68.5 11.5s-46 -4.66699 -66 -14s-37.167 -22.5 -51.5 -39.5s-25.5 -37.5 -33.5 -61.5s-12 -50.333 -12 -79c0 -28 4 -53.833 12 -77.5
s19.333 -44 34 -61s31.834 -30.167 51.501 -39.5s41.167 -14 64.5 -14zM214.998 606.996c-16.667 0 -30.834 6 -42.501 18s-17.5 26 -17.5 42c0 18 5.33301 32.5 16 43.5s25.334 16.5 44.001 16.5c16.667 0 30.834 -6 42.501 -18s17.5 -26 17.5 -42
c0 -18 -5.33301 -32.5 -16 -43.5s-25.334 -16.5 -44.001 -16.5zM396.998 606.996c-16.667 0 -30.834 6 -42.501 18s-17.5 26 -17.5 42c0 18 5.33301 32.5 16 43.5s25.334 16.5 44.001 16.5c16.667 0 30.834 -6 42.501 -18s17.5 -26 17.5 -42c0 -18 -5.33301 -32.5 -16 -43.5
s-25.334 -16.5 -44.001 -16.5z" />
    <glyph glyph-name="aring" unicode="&#xe5;" horiz-adv-x="617" 
d="M45 257c0 38.667 5.99902 74.8311 17.999 108.498s28.833 62.834 50.5 87.501s47.667 44 78 58s63.5 21 99.5 21c30 0 57.167 -5.16699 81.5 -15.5s45.5 -23.166 63.5 -38.499v42h82v-394c0 -25.333 6.16699 -41.833 18.5 -49.5s25.833 -11.5 40.5 -11.5l-19 -70
c-64 0 -102.667 26 -116 78c-8 -10.667 -17.167 -21.167 -27.5 -31.5s-22.166 -19.5 -35.499 -27.5s-28.333 -14.333 -45 -19s-35 -7 -55 -7c-32.667 0 -63.167 6.33301 -91.5 19s-53 30.667 -74 54s-37.667 51.5 -50 84.5s-18.5 70.167 -18.5 111.5zM298.999 67.9971
c25.333 0 49.332 5.99902 71.999 17.999s41.667 27.667 57 47v279c-18 12.667 -37.833 22.834 -59.5 30.501s-44.5 11.5 -68.5 11.5s-46 -4.66699 -66 -14s-37.167 -22.5 -51.5 -39.5s-25.5 -37.5 -33.5 -61.5s-12 -50.333 -12 -79c0 -28 4 -53.833 12 -77.5
s19.333 -44 34 -61s31.834 -30.167 51.501 -39.5s41.167 -14 64.5 -14zM258.998 701.996c0 -16 4.33203 -29.667 12.999 -41s20.334 -17 35.001 -17c14 0 25.5 5.16699 34.5 15.5s13.5 24.5 13.5 42.5c0 15.333 -4.16699 28.833 -12.5 40.5s-20.166 17.5 -35.499 17.5
c-14.667 0 -26.334 -4.83301 -35.001 -14.5s-13 -24.167 -13 -43.5zM181.997 701.996c0 17.333 3.33301 33.333 10 48s15.667 27.334 27 38.001s24.5 19 39.5 25s31.167 9 48.5 9c16.667 0 32.667 -3 48 -9s28.666 -14.333 39.999 -25s20.333 -23.334 27 -38.001
s10 -30.667 10 -48s-3.33301 -33.333 -10 -48s-15.667 -27.334 -27 -38.001s-24.666 -19 -39.999 -25s-31.333 -9 -48 -9c-17.333 0 -33.5 3 -48.5 9s-28.167 14.333 -39.5 25s-20.333 23.334 -27 38.001s-10 30.667 -10 48z" />
    <glyph glyph-name="ae" unicode="&#xe6;" horiz-adv-x="904" 
d="M101 501c23.333 9.33301 46.835 16.834 70.502 22.501s50.5 8.5 80.5 8.5c48 0 88.833 -9.33301 122.5 -28s59.5 -47.667 77.5 -87c20.667 36.667 46.667 65 78 85s68 30 110 30c37.333 0 70 -6.33301 98 -19s51.333 -30 70 -52s32.667 -47.667 42 -77s14 -60.333 14 -93
c0 -23.333 -1 -46 -3 -68h-364c6 -48.667 23 -86.667 51 -114s65 -41 111 -41c30 0 57 3.16699 81 9.5s47 14.5 69 24.5l21 -77c-24 -11.333 -51 -20.333 -81 -27s-63.667 -10 -101 -10c-50 0 -91.667 10.667 -125 32s-60 51 -80 89c-22 -35.333 -49.833 -64.333 -83.5 -87
s-76.834 -34 -129.501 -34c-28.667 0 -54.667 4.16699 -78 12.5s-43.333 19.666 -60 33.999s-29.5 31.166 -38.5 50.499s-13.5 40.333 -13.5 63c0 26.667 5.5 50.667 16.5 72s26.167 39.5 45.5 54.5s42.666 26.5 69.999 34.5s57.333 12 90 12c28.667 0 54 -1.66699 76 -5
s44 -7.66602 66 -12.999c-6.66699 48 -23.834 85.167 -51.501 111.5s-64.167 39.5 -109.5 39.5c-24 0 -45.667 -2.66699 -65 -8s-38.666 -12.333 -57.999 -21zM241.002 68.001c20 0 39.167 3.49902 57.5 10.499s35 17.167 50 30.5s27.5 30.166 37.5 50.499
s16.333 43.833 19 70.5c-23.333 6.66699 -46 11.334 -68 14.001s-46 4 -72 4c-40.667 0 -73 -8.66699 -97 -26s-36 -39.666 -36 -66.999c0 -26 10.5 -47 31.5 -63s46.833 -24 77.5 -24zM638.002 454c-39.333 0 -71.5 -13.333 -96.5 -40s-40.167 -66 -45.5 -118h285
c0 50.667 -12.667 89.667 -38 117s-60.333 41 -105 41z" />
    <glyph glyph-name="ccedilla" unicode="&#xe7;" horiz-adv-x="472" 
d="M398 -148c0 -12.667 -2.83105 -24.667 -8.49805 -36s-14.167 -21.5 -25.5 -30.5s-25.666 -16.167 -42.999 -21.5s-37.333 -8 -60 -8c-18 0 -35.333 1.5 -52 4.5s-32.667 8.16699 -48 15.5l24 63c22 -11.333 46 -17 72 -17c17.333 0 31.666 3 42.999 9s17 15.333 17 28
c0 12 -7.83301 22.667 -23.5 32s-45.5 14 -89.5 14l32 88c-29.333 6 -55.833 16.667 -79.5 32s-43.834 34.5 -60.501 57.5s-29.334 49.5 -38.001 79.5s-13 62.667 -13 98c0 37.333 5.83301 72.5 17.5 105.5s28.5 61.833 50.5 86.5s48.5 44.167 79.5 58.5
s65.833 21.5 104.5 21.5c30 0 56 -2.66699 78 -8s43.333 -13 64 -23l-27 -76c-19.333 9.33301 -37.333 16.166 -54 20.499s-35.334 6.5 -56.001 6.5c-23.333 0 -45.166 -4.33301 -65.499 -13s-37.833 -21.167 -52.5 -37.5s-26.167 -36.166 -34.5 -59.499
s-12.5 -50 -12.5 -80c0 -27.333 3.83301 -52.666 11.5 -75.999s18.5 -43.833 32.5 -61.5s30.667 -31.5 50 -41.5s41 -15 65 -15c25.333 0 47 2.66699 65 8s37.333 13.666 58 24.999l28 -76c-20 -11.333 -41.667 -20 -65 -26s-50 -9.66699 -80 -11l-16 -47
c34 0 61.167 -7.33301 81.5 -22s30.5 -37 30.5 -67z" />
    <glyph glyph-name="egrave" unicode="&#xe8;" horiz-adv-x="544" 
d="M137 223c6 -48.667 22.999 -86.666 50.999 -113.999s65 -41 111 -41c30 0 57 3.16699 81 9.5s47 14.5 69 24.5l21 -77c-24 -11.333 -51 -20.333 -81 -27s-63.667 -10 -101 -10s-71 6.16699 -101 18.5s-55.5 30 -76.5 53s-37.167 51.333 -48.5 85s-17 72.167 -17 115.5
c0 38.667 5.66699 74.667 17 108s27.333 62.166 48 86.499s45.334 43.333 74.001 57s60.667 20.5 96 20.5c37.333 0 70 -6.33301 98 -19s51.333 -30 70 -52s32.667 -47.667 42 -77s14 -60.333 14 -93c0 -23.333 -1 -46 -3 -68h-364zM277.999 454.001
c-39.333 0 -71.5 -13.333 -96.5 -40s-40.167 -66 -45.5 -118h285c0 50.667 -12.667 89.667 -38 117s-60.333 41 -105 41zM371.999 575.001l-200 102l42 84l189 -125z" />
    <glyph glyph-name="eacute" unicode="&#xe9;" horiz-adv-x="544" 
d="M137 223c6 -48.667 22.999 -86.666 50.999 -113.999s65 -41 111 -41c30 0 57 3.16699 81 9.5s47 14.5 69 24.5l21 -77c-24 -11.333 -51 -20.333 -81 -27s-63.667 -10 -101 -10s-71 6.16699 -101 18.5s-55.5 30 -76.5 53s-37.167 51.333 -48.5 85s-17 72.167 -17 115.5
c0 38.667 5.66699 74.667 17 108s27.333 62.166 48 86.499s45.334 43.333 74.001 57s60.667 20.5 96 20.5c37.333 0 70 -6.33301 98 -19s51.333 -30 70 -52s32.667 -47.667 42 -77s14 -60.333 14 -93c0 -23.333 -1 -46 -3 -68h-364zM277.999 454.001
c-39.333 0 -71.5 -13.333 -96.5 -40s-40.167 -66 -45.5 -118h285c0 50.667 -12.667 89.667 -38 117s-60.333 41 -105 41zM172.999 636.001l189 125l42 -84l-200 -102z" />
    <glyph glyph-name="ecircumflex" unicode="&#xea;" horiz-adv-x="544" 
d="M137 223c6 -48.667 22.999 -86.666 50.999 -113.999s65 -41 111 -41c30 0 57 3.16699 81 9.5s47 14.5 69 24.5l21 -77c-24 -11.333 -51 -20.333 -81 -27s-63.667 -10 -101 -10s-71 6.16699 -101 18.5s-55.5 30 -76.5 53s-37.167 51.333 -48.5 85s-17 72.167 -17 115.5
c0 38.667 5.66699 74.667 17 108s27.333 62.166 48 86.499s45.334 43.333 74.001 57s60.667 20.5 96 20.5c37.333 0 70 -6.33301 98 -19s51.333 -30 70 -52s32.667 -47.667 42 -77s14 -60.333 14 -93c0 -23.333 -1 -46 -3 -68h-364zM277.999 454.001
c-39.333 0 -71.5 -13.333 -96.5 -40s-40.167 -66 -45.5 -118h285c0 50.667 -12.667 89.667 -38 117s-60.333 41 -105 41zM152.999 572.001l-47 74l146 94h64l146 -94l-47 -74l-131 105z" />
    <glyph glyph-name="edieresis" unicode="&#xeb;" horiz-adv-x="544" 
d="M137 223c6 -48.667 22.999 -86.666 50.999 -113.999s65 -41 111 -41c30 0 57 3.16699 81 9.5s47 14.5 69 24.5l21 -77c-24 -11.333 -51 -20.333 -81 -27s-63.667 -10 -101 -10s-71 6.16699 -101 18.5s-55.5 30 -76.5 53s-37.167 51.333 -48.5 85s-17 72.167 -17 115.5
c0 38.667 5.66699 74.667 17 108s27.333 62.166 48 86.499s45.334 43.333 74.001 57s60.667 20.5 96 20.5c37.333 0 70 -6.33301 98 -19s51.333 -30 70 -52s32.667 -47.667 42 -77s14 -60.333 14 -93c0 -23.333 -1 -46 -3 -68h-364zM277.999 454.001
c-39.333 0 -71.5 -13.333 -96.5 -40s-40.167 -66 -45.5 -118h285c0 50.667 -12.667 89.667 -38 117s-60.333 41 -105 41zM194.999 607.001c-16.667 0 -30.834 6 -42.501 18s-17.5 26 -17.5 42c0 18 5.33301 32.5 16 43.5s25.334 16.5 44.001 16.5
c16.667 0 30.834 -6 42.501 -18s17.5 -26 17.5 -42c0 -18 -5.33301 -32.5 -16 -43.5s-25.334 -16.5 -44.001 -16.5zM376.999 607.001c-16.667 0 -30.834 6 -42.501 18s-17.5 26 -17.5 42c0 18 5.33301 32.5 16 43.5s25.334 16.5 44.001 16.5c16.667 0 30.834 -6 42.501 -18
s17.5 -26 17.5 -42c0 -18 -5.33301 -32.5 -16 -43.5s-25.334 -16.5 -44.001 -16.5z" />
    <glyph glyph-name="igrave" unicode="&#xec;" horiz-adv-x="250" 
d="M170 0h-90v520h90v-520zM214 575l-200 102l42 84l189 -125z" />
    <glyph glyph-name="iacute" unicode="&#xed;" horiz-adv-x="250" 
d="M170 0h-90v520h90v-520zM12 636l189 125l42 -84l-200 -102z" />
    <glyph glyph-name="icircumflex" unicode="&#xee;" horiz-adv-x="250" 
d="M170 0h-90v520h90v-520zM-5 572l-47 74l146 94h64l146 -94l-47 -74l-131 105z" />
    <glyph glyph-name="idieresis" unicode="&#xef;" horiz-adv-x="250" 
d="M170 0h-90v520h90v-520zM35 607c-16.667 0 -30.834 6 -42.501 18s-17.5 26 -17.5 42c0 18 5.33301 32.5 16 43.5s25.334 16.5 44.001 16.5c16.667 0 30.834 -6 42.501 -18s17.5 -26 17.5 -42c0 -18 -5.33301 -32.5 -16 -43.5s-25.334 -16.5 -44.001 -16.5zM217 607
c-16.667 0 -30.834 6 -42.501 18s-17.5 26 -17.5 42c0 18 5.33301 32.5 16 43.5s25.334 16.5 44.001 16.5c16.667 0 30.834 -6 42.501 -18s17.5 -26 17.5 -42c0 -18 -5.33301 -32.5 -16 -43.5s-25.334 -16.5 -44.001 -16.5z" />
    <glyph glyph-name="eth" unicode="&#xf0;" horiz-adv-x="532" 
d="M182 545l58.999 67c-34.667 14.667 -71.334 22 -110.001 22c-5.33301 0 -11.333 -0.166992 -18 -0.5s-12.667 -0.833008 -18 -1.5v81c5.33301 0.666992 11.5 1.16699 18.5 1.5s13.167 0.5 18.5 0.5c58.667 0 113.334 -12.333 164.001 -37l61 80l57 -47l-60 -69
c42.667 -32 76.334 -73.5 101.001 -124.5s37 -109.5 37 -175.5c0 -52.667 -5.5 -100.834 -16.5 -144.501s-27.167 -81 -48.5 -112s-47.666 -55 -78.999 -72s-67 -25.5 -107 -25.5c-28 0 -55 4.83301 -81 14.5s-49 23.834 -69 42.501s-36 41.667 -48 69s-18 58.333 -18 93
s6 66 18 94s27.833 51.833 47.5 71.5s42.167 34.667 67.5 45s51.666 15.5 78.999 15.5c36 0 67.333 -6.66699 94 -20s49.667 -29 69 -47c-2 45.333 -11.833 86 -29.5 122s-41.5 65.667 -71.5 89l-59 -79zM247.999 68c43.333 0 78.002 18.167 104.002 54.5
s42 91.833 48 166.5c-19.333 19.333 -41.333 35.5 -66 48.5s-51.667 19.5 -81 19.5c-18 0 -35.333 -3.16699 -52 -9.5s-31.334 -15.5 -44.001 -27.5s-22.834 -27 -30.501 -45s-11.5 -38.333 -11.5 -61c0 -23.333 3.5 -44 10.5 -62s16.5 -33.333 28.5 -46
s26 -22.167 42 -28.5s33.333 -9.5 52 -9.5z" />
    <glyph glyph-name="ntilde" unicode="&#xf1;" horiz-adv-x="592" 
d="M167 433c18.667 28 42.502 51.5 71.502 70.5s63.5 28.5 103.5 28.5c58.667 0 102.5 -17.667 131.5 -53s43.5 -82 43.5 -140v-339h-90v329c0 38 -8.66699 68.167 -26 90.5s-42 33.5 -74 33.5c-15.333 0 -30.333 -2.83301 -45 -8.5s-28.834 -13.5 -42.501 -23.5
s-26.334 -21.667 -38.001 -35s-22.167 -27.333 -31.5 -42v-344h-90v520h87v-87zM469.002 656c-12 -11.333 -25.833 -21.834 -41.5 -31.501s-33.834 -14.5 -54.501 -14.5c-13.333 0 -24.833 1.83301 -34.5 5.5s-18.834 7.5 -27.501 11.5s-17.5 7.83301 -26.5 11.5
s-19.167 5.5 -30.5 5.5c-14.667 0 -28 -3.66699 -40 -11s-23 -15.666 -33 -24.999l-35 62c12 13.333 27.333 25.333 46 36s38 16 58 16c12.667 0 23.834 -1.83301 33.501 -5.5s18.667 -7.5 27 -11.5s16.833 -7.83301 25.5 -11.5s18.334 -5.5 29.001 -5.5
c14.667 0 27.667 3.16699 39 9.5s21.333 13.5 30 21.5z" />
    <glyph glyph-name="ograve" unicode="&#xf2;" horiz-adv-x="598" 
d="M466 260c0 26 -4.16699 50.6699 -12.5 74.0029s-20 43.666 -35 60.999s-32.667 31.166 -53 41.499s-42.5 15.5 -66.5 15.5c-52.667 0 -93.667 -17.333 -123 -52s-44 -80.667 -44 -138c0 -26 4.16699 -50.833 12.5 -74.5s20 -44.334 35 -62.001s32.667 -31.667 53 -42
s42.5 -15.5 66.5 -15.5c26 0 49.333 4.66699 70 14s38.167 22.5 52.5 39.5s25.333 37.167 33 60.5s11.5 49.333 11.5 78zM40 260.003c0 42 6.66797 79.8311 20.001 113.498s31.5 62.167 54.5 85.5s50.333 41.333 82 54s65.834 19 102.501 19c36 0 69.833 -6.33301 101.5 -19
s59.167 -30.667 82.5 -54s41.666 -51.666 54.999 -84.999s20 -70.666 20 -111.999s-6.5 -78.833 -19.5 -112.5s-31.167 -62.5 -54.5 -86.5s-50.833 -42.5 -82.5 -55.5s-65.834 -19.5 -102.501 -19.5c-37.333 0 -71.833 6.66699 -103.5 20s-59 32 -82 56s-41 52.667 -54 86
s-19.5 70 -19.5 110zM386.001 575.001l-200 102l42 84l189 -125z" />
    <glyph glyph-name="oacute" unicode="&#xf3;" horiz-adv-x="598" 
d="M466 260c0 26 -4.16699 50.6699 -12.5 74.0029s-20 43.666 -35 60.999s-32.667 31.166 -53 41.499s-42.5 15.5 -66.5 15.5c-52.667 0 -93.667 -17.333 -123 -52s-44 -80.667 -44 -138c0 -26 4.16699 -50.833 12.5 -74.5s20 -44.334 35 -62.001s32.667 -31.667 53 -42
s42.5 -15.5 66.5 -15.5c26 0 49.333 4.66699 70 14s38.167 22.5 52.5 39.5s25.333 37.167 33 60.5s11.5 49.333 11.5 78zM40 260.003c0 42 6.66797 79.8311 20.001 113.498s31.5 62.167 54.5 85.5s50.333 41.333 82 54s65.834 19 102.501 19c36 0 69.833 -6.33301 101.5 -19
s59.167 -30.667 82.5 -54s41.666 -51.666 54.999 -84.999s20 -70.666 20 -111.999s-6.5 -78.833 -19.5 -112.5s-31.167 -62.5 -54.5 -86.5s-50.833 -42.5 -82.5 -55.5s-65.834 -19.5 -102.501 -19.5c-37.333 0 -71.833 6.66699 -103.5 20s-59 32 -82 56s-41 52.667 -54 86
s-19.5 70 -19.5 110zM196.001 636.001l189 125l42 -84l-200 -102z" />
    <glyph glyph-name="ocircumflex" unicode="&#xf4;" horiz-adv-x="598" 
d="M466 260c0 26 -4.16699 50.6699 -12.5 74.0029s-20 43.666 -35 60.999s-32.667 31.166 -53 41.499s-42.5 15.5 -66.5 15.5c-52.667 0 -93.667 -17.333 -123 -52s-44 -80.667 -44 -138c0 -26 4.16699 -50.833 12.5 -74.5s20 -44.334 35 -62.001s32.667 -31.667 53 -42
s42.5 -15.5 66.5 -15.5c26 0 49.333 4.66699 70 14s38.167 22.5 52.5 39.5s25.333 37.167 33 60.5s11.5 49.333 11.5 78zM40 260.003c0 42 6.66797 79.8311 20.001 113.498s31.5 62.167 54.5 85.5s50.333 41.333 82 54s65.834 19 102.501 19c36 0 69.833 -6.33301 101.5 -19
s59.167 -30.667 82.5 -54s41.666 -51.666 54.999 -84.999s20 -70.666 20 -111.999s-6.5 -78.833 -19.5 -112.5s-31.167 -62.5 -54.5 -86.5s-50.833 -42.5 -82.5 -55.5s-65.834 -19.5 -102.501 -19.5c-37.333 0 -71.833 6.66699 -103.5 20s-59 32 -82 56s-41 52.667 -54 86
s-19.5 70 -19.5 110zM162.001 572.001l-47 74l146 94h64l146 -94l-47 -74l-131 105z" />
    <glyph glyph-name="otilde" unicode="&#xf5;" horiz-adv-x="598" 
d="M466 260c0 26 -4.16699 50.6699 -12.5 74.0029s-20 43.666 -35 60.999s-32.667 31.166 -53 41.499s-42.5 15.5 -66.5 15.5c-52.667 0 -93.667 -17.333 -123 -52s-44 -80.667 -44 -138c0 -26 4.16699 -50.833 12.5 -74.5s20 -44.334 35 -62.001s32.667 -31.667 53 -42
s42.5 -15.5 66.5 -15.5c26 0 49.333 4.66699 70 14s38.167 22.5 52.5 39.5s25.333 37.167 33 60.5s11.5 49.333 11.5 78zM40 260.003c0 42 6.66797 79.8311 20.001 113.498s31.5 62.167 54.5 85.5s50.333 41.333 82 54s65.834 19 102.501 19c36 0 69.833 -6.33301 101.5 -19
s59.167 -30.667 82.5 -54s41.666 -51.666 54.999 -84.999s20 -70.666 20 -111.999s-6.5 -78.833 -19.5 -112.5s-31.167 -62.5 -54.5 -86.5s-50.833 -42.5 -82.5 -55.5s-65.834 -19.5 -102.501 -19.5c-37.333 0 -71.833 6.66699 -103.5 20s-59 32 -82 56s-41 52.667 -54 86
s-19.5 70 -19.5 110zM457.001 656.001c-12 -11.333 -25.833 -21.834 -41.5 -31.501s-33.834 -14.5 -54.501 -14.5c-13.333 0 -24.833 1.83301 -34.5 5.5s-18.834 7.5 -27.501 11.5s-17.5 7.83301 -26.5 11.5s-19.167 5.5 -30.5 5.5c-14.667 0 -28 -3.66699 -40 -11
s-23 -15.666 -33 -24.999l-35 62c12 13.333 27.333 25.333 46 36s38 16 58 16c12.667 0 23.834 -1.83301 33.501 -5.5s18.667 -7.5 27 -11.5s16.833 -7.83301 25.5 -11.5s18.334 -5.5 29.001 -5.5c14.667 0 27.667 3.16699 39 9.5s21.333 13.5 30 21.5z" />
    <glyph glyph-name="odieresis" unicode="&#xf6;" horiz-adv-x="598" 
d="M466 260c0 26 -4.16699 50.6699 -12.5 74.0029s-20 43.666 -35 60.999s-32.667 31.166 -53 41.499s-42.5 15.5 -66.5 15.5c-52.667 0 -93.667 -17.333 -123 -52s-44 -80.667 -44 -138c0 -26 4.16699 -50.833 12.5 -74.5s20 -44.334 35 -62.001s32.667 -31.667 53 -42
s42.5 -15.5 66.5 -15.5c26 0 49.333 4.66699 70 14s38.167 22.5 52.5 39.5s25.333 37.167 33 60.5s11.5 49.333 11.5 78zM40 260.003c0 42 6.66797 79.8311 20.001 113.498s31.5 62.167 54.5 85.5s50.333 41.333 82 54s65.834 19 102.501 19c36 0 69.833 -6.33301 101.5 -19
s59.167 -30.667 82.5 -54s41.666 -51.666 54.999 -84.999s20 -70.666 20 -111.999s-6.5 -78.833 -19.5 -112.5s-31.167 -62.5 -54.5 -86.5s-50.833 -42.5 -82.5 -55.5s-65.834 -19.5 -102.501 -19.5c-37.333 0 -71.833 6.66699 -103.5 20s-59 32 -82 56s-41 52.667 -54 86
s-19.5 70 -19.5 110zM209.001 607.001c-16.667 0 -30.834 6 -42.501 18s-17.5 26 -17.5 42c0 18 5.33301 32.5 16 43.5s25.334 16.5 44.001 16.5c16.667 0 30.834 -6 42.501 -18s17.5 -26 17.5 -42c0 -18 -5.33301 -32.5 -16 -43.5s-25.334 -16.5 -44.001 -16.5z
M391.001 607.001c-16.667 0 -30.834 6 -42.501 18s-17.5 26 -17.5 42c0 18 5.33301 32.5 16 43.5s25.334 16.5 44.001 16.5c16.667 0 30.834 -6 42.501 -18s17.5 -26 17.5 -42c0 -18 -5.33301 -32.5 -16 -43.5s-25.334 -16.5 -44.001 -16.5z" />
    <glyph glyph-name="divide" unicode="&#xf7;" 
d="M130 302v82h340v-82h-340zM234 548c0 20.667 5.83301 37 17.5 49s28.167 18 49.5 18c17.333 0 32.833 -6.66699 46.5 -20s20.5 -29 20.5 -47c0 -20 -6.33301 -36.167 -19 -48.5s-28.667 -18.5 -48 -18.5c-18 0 -33.667 6.66699 -47 20s-20 29 -20 47zM234 138
c0 20.667 5.83301 37 17.5 49s28.167 18 49.5 18c17.333 0 32.833 -6.66699 46.5 -20s20.5 -29 20.5 -47c0 -20 -6.33301 -36.167 -19 -48.5s-28.667 -18.5 -48 -18.5c-18 0 -33.667 6.66699 -47 20s-20 29 -20 47z" />
    <glyph glyph-name="oslash" unicode="&#xf8;" horiz-adv-x="598" 
d="M40 260c0 42 6.66699 79.834 20 113.501s31.5 62.167 54.5 85.5s50.333 41.333 82 54s65.834 19 102.501 19c28 0 54.667 -4 80 -12l55 117l71 -37l-61 -110c34.667 -22.667 62.334 -53.334 83.001 -92.001s31 -84 31 -136c0 -41.333 -6.5 -78.833 -19.5 -112.5
s-31.167 -62.5 -54.5 -86.5s-50.833 -42.5 -82.5 -55.5s-65.834 -19.5 -102.501 -19.5c-32.667 0 -62.334 4.66699 -89.001 14l-56 -121l-71 37l65 116c-34 23.333 -60.5 54.333 -79.5 93s-28.5 83 -28.5 133zM466 260.001c0 30 -5.66602 58.166 -16.999 84.499
s-26.666 48.5 -45.999 66.5l-157 -334c7.33301 -3.33301 15.666 -5.66602 24.999 -6.99902s18.666 -2 27.999 -2c26 0 49.333 4.66699 70 14s38.167 22.5 52.5 39.5s25.333 37.167 33 60.5s11.5 49.333 11.5 78zM132.001 262c0 -29.333 5 -56.667 15 -82s24 -47 42 -65
l155 330c-6 2 -13 3.66699 -21 5s-16 2 -24 2c-52.667 0 -93.667 -17.333 -123 -52s-44 -80.667 -44 -138z" />
    <glyph glyph-name="ugrave" unicode="&#xf9;" horiz-adv-x="604" 
d="M545 -5c-32 0 -57.3311 6.33398 -75.998 19.001s-31.667 31 -39 55c-23.333 -24 -50.166 -43.5 -80.499 -58.5s-63.5 -22.5 -99.5 -22.5c-22.667 0 -44.5 3.5 -65.5 10.5s-39.667 18.167 -56 33.5s-29.333 35.333 -39 60s-14.5 54.667 -14.5 90v338h90v-326
c0 -40.667 8.5 -71.834 25.5 -93.501s42.5 -32.5 76.5 -32.5c28 0 54.667 5.5 80 16.5s48 25.833 68 44.5v391h90v-385c0 -14.667 1.66699 -26.5 5 -35.5s7.66602 -16 12.999 -21s11.666 -8.5 18.999 -10.5s14.666 -3 21.999 -3zM368.002 575.001l-200 102l42 84l189 -125z
" />
    <glyph glyph-name="uacute" unicode="&#xfa;" horiz-adv-x="604" 
d="M545 -5c-32 0 -57.3311 6.33398 -75.998 19.001s-31.667 31 -39 55c-23.333 -24 -50.166 -43.5 -80.499 -58.5s-63.5 -22.5 -99.5 -22.5c-22.667 0 -44.5 3.5 -65.5 10.5s-39.667 18.167 -56 33.5s-29.333 35.333 -39 60s-14.5 54.667 -14.5 90v338h90v-326
c0 -40.667 8.5 -71.834 25.5 -93.501s42.5 -32.5 76.5 -32.5c28 0 54.667 5.5 80 16.5s48 25.833 68 44.5v391h90v-385c0 -14.667 1.66699 -26.5 5 -35.5s7.66602 -16 12.999 -21s11.666 -8.5 18.999 -10.5s14.666 -3 21.999 -3zM191.002 636.001l189 125l42 -84l-200 -102z
" />
    <glyph glyph-name="ucircumflex" unicode="&#xfb;" horiz-adv-x="604" 
d="M545 -5c-32 0 -57.3311 6.33398 -75.998 19.001s-31.667 31 -39 55c-23.333 -24 -50.166 -43.5 -80.499 -58.5s-63.5 -22.5 -99.5 -22.5c-22.667 0 -44.5 3.5 -65.5 10.5s-39.667 18.167 -56 33.5s-29.333 35.333 -39 60s-14.5 54.667 -14.5 90v338h90v-326
c0 -40.667 8.5 -71.834 25.5 -93.501s42.5 -32.5 76.5 -32.5c28 0 54.667 5.5 80 16.5s48 25.833 68 44.5v391h90v-385c0 -14.667 1.66699 -26.5 5 -35.5s7.66602 -16 12.999 -21s11.666 -8.5 18.999 -10.5s14.666 -3 21.999 -3zM163.002 572.001l-47 74l146 94h64l146 -94
l-47 -74l-131 105z" />
    <glyph glyph-name="udieresis" unicode="&#xfc;" horiz-adv-x="604" 
d="M545 -5c-32 0 -57.3311 6.33398 -75.998 19.001s-31.667 31 -39 55c-23.333 -24 -50.166 -43.5 -80.499 -58.5s-63.5 -22.5 -99.5 -22.5c-22.667 0 -44.5 3.5 -65.5 10.5s-39.667 18.167 -56 33.5s-29.333 35.333 -39 60s-14.5 54.667 -14.5 90v338h90v-326
c0 -40.667 8.5 -71.834 25.5 -93.501s42.5 -32.5 76.5 -32.5c28 0 54.667 5.5 80 16.5s48 25.833 68 44.5v391h90v-385c0 -14.667 1.66699 -26.5 5 -35.5s7.66602 -16 12.999 -21s11.666 -8.5 18.999 -10.5s14.666 -3 21.999 -3zM203.002 607.001
c-16.667 0 -30.834 6 -42.501 18s-17.5 26 -17.5 42c0 18 5.33301 32.5 16 43.5s25.334 16.5 44.001 16.5c16.667 0 30.834 -6 42.501 -18s17.5 -26 17.5 -42c0 -18 -5.33301 -32.5 -16 -43.5s-25.334 -16.5 -44.001 -16.5zM385.002 607.001c-16.667 0 -30.834 6 -42.501 18
s-17.5 26 -17.5 42c0 18 5.33301 32.5 16 43.5s25.334 16.5 44.001 16.5c16.667 0 30.834 -6 42.501 -18s17.5 -26 17.5 -42c0 -18 -5.33301 -32.5 -16 -43.5s-25.334 -16.5 -44.001 -16.5z" />
    <glyph glyph-name="yacute" unicode="&#xfd;" horiz-adv-x="523" 
d="M93 -232c-20 0 -37.4961 2 -52.4961 6s-26.833 8.66699 -35.5 14l20 75c8 -4.66699 17.833 -8.66699 29.5 -12s25.167 -5 40.5 -5c14 0 27.167 2 39.5 6s24.166 11 35.499 21s22.166 23.667 32.499 41s20.5 39 30.5 65l23 60h-48l-203 457l80 36l194 -433l151 429l83 -32
l-191 -522c-14.667 -40 -30.167 -73.167 -46.5 -99.5s-33.833 -47.5 -52.5 -63.5s-38.834 -27.167 -60.501 -33.5s-44.834 -9.5 -69.501 -9.5zM170.004 636l189 125l42 -84l-200 -102z" />
    <glyph glyph-name="thorn" unicode="&#xfe;" horiz-adv-x="594" 
d="M80 -220l-0.000976562 919.999h90v-234c6.66699 7.33301 15 15 25 23s21.167 15.167 33.5 21.5s26.166 11.5 41.499 15.5s32 6 50 6c30 0 58.833 -6 86.5 -18s52 -29.333 73 -52s37.833 -50.667 50.5 -84s19 -71 19 -113c0 -41.333 -6.16699 -79 -18.5 -113
s-29 -63.167 -50 -87.5s-45.167 -43.166 -72.5 -56.499s-56 -20 -86 -20c-31.333 0 -60.166 6.16699 -86.499 18.5s-48.166 26.5 -65.499 42.5v-269h-90zM456.999 261.999c0 30 -4.16797 56.8311 -12.501 80.498s-19.666 43.834 -33.999 60.501s-31 29.334 -50 38.001
s-39.167 13 -60.5 13c-28.667 0 -54.5 -7.16699 -77.5 -21.5s-40.5 -29.833 -52.5 -46.5v-256c17.333 -18 37.166 -32.833 59.499 -44.5s47.166 -17.5 74.499 -17.5c22.667 0 43.334 4.66699 62.001 14s34.834 22.5 48.501 39.5s24.167 37.333 31.5 61s11 50.167 11 79.5z
" />
    <glyph glyph-name="ydieresis" unicode="&#xff;" horiz-adv-x="523" 
d="M93 -232c-20 0 -37.4961 2 -52.4961 6s-26.833 8.66699 -35.5 14l20 75c8 -4.66699 17.833 -8.66699 29.5 -12s25.167 -5 40.5 -5c14 0 27.167 2 39.5 6s24.166 11 35.499 21s22.166 23.667 32.499 41s20.5 39 30.5 65l23 60h-48l-203 457l80 36l194 -433l151 429l83 -32
l-191 -522c-14.667 -40 -30.167 -73.167 -46.5 -99.5s-33.833 -47.5 -52.5 -63.5s-38.834 -27.167 -60.501 -33.5s-44.834 -9.5 -69.501 -9.5zM178.004 607c-16.667 0 -30.834 6 -42.501 18s-17.5 26 -17.5 42c0 18 5.33301 32.5 16 43.5s25.334 16.5 44.001 16.5
c16.667 0 30.834 -6 42.501 -18s17.5 -26 17.5 -42c0 -18 -5.33301 -32.5 -16 -43.5s-25.334 -16.5 -44.001 -16.5zM360.004 607c-16.667 0 -30.834 6 -42.501 18s-17.5 26 -17.5 42c0 18 5.33301 32.5 16 43.5s25.334 16.5 44.001 16.5c16.667 0 30.834 -6 42.501 -18
s17.5 -26 17.5 -42c0 -18 -5.33301 -32.5 -16 -43.5s-25.334 -16.5 -44.001 -16.5z" />
    <glyph glyph-name="hbar" unicode="&#x127;" horiz-adv-x="601" 
d="M179 651h122.001v-66h-122v-148c18.667 27.333 42.167 50 70.5 68s62.166 27 101.499 27c58.667 0 102.5 -17.667 131.5 -53s43.5 -82 43.5 -140v-339h-90v329c0 38 -8.5 68.167 -25.5 90.5s-41.5 33.5 -73.5 33.5c-15.333 0 -30.5 -2.83301 -45.5 -8.5
s-29.167 -13.5 -42.5 -23.5s-26 -21.667 -38 -35s-22.667 -27.333 -32 -42v-344h-90v585h-79v66h79v89h90v-89z" />
    <glyph glyph-name="Itilde" unicode="&#x128;" horiz-adv-x="275" 
d="M90 0v700h95v-700h-95zM296 806c-12 -11.333 -25.833 -21.834 -41.5 -31.501s-33.834 -14.5 -54.501 -14.5c-13.333 0 -24.833 1.83301 -34.5 5.5s-18.834 7.5 -27.501 11.5s-17.5 7.83301 -26.5 11.5s-19.167 5.5 -30.5 5.5c-14.667 0 -28 -3.66699 -40 -11
s-23 -15.666 -33 -24.999l-35 62c12 13.333 27.333 25.333 46 36s38 16 58 16c12.667 0 23.834 -1.83301 33.501 -5.5s18.667 -7.5 27 -11.5s16.833 -7.83301 25.5 -11.5s18.334 -5.5 29.001 -5.5c14.667 0 27.667 3.16699 39 9.5s21.333 13.5 30 21.5z" />
    <glyph glyph-name="itilde" unicode="&#x129;" horiz-adv-x="250" 
d="M170 0h-90v520h90v-520zM288 656c-12 -11.333 -25.833 -21.834 -41.5 -31.501s-33.834 -14.5 -54.501 -14.5c-13.333 0 -24.833 1.83301 -34.5 5.5s-18.834 7.5 -27.501 11.5s-17.5 7.83301 -26.5 11.5s-19.167 5.5 -30.5 5.5c-14.667 0 -28 -3.66699 -40 -11
s-23 -15.666 -33 -24.999l-35 62c12 13.333 27.333 25.333 46 36s38 16 58 16c12.667 0 23.834 -1.83301 33.501 -5.5s18.667 -7.5 27 -11.5s16.833 -7.83301 25.5 -11.5s18.334 -5.5 29.001 -5.5c14.667 0 27.667 3.16699 39 9.5s21.333 13.5 30 21.5z" />
    <glyph glyph-name="dotlessi" unicode="&#x131;" horiz-adv-x="250" 
d="M170 0h-90v520h90v-520z" />
    <glyph glyph-name="IJ" unicode="&#x132;" horiz-adv-x="705" 
d="M90 0v700h95v-700h-95zM530 700l94.999 0.00195312v-469c0 -42.667 -4.66699 -79.334 -14 -110.001s-22.666 -55.834 -39.999 -75.501s-38 -34.167 -62 -43.5s-50.667 -14 -80 -14c-30.667 0 -59.5 5.33301 -86.5 16s-49.5 24.667 -67.5 42l46 73
c13.333 -14 29.333 -25.667 48 -35s37.667 -14 57 -14c32 0 57.333 11.333 76 34s28 61.667 28 117v479z" />
    <glyph glyph-name="ij" unicode="&#x133;" horiz-adv-x="509" 
d="M169 0h-90v520h90v-520zM124 609c-17.333 0 -32.166 6.16699 -44.499 18.5s-18.5 27.166 -18.5 44.499c0 19.333 5.66699 34.666 17 45.999s26.666 17 45.999 17c17.333 0 32.166 -6.16699 44.499 -18.5s18.5 -27.166 18.5 -44.499
c0 -19.333 -5.66699 -34.666 -17 -45.999s-26.666 -17 -45.999 -17zM341 520h90.001v-577c0 -30.667 -4.33301 -57 -13 -79s-20.334 -40.167 -35.001 -54.5s-32 -24.833 -52 -31.5s-41.333 -10 -64 -10c-40.667 0 -74.667 7.66699 -102 23l22 75
c8.66699 -5.33301 19.167 -10 31.5 -14s24.833 -6 37.5 -6c56.667 0 85 35.333 85 106v568zM386.001 609c-17.333 0 -32.166 6.16699 -44.499 18.5s-18.5 27.166 -18.5 44.499c0 19.333 5.66699 34.666 17 45.999s26.666 17 45.999 17
c17.333 0 32.166 -6.16699 44.499 -18.5s18.5 -27.166 18.5 -44.499c0 -19.333 -5.66699 -34.666 -17 -45.999s-26.666 -17 -45.999 -17z" />
    <glyph glyph-name="Jcircumflex" unicode="&#x134;" horiz-adv-x="430" 
d="M255 700l94.999 0.00195312v-469c0 -42.667 -4.66699 -79.334 -14 -110.001s-22.666 -55.834 -39.999 -75.501s-38 -34.167 -62 -43.5s-50.667 -14 -80 -14c-30.667 0 -59.5 5.33301 -86.5 16s-49.5 24.667 -67.5 42l46 73c13.333 -14 29.333 -25.667 48 -35
s37.667 -14 57 -14c32 0 57.333 11.333 76 34s28 61.667 28 117v479zM165.999 742.002l-43 78l147 80h64l146 -80l-43 -78l-135 95z" />
    <glyph glyph-name="jcircumflex" unicode="&#x135;" horiz-adv-x="261" 
d="M6 572l-47 74l146 94h64l146 -94l-47 -74l-131 105zM91 -48l0.000976562 568h90v-577c0 -30.667 -4.33301 -57 -13 -79s-20.334 -40.167 -35.001 -54.5s-32 -24.833 -52 -31.5s-41.333 -10 -64 -10c-40.667 0 -74.667 7.66699 -102 23l22 75
c8.66699 -5.33301 19.167 -10 31.5 -14s24.833 -6 37.5 -6c56.667 0 85 35.333 85 106z" />
    <glyph glyph-name="kcommaaccent" unicode="&#x137;" horiz-adv-x="511" 
d="M80 740h90v-423l235 213l52 -57l-201 -178l245 -245l-62 -60l-269 277v-267h-90v740zM333 -33c-6 -44 -19.5 -81.833 -40.5 -113.5s-47.5 -57.5 -79.5 -77.5l-42 24c22.667 28.667 41 57.667 55 87s24.667 63 32 101z" />
    <glyph glyph-name="kgreenlandic" unicode="&#x138;" horiz-adv-x="497" 
d="M80 520h90v-225l228 232l56 -56l-202 -197l235 -220l-61 -61l-256 253v-246h-90v520z" />
    <glyph glyph-name="Ldotaccent" unicode="&#x13f;" horiz-adv-x="511" 
d="M506 0h-416v700h95v-615h321v-85zM333 297c-17.333 0 -32.166 6.16699 -44.499 18.5s-18.5 27.166 -18.5 44.499c0 19.333 5.66699 34.666 17 45.999s26.666 17 45.999 17c17.333 0 32.166 -6.16699 44.499 -18.5s18.5 -27.166 18.5 -44.499
c0 -19.333 -5.66699 -34.666 -17 -45.999s-26.666 -17 -45.999 -17z" />
    <glyph glyph-name="ldot" unicode="&#x140;" horiz-adv-x="388" 
d="M165 172c0 -36 7.50098 -62.667 22.501 -80s35.833 -26 62.5 -26c12.667 0 25 1.5 37 4.5s22.667 6.5 32 10.5l22 -73c-12 -5.33301 -26.833 -10 -44.5 -14s-37.167 -6 -58.5 -6c-23.333 0 -44.833 3.33301 -64.5 10s-36.834 17 -51.501 31s-26.167 32 -34.5 54
s-12.5 48.667 -12.5 80v577h90v-568zM229.001 355c0 20.667 5.83301 37 17.5 49s28.167 18 49.5 18c17.333 0 32.833 -6.66699 46.5 -20s20.5 -29 20.5 -47c0 -20 -6.33301 -36.167 -19 -48.5s-28.667 -18.5 -48 -18.5c-18 0 -33.667 6.66699 -47 20s-20 29 -20 47z" />
    <glyph glyph-name="Lslash" unicode="&#x141;" horiz-adv-x="524" 
d="M519 0h-416v267l-70 -28l-28 68l98 39v354h95v-316l210 85l28 -68l-238 -96v-220h321v-85z" />
    <glyph glyph-name="lslash" unicode="&#x142;" horiz-adv-x="371" 
d="M180 439l125.001 58l31 -67l-156 -72v-186c0 -36 7.5 -62.667 22.5 -80s35.833 -26 62.5 -26c12.667 0 25 1.5 37 4.5s22.667 6.5 32 10.5l22 -73c-12 -5.33301 -26.833 -10 -44.5 -14s-37.167 -6 -58.5 -6c-23.333 0 -44.833 3.33301 -64.5 10s-36.834 17 -51.501 31
s-26.167 32 -34.5 54s-12.5 48.667 -12.5 80v153l-59 -27l-31 67l90 42v342h90v-301z" />
    <glyph glyph-name="Nacute" unicode="&#x143;" horiz-adv-x="705" 
d="M180 578v-578h-90v700h126l309 -582v582h90v-700h-124zM253 795l189 125l42 -84l-200 -102z" />
    <glyph glyph-name="nacute" unicode="&#x144;" horiz-adv-x="592" 
d="M167 433c18.667 28 42.502 51.5 71.502 70.5s63.5 28.5 103.5 28.5c58.667 0 102.5 -17.667 131.5 -53s43.5 -82 43.5 -140v-339h-90v329c0 38 -8.66699 68.167 -26 90.5s-42 33.5 -74 33.5c-15.333 0 -30.333 -2.83301 -45 -8.5s-28.834 -13.5 -42.501 -23.5
s-26.334 -21.667 -38.001 -35s-22.167 -27.333 -31.5 -42v-344h-90v520h87v-87zM200.002 636l189 125l42 -84l-200 -102z" />
    <glyph glyph-name="OE" unicode="&#x152;" horiz-adv-x="918" 
d="M370 712c18.667 0 39 -1.16699 61 -3.5s43 -5.16602 63 -8.49902h379v-82h-318v-213h273v-80h-273v-243h318v-82h-380l-28 -4.5c-10.667 -1.66699 -21.5 -3 -32.5 -4s-22 -1.83301 -33 -2.5s-20.833 -1 -29.5 -1c-52 0 -98.333 9.5 -139 28.5s-75.167 45 -103.5 78
s-50 71.5 -65 115.5s-22.5 91 -22.5 141c0 51.333 7.5 99 22.5 143s36.667 82.167 65 114.5s62.833 57.666 103.5 75.999s87 27.5 139 27.5zM370 70c17.333 0 33.499 0.832031 48.499 2.49902s29.833 4.5 44.5 8.5v537c-16 4.66699 -31.167 7.83398 -45.5 9.50098
s-30.166 2.5 -47.499 2.5c-36.667 0 -69.5 -7.16699 -98.5 -21.5s-53.5 -34 -73.5 -59s-35.167 -54.5 -45.5 -88.5s-15.5 -70.667 -15.5 -110c0 -36 5.16699 -71 15.5 -105s25.5 -64 45.5 -90s44.5 -46.833 73.5 -62.5s61.833 -23.5 98.5 -23.5z" />
    <glyph glyph-name="oe" unicode="&#x153;" horiz-adv-x="963" 
d="M40 260c0 42 6.66797 79.833 20.001 113.5s31.666 62.167 54.999 85.5s50.666 41.333 81.999 54s65.333 19 102 19c47.333 0 88.333 -10.167 123 -30.5s63.667 -48.5 87 -84.5c42.667 76.667 106 115 190 115c37.333 0 70 -6.33301 98 -19s51.333 -30 70 -52
s32.667 -47.667 42 -77s14 -60.333 14 -93c0 -23.333 -1 -46 -3 -68h-364c6 -48.667 23 -86.667 51 -114s65 -41 111 -41c30 0 57 3.16699 81 9.5s47 14.5 69 24.5l21 -77c-24 -11.333 -51 -20.333 -81 -27s-63.667 -10 -101 -10c-50 0 -91.667 10.833 -125 32.5
s-59.666 51.167 -78.999 88.5c-21.333 -36 -49 -65.167 -83 -87.5s-75 -33.5 -123 -33.5c-36.667 0 -70.667 6.66699 -102 20s-58.5 32 -81.5 56s-41 52.667 -54 86s-19.5 70 -19.5 110zM697.001 454c-39.333 0 -71.5 -13.333 -96.5 -40s-40.167 -66 -45.5 -118h285
c0 50.667 -12.667 89.667 -38 117s-60.333 41 -105 41zM466.001 260c0 26 -4.16699 50.6699 -12.5 74.0029s-20 43.666 -35 60.999s-32.667 31.166 -53 41.499s-42.5 15.5 -66.5 15.5c-52.667 0 -93.667 -17.333 -123 -52s-44 -80.667 -44 -138
c0 -26 4.16699 -50.833 12.5 -74.5s20 -44.334 35 -62.001s32.667 -31.667 53 -42s42.5 -15.5 66.5 -15.5c26 0 49.333 4.66699 70 14s38.167 22.5 52.5 39.5s25.333 37.167 33 60.5s11.5 49.333 11.5 78z" />
    <glyph glyph-name="Racute" unicode="&#x154;" horiz-adv-x="617" 
d="M498 -12l-86.999 190.003c-22 47.333 -49.667 81 -83 101s-76 30 -128 30h-15v-309h-95v698c36 3.33301 69.833 5.83301 101.5 7.5s66.167 2.5 103.5 2.5c42.667 0 80 -4.5 112 -13.5s58.667 -21.833 80 -38.5s37.5 -36.334 48.5 -59.001s16.5 -47.667 16.5 -75
c0 -48.667 -14.5 -87.834 -43.5 -117.501s-70.833 -51.834 -125.5 -66.501c13.333 -6 25.666 -12.833 36.999 -20.5s22 -17 32 -28s19.833 -24.167 29.5 -39.5s19.5 -34 29.5 -56l76 -164zM295.001 628.003c-22.667 0 -43 -0.333008 -61 -1s-34.333 -1.66699 -49 -3v-235
h110c48 0 87 10.667 117 32s45 52 45 92c0 33.333 -14 60.833 -42 82.5s-68 32.5 -120 32.5zM196.001 795.003l189 125l42 -84l-200 -102z" />
    <glyph glyph-name="Rcommaaccent" unicode="&#x156;" horiz-adv-x="617" 
d="M498 -12l-86.999 190.003c-22 47.333 -49.667 81 -83 101s-76 30 -128 30h-15v-309h-95v698c36 3.33301 69.833 5.83301 101.5 7.5s66.167 2.5 103.5 2.5c42.667 0 80 -4.5 112 -13.5s58.667 -21.833 80 -38.5s37.5 -36.334 48.5 -59.001s16.5 -47.667 16.5 -75
c0 -48.667 -14.5 -87.834 -43.5 -117.501s-70.833 -51.834 -125.5 -66.501c13.333 -6 25.666 -12.833 36.999 -20.5s22 -17 32 -28s19.833 -24.167 29.5 -39.5s19.5 -34 29.5 -56l76 -164zM295.001 628.003c-22.667 0 -43 -0.333008 -61 -1s-34.333 -1.66699 -49 -3v-235
h110c48 0 87 10.667 117 32s45 52 45 92c0 33.333 -14 60.833 -42 82.5s-68 32.5 -120 32.5zM378.001 -32.9971c-6 -44 -19.5 -81.833 -40.5 -113.5s-47.5 -57.5 -79.5 -77.5l-42 24c22.667 28.667 41 57.667 55 87s24.667 63 32 101z" />
    <glyph glyph-name="rcommaaccent" unicode="&#x157;" horiz-adv-x="399" 
d="M362 433c-12.667 5.33301 -27.665 8.00098 -44.998 8.00098c-18.667 0 -36.834 -4 -54.501 -12s-33.334 -20 -47.001 -36s-24.667 -36.5 -33 -61.5s-12.5 -54.5 -12.5 -88.5v-243h-90v520h87v-113c6 16 14 31.667 24 47s21.833 28.666 35.5 39.999s29.5 20.5 47.5 27.5
s38 10.5 60 10.5c10 0 19.833 -0.5 29.5 -1.5s18.167 -2.5 25.5 -4.5zM167.002 -70.999c-6 -44 -19.5 -81.833 -40.5 -113.5s-47.5 -57.5 -79.5 -77.5l-42 24c22.667 28.667 41 57.667 55 87s24.667 63 32 101z" />
    <glyph glyph-name="Rcaron" unicode="&#x158;" horiz-adv-x="617" 
d="M498 -12l-86.999 190.003c-22 47.333 -49.667 81 -83 101s-76 30 -128 30h-15v-309h-95v698c36 3.33301 69.833 5.83301 101.5 7.5s66.167 2.5 103.5 2.5c42.667 0 80 -4.5 112 -13.5s58.667 -21.833 80 -38.5s37.5 -36.334 48.5 -59.001s16.5 -47.667 16.5 -75
c0 -48.667 -14.5 -87.834 -43.5 -117.501s-70.833 -51.834 -125.5 -66.501c13.333 -6 25.666 -12.833 36.999 -20.5s22 -17 32 -28s19.833 -24.167 29.5 -39.5s19.5 -34 29.5 -56l76 -164zM295.001 628.003c-22.667 0 -43 -0.333008 -61 -1s-34.333 -1.66699 -49 -3v-235
h110c48 0 87 10.667 117 32s45 52 45 92c0 33.333 -14 60.833 -42 82.5s-68 32.5 -120 32.5zM434.001 907.003l43 -78l-146 -80h-64l-147 80l43 78l136 -95z" />
    <glyph glyph-name="rcaron" unicode="&#x159;" horiz-adv-x="399" 
d="M362 433c-12.667 5.33301 -27.665 8.00098 -44.998 8.00098c-18.667 0 -36.834 -4 -54.501 -12s-33.334 -20 -47.001 -36s-24.667 -36.5 -33 -61.5s-12.5 -54.5 -12.5 -88.5v-243h-90v520h87v-113c6 16 14 31.667 24 47s21.833 28.666 35.5 39.999s29.5 20.5 47.5 27.5
s38 10.5 60 10.5c10 0 19.833 -0.5 29.5 -1.5s18.167 -2.5 25.5 -4.5zM221.002 650.001l131 105l47 -74l-146 -94h-64l-146 94l47 74z" />
    <glyph glyph-name="dotlessj" unicode="&#x237;" horiz-adv-x="261" 
d="M91 -48l0.000976562 568h90v-577c0 -30.667 -4.33301 -57 -13 -79s-20.334 -40.167 -35.001 -54.5s-32 -24.833 -52 -31.5s-41.333 -10 -64 -10c-40.667 0 -74.667 7.66699 -102 23l22 75c8.66699 -5.33301 19.167 -10 31.5 -14s24.833 -6 37.5 -6
c56.667 0 85 35.333 85 106z" />
    <glyph glyph-name="circumflex" unicode="&#x2c6;" horiz-adv-x="456" 
d="M97 572l-47 74l146 94h64l146 -94l-47 -74l-131 105z" />
    <glyph glyph-name="caron" unicode="&#x2c7;" horiz-adv-x="457" 
d="M228 650l131 105l47 -74l-146 -94h-64l-146 94l47 74z" />
    <glyph glyph-name="ring" unicode="&#x2da;" horiz-adv-x="350" 
d="M127 702c0 -16 4.33203 -29.667 12.999 -41s20.334 -17 35.001 -17c14 0 25.5 5.16699 34.5 15.5s13.5 24.5 13.5 42.5c0 15.333 -4.16699 28.833 -12.5 40.5s-20.166 17.5 -35.499 17.5c-14.667 0 -26.334 -4.83301 -35.001 -14.5s-13 -24.167 -13 -43.5zM49.999 702
c0 17.333 3.33301 33.333 10 48s15.667 27.334 27 38.001s24.5 19 39.5 25s31.167 9 48.5 9c16.667 0 32.667 -3 48 -9s28.666 -14.333 39.999 -25s20.333 -23.334 27 -38.001s10 -30.667 10 -48s-3.33301 -33.333 -10 -48s-15.667 -27.334 -27 -38.001
s-24.666 -19 -39.999 -25s-31.333 -9 -48 -9c-17.333 0 -33.5 3 -48.5 9s-28.167 14.333 -39.5 25s-20.333 23.334 -27 38.001s-10 30.667 -10 48z" />
    <glyph glyph-name="tilde" unicode="&#x2dc;" horiz-adv-x="423" 
d="M373 656c-12 -11.333 -25.833 -21.834 -41.5 -31.501s-33.834 -14.5 -54.501 -14.5c-13.333 0 -24.833 1.83301 -34.5 5.5s-18.834 7.5 -27.501 11.5s-17.5 7.83301 -26.5 11.5s-19.167 5.5 -30.5 5.5c-14.667 0 -28 -3.66699 -40 -11s-23 -15.666 -33 -24.999l-35 62
c12 13.333 27.333 25.333 46 36s38 16 58 16c12.667 0 23.834 -1.83301 33.501 -5.5s18.667 -7.5 27 -11.5s16.833 -7.83301 25.5 -11.5s18.334 -5.5 29.001 -5.5c14.667 0 27.667 3.16699 39 9.5s21.333 13.5 30 21.5z" />
    <glyph glyph-name="dotaccentcmb" unicode="&#x307;" horiz-adv-x="206" 
d="M103 609c-17.333 0 -32.166 6.16699 -44.499 18.5s-18.5 27.166 -18.5 44.499c0 19.333 5.66699 34.666 17 45.999s26.666 17 45.999 17c17.333 0 32.166 -6.16699 44.499 -18.5s18.5 -27.166 18.5 -44.499c0 -19.333 -5.66699 -34.666 -17 -45.999
s-26.666 -17 -45.999 -17z" />
    <glyph glyph-name="endash" unicode="&#x2013;" 
d="M70 302v82h460v-82h-460z" />
    <glyph glyph-name="emdash" unicode="&#x2014;" horiz-adv-x="750" 
d="M75 302v82h600v-82h-600z" />
    <glyph glyph-name="quoteleft" unicode="&#x2018;" horiz-adv-x="227" 
d="M187 596c0 -19.333 -6.33496 -34.834 -19.002 -46.501s-28.667 -17.5 -48 -17.5c-23.333 0 -42.5 7.66699 -57.5 23s-22.5 37.333 -22.5 66c0 30.667 8.83301 60.834 26.5 90.501s42.5 53.167 74.5 70.5l23 -35c-17.333 -12 -31.166 -25.333 -41.499 -40
s-17.166 -31.667 -20.499 -51c6 2.66699 13 4 21 4c18.667 0 34 -6 46 -18s18 -27.333 18 -46z" />
    <glyph glyph-name="quoteright" unicode="&#x2019;" horiz-adv-x="227" 
d="M40 688c0 19.333 6.33496 34.834 19.002 46.501s28.667 17.5 48 17.5c23.333 0 42.5 -7.66699 57.5 -23s22.5 -37.333 22.5 -66c0 -30.667 -8.83301 -60.834 -26.5 -90.501s-42.5 -53.167 -74.5 -70.5l-23 35c17.333 12 31.166 25.333 41.499 40s17.166 31.667 20.499 51
c-6 -2.66699 -13 -4 -21 -4c-18.667 0 -34 6 -46 18s-18 27.333 -18 46z" />
    <glyph glyph-name="quotesinglbase" unicode="&#x201a;" horiz-adv-x="227" 
d="M40 59c0 19.333 6.33496 34.834 19.002 46.501s28.667 17.5 48 17.5c23.333 0 42.5 -7.66699 57.5 -23s22.5 -37.333 22.5 -66c0 -30.667 -8.83301 -60.834 -26.5 -90.501s-42.5 -53.167 -74.5 -70.5l-23 35c17.333 12 31.166 25.333 41.499 40s17.166 31.667 20.499 51
c-6 -2.66699 -13 -4 -21 -4c-18.667 0 -34 6 -46 18s-18 27.333 -18 46z" />
    <glyph glyph-name="quotedblleft" unicode="&#x201c;" horiz-adv-x="411" 
d="M187 596c0 -19.333 -6.33496 -34.834 -19.002 -46.501s-28.667 -17.5 -48 -17.5c-23.333 0 -42.5 7.66699 -57.5 23s-22.5 37.333 -22.5 66c0 30.667 8.83301 60.834 26.5 90.501s42.5 53.167 74.5 70.5l23 -35c-17.333 -12 -31.166 -25.333 -41.499 -40
s-17.166 -31.667 -20.499 -51c6 2.66699 13 4 21 4c18.667 0 34 -6 46 -18s18 -27.333 18 -46zM370.998 595.999c0 -19.333 -6.33496 -34.834 -19.002 -46.501s-28.667 -17.5 -48 -17.5c-23.333 0 -42.5 7.66699 -57.5 23s-22.5 37.333 -22.5 66
c0 30.667 8.83301 60.834 26.5 90.501s42.5 53.167 74.5 70.5l23 -35c-17.333 -12 -31.166 -25.333 -41.499 -40s-17.166 -31.667 -20.499 -51c6 2.66699 13 4 21 4c18.667 0 34 -6 46 -18s18 -27.333 18 -46z" />
    <glyph glyph-name="quotedblright" unicode="&#x201d;" horiz-adv-x="411" 
d="M224 688c0 19.333 6.33496 34.834 19.002 46.501s28.667 17.5 48 17.5c23.333 0 42.5 -7.66699 57.5 -23s22.5 -37.333 22.5 -66c0 -30.667 -8.83301 -60.834 -26.5 -90.501s-42.5 -53.167 -74.5 -70.5l-23 35c17.333 12 31.166 25.333 41.499 40
s17.166 31.667 20.499 51c-6 -2.66699 -13 -4 -21 -4c-18.667 0 -34 6 -46 18s-18 27.333 -18 46zM40.002 688.001c0 19.333 6.33496 34.834 19.002 46.501s28.667 17.5 48 17.5c23.333 0 42.5 -7.66699 57.5 -23s22.5 -37.333 22.5 -66
c0 -30.667 -8.83301 -60.834 -26.5 -90.501s-42.5 -53.167 -74.5 -70.5l-23 35c17.333 12 31.166 25.333 41.499 40s17.166 31.667 20.499 51c-6 -2.66699 -13 -4 -21 -4c-18.667 0 -34 6 -46 18s-18 27.333 -18 46z" />
    <glyph glyph-name="quotedblbase" unicode="&#x201e;" horiz-adv-x="411" 
d="M224 59c0 19.333 6.33496 34.834 19.002 46.501s28.667 17.5 48 17.5c23.333 0 42.5 -7.66699 57.5 -23s22.5 -37.333 22.5 -66c0 -30.667 -8.83301 -60.834 -26.5 -90.501s-42.5 -53.167 -74.5 -70.5l-23 35c17.333 12 31.166 25.333 41.499 40s17.166 31.667 20.499 51
c-6 -2.66699 -13 -4 -21 -4c-18.667 0 -34 6 -46 18s-18 27.333 -18 46zM40.002 59.001c0 19.333 6.33496 34.834 19.002 46.501s28.667 17.5 48 17.5c23.333 0 42.5 -7.66699 57.5 -23s22.5 -37.333 22.5 -66c0 -30.667 -8.83301 -60.834 -26.5 -90.501
s-42.5 -53.167 -74.5 -70.5l-23 35c17.333 12 31.166 25.333 41.499 40s17.166 31.667 20.499 51c-6 -2.66699 -13 -4 -21 -4c-18.667 0 -34 6 -46 18s-18 27.333 -18 46z" />
    <glyph glyph-name="bullet" unicode="&#x2022;" horiz-adv-x="450" 
d="M225 221c-18.667 0 -36.167 3.5 -52.5 10.5s-30.5 16.5 -42.5 28.5s-21.5 26.167 -28.5 42.5s-10.5 33.833 -10.5 52.5c0 41.333 11.833 74 35.5 98s56.5 36 98.5 36c18.667 0 36.167 -3.5 52.5 -10.5s30.5 -16.5 42.5 -28.5s21.5 -26.167 28.5 -42.5
s10.5 -33.833 10.5 -52.5c0 -41.333 -11.833 -74 -35.5 -98s-56.5 -36 -98.5 -36z" />
    <glyph glyph-name="guilsinglleft" unicode="&#x2039;" horiz-adv-x="366" 
d="M218 129l-158 194v42l158 194l58 -49l-142 -166l142 -166z" />
    <glyph glyph-name="guilsinglright" unicode="&#x203a;" horiz-adv-x="366" 
d="M90 178l142 166l-142 166l58 49l158 -194v-42l-158 -194z" />
    <glyph glyph-name="Euro" unicode="&#x20ac;" 
d="M212 235c14 -52 37.166 -93.1689 69.499 -123.502s71.5 -45.5 117.5 -45.5c32.667 0 60.167 4.5 82.5 13.5s43.5 19.167 63.5 30.5l31 -73c-17.333 -11.333 -42.166 -22.333 -74.499 -33s-69.5 -16 -111.5 -16c-72.667 0 -132.5 21.833 -179.5 65.5
s-78.167 104.167 -93.5 181.5h-94v73h87v67h-87v73h93c7.33301 40 19 76.167 35 108.5s36.333 60 61 83s53.167 40.833 85.5 53.5s68.5 19 108.5 19c34 0 64.333 -3.66699 91 -11s50.667 -16.666 72 -27.999l-25 -76c-20.667 11.333 -42 20.333 -64 27s-45.667 10 -71 10
c-54 0 -98.333 -16.167 -133 -48.5s-58 -78.166 -70 -137.499h255v-73h-259v-67h239v-73h-229z" />
    <glyph glyph-name="commaaccent" unicode="&#xf6c3;" horiz-adv-x="242" 
d="M202 -71c-6 -44 -19.5 -81.833 -40.5 -113.5s-47.5 -57.5 -79.5 -77.5l-42 24c22.667 28.667 41 57.667 55 87s24.667 63 32 101z" />
    <glyph glyph-name=".null" horiz-adv-x="0" 
 />
    <glyph glyph-name="nonmarkingreturn" horiz-adv-x="300" 
 />
    <glyph glyph-name="grave.cap" horiz-adv-x="311" 
d="M240 554l-200 102l42 84l189 -125z" />
    <glyph glyph-name="dieresis.cap" horiz-adv-x="402" 
d="M110 577c-16.667 0 -30.834 6 -42.501 18s-17.5 26 -17.5 42c0 18 5.33301 32.5 16 43.5s25.334 16.5 44.001 16.5c16.667 0 30.834 -6 42.501 -18s17.5 -26 17.5 -42c0 -18 -5.33301 -32.5 -16 -43.5s-25.334 -16.5 -44.001 -16.5zM292 577
c-16.667 0 -30.834 6 -42.501 18s-17.5 26 -17.5 42c0 18 5.33301 32.5 16 43.5s25.334 16.5 44.001 16.5c16.667 0 30.834 -6 42.501 -18s17.5 -26 17.5 -42c0 -18 -5.33301 -32.5 -16 -43.5s-25.334 -16.5 -44.001 -16.5z" />
    <glyph glyph-name="acute.cap" horiz-adv-x="311" 
d="M40 615l189 125l42 -84l-200 -102z" />
    <glyph glyph-name="circumflex.cap" horiz-adv-x="457" 
d="M93 572l-43 78l147 80h64l146 -80l-43 -78l-135 95z" />
    <glyph glyph-name="caron.cap" horiz-adv-x="457" 
d="M364 727l43 -78l-146 -80h-64l-147 80l43 78l136 -95z" />
    <glyph glyph-name="ring.cap" horiz-adv-x="350" 
d="M127 632c0 -16 4.33203 -29.667 12.999 -41s20.334 -17 35.001 -17c14 0 25.5 5.16699 34.5 15.5s13.5 24.5 13.5 42.5c0 15.333 -4.16699 28.833 -12.5 40.5s-20.166 17.5 -35.499 17.5c-14.667 0 -26.334 -4.83301 -35.001 -14.5s-13 -24.167 -13 -43.5zM49.999 632
c0 17.333 3.33301 33.333 10 48s15.667 27.334 27 38.001s24.5 19 39.5 25s31.167 9 48.5 9c16.667 0 32.667 -3 48 -9s28.666 -14.333 39.999 -25s20.333 -23.334 27 -38.001s10 -30.667 10 -48s-3.33301 -33.333 -10 -48s-15.667 -27.334 -27 -38.001
s-24.666 -19 -39.999 -25s-31.333 -9 -48 -9c-17.333 0 -33.5 3 -48.5 9s-28.167 14.333 -39.5 25s-20.333 23.334 -27 38.001s-10 30.667 -10 48z" />
    <glyph glyph-name="tilde.cap" horiz-adv-x="423" 
d="M373 626c-12 -11.333 -25.833 -21.834 -41.5 -31.501s-33.834 -14.5 -54.501 -14.5c-13.333 0 -24.833 1.83301 -34.5 5.5s-18.834 7.5 -27.501 11.5s-17.5 7.83301 -26.5 11.5s-19.167 5.5 -30.5 5.5c-14.667 0 -28 -3.66699 -40 -11s-23 -15.666 -33 -24.999l-35 62
c12 13.333 27.333 25.333 46 36s38 16 58 16c12.667 0 23.834 -1.83301 33.501 -5.5s18.667 -7.5 27 -11.5s16.833 -7.83301 25.5 -11.5s18.334 -5.5 29.001 -5.5c14.667 0 27.667 3.16699 39 9.5s21.333 13.5 30 21.5z" />
    <glyph glyph-name="dotaccentcmb.cap" horiz-adv-x="206" 
d="M103 574c-17.333 0 -32.166 6.16699 -44.499 18.5s-18.5 27.166 -18.5 44.499c0 19.333 5.66699 34.666 17 45.999s26.666 17 45.999 17c17.333 0 32.166 -6.16699 44.499 -18.5s18.5 -27.166 18.5 -44.499c0 -19.333 -5.66699 -34.666 -17 -45.999
s-26.666 -17 -45.999 -17z" />
    <glyph glyph-name="foundryicon" horiz-adv-x="864" 
d="M144 0v576h288v-288h288v-288h-576zM576 432v144h144v-144h-144z" />
    </font>
</defs>
</svg>
